<svg width="320" height="265" viewBox="0 0 320 265" fill="none" xmlns="http://www.w3.org/2000/svg"><path d="M-364 264c30.81-15.199 155.659-95.389 379.993-95.389 280.418 0 437.148 186.847 860.007 32.495M-364 96.389C-333.19 81.189-208.341 1 15.993 1 296.41 1 453.14 187.847 876 33.495" stroke="#085ED0" stroke-opacity=".1"/><path d="M-364 258.594c30.81-15.199 155.659-95.389 379.993-95.389C296.41 163.205 453.14 350.052 876 195.7" stroke="#085ED0" stroke-opacity=".1"/><path d="M-364 253.188c30.81-15.2 155.659-95.389 379.993-95.389 280.417 0 437.148 186.847 860.007 32.495" stroke="#085ED0" stroke-opacity=".1"/><path d="M-364 247.779c30.81-15.199 155.659-95.388 379.993-95.388 280.417 0 437.148 186.847 860.007 32.495" stroke="#085ED0" stroke-opacity=".1"/><path d="M-364 242.373c30.81-15.199 155.659-95.389 379.993-95.389 280.417 0 437.148 186.847 860.007 32.495" stroke="#085ED0" stroke-opacity=".1"/><path d="M-364 236.967c30.81-15.199 155.659-95.389 379.993-95.389 280.417 0 437.148 186.847 860.007 32.495" stroke="#085ED0" stroke-opacity=".1"/><path d="M-364 231.561c30.81-15.2 155.659-95.389 379.993-95.389 280.417 0 437.148 186.847 860.007 32.495" stroke="#085ED0" stroke-opacity=".1"/><path d="M-364 226.153c30.81-15.2 155.659-95.389 379.993-95.389 280.417 0 437.148 186.847 860.007 32.495" stroke="#085ED0" stroke-opacity=".1"/><path d="M-364 220.746c30.81-15.199 155.659-95.389 379.993-95.389 280.417 0 437.148 186.847 860.007 32.496" stroke="#085ED0" stroke-opacity=".1"/><path d="M-364 215.34c30.81-15.199 155.659-95.389 379.993-95.389 280.417 0 437.148 186.847 860.007 32.495" stroke="#085ED0" stroke-opacity=".1"/><path d="M-364 209.932c30.81-15.199 155.659-95.389 379.993-95.389 280.417 0 437.148 186.847 860.007 32.495" stroke="#085ED0" stroke-opacity=".1"/><path d="M-364 204.526c30.81-15.2 155.659-95.389 379.993-95.389 280.417 0 437.148 186.847 860.007 32.495" stroke="#085ED0" stroke-opacity=".1"/><path d="M-364 199.119c30.81-15.199 155.659-95.389 379.993-95.389 280.417 0 437.148 186.847 860.007 32.496" stroke="#085ED0" stroke-opacity=".1"/><path d="M-364 193.711c30.81-15.199 155.659-95.389 379.993-95.389C296.41 98.322 453.14 285.17 876 130.817" stroke="#085ED0" stroke-opacity=".1"/><path d="M-364 188.303c30.81-15.199 155.659-95.389 379.993-95.389C296.41 92.914 453.14 279.761 876 125.41" stroke="#085ED0" stroke-opacity=".1"/><path d="M-364 182.899c30.81-15.2 155.659-95.39 379.993-95.39C296.41 87.51 453.14 274.358 876 120.006" stroke="#085ED0" stroke-opacity=".1"/><path d="M-364 177.492c30.81-15.199 155.659-95.388 379.993-95.388C296.41 82.103 453.14 268.95 876 114.599" stroke="#085ED0" stroke-opacity=".1"/><path d="M-364 172.084c30.81-15.199 155.659-95.389 379.993-95.389C296.41 76.695 453.14 263.542 876 109.19" stroke="#085ED0" stroke-opacity=".1"/><path d="M-364 166.678c30.81-15.199 155.659-95.389 379.993-95.389C296.41 71.29 453.14 258.136 876 103.784" stroke="#085ED0" stroke-opacity=".1"/><path d="M-364 161.27c30.81-15.2 155.659-95.39 379.993-95.39C296.41 65.88 453.14 252.729 876 98.377" stroke="#085ED0" stroke-opacity=".1"/><path d="M-364 155.863c30.81-15.199 155.659-95.388 379.993-95.388C296.41 60.475 453.14 247.322 876 92.97" stroke="#085ED0" stroke-opacity=".1"/><path d="M-364 150.457c30.81-15.199 155.659-95.389 379.993-95.389C296.41 55.068 453.14 241.915 876 87.564" stroke="#085ED0" stroke-opacity=".1"/><path d="M-364 145.051c30.81-15.199 155.659-95.389 379.993-95.389C296.41 49.662 453.14 236.51 876 82.157" stroke="#085ED0" stroke-opacity=".1"/><path d="M-364 139.643c30.81-15.2 155.659-95.39 379.993-95.39C296.41 44.254 453.14 231.102 876 76.75" stroke="#085ED0" stroke-opacity=".1"/><path d="M-364 134.237c30.81-15.2 155.659-95.39 379.993-95.39C296.41 38.848 453.14 225.696 876 71.344" stroke="#085ED0" stroke-opacity=".1"/><path d="M-364 128.83c30.81-15.199 155.659-95.389 379.993-95.389C296.41 33.441 453.14 220.288 876 65.936" stroke="#085ED0" stroke-opacity=".1"/><path d="M-364 123.424c30.81-15.199 155.659-95.389 379.993-95.389C296.41 28.035 453.14 214.882 876 60.53" stroke="#085ED0" stroke-opacity=".1"/><path d="M-364 118.018c30.81-15.2 155.659-95.39 379.993-95.39C296.41 22.629 453.14 209.477 876 55.125" stroke="#085ED0" stroke-opacity=".1"/><path d="M-364 112.61c30.81-15.2 155.659-95.39 379.993-95.39C296.41 17.22 453.14 204.069 876 49.717" stroke="#085ED0" stroke-opacity=".1"/><path d="M-364 107.203c30.81-15.199 155.659-95.389 379.993-95.389C296.41 11.814 453.14 198.661 876 44.31" stroke="#085ED0" stroke-opacity=".1"/><path d="M-364 101.795c30.81-15.2 155.659-95.389 379.993-95.389C296.41 6.406 453.14 193.253 876 38.901" stroke="#085ED0" stroke-opacity=".1"/></svg>