<svg width="40" height="40" viewBox="0 0 40 40" fill="none" xmlns="http://www.w3.org/2000/svg"><g clip-path="url(#a)"><mask id="b" style="mask-type:alpha" maskUnits="userSpaceOnUse" x="0" y="0" width="40" height="40"><path d="M20 40c11.046 0 20-8.954 20-20S31.046 0 20 0 0 8.954 0 20s8.954 20 20 20z" fill="#C4C4C4"/></mask><g mask="url(#b)"><path d="M55.303 26.66H-15V40h70.303V26.66z" fill="#DA0000"/><path d="M55.303 13.34H-15v13.34h70.303V13.34z" fill="#fff"/><path d="M55.303 0H-15v13.34h70.303V0z" fill="#188E34"/><path d="M17.5 12.038h.945v.62h1.546v-.92h-.924v.3h.623v.32h-.944v-.62h-1.547v.92h.301v-.62zm5.303.322h-.321v-1.24h-.301v1.24h-.322v-1.24h-.301v.62h-1.245v.92h.924v-.3h-.623v-.32h.944v.62h1.547v-1.54h-.302v1.24z" fill="#fff"/><path d="M21.237 11.12h-4.038v.3h4.038v-.3zm1.868 1.939h-2.793v.3h2.793v-.3zm-3.114 0H17.2v.3h2.792v-.3zm3.736-1.021h.944v.62h1.547v-.92h-.924v.3h.622v.32h-.944v-.62h-1.546v.92h.301v-.62zm5.303.322h-.322v-1.24h-.3v1.24h-.322v-1.24h-.302v.62H26.54v.92h.924v-.3h-.623v-.32h.944v.62h1.547v-1.54h-.301v1.24z" fill="#fff"/><path d="M27.463 11.12h-4.037v.3h4.037v-.3zm1.868 1.939H26.54v.3h2.792v-.3zm-3.113 0h-2.792v.3h2.792v-.3zM5.045 12.038h.945v.62h1.546v-.92h-.924v.3h.623v.32H6.29v-.62H4.744v.92h.301v-.62zm5.303.322h-.321v-1.24h-.302v1.24h-.32v-1.24h-.302v.62H7.857v.92h.924v-.3H8.16v-.32h.944v.62h1.546v-1.54h-.3v1.24z" fill="#fff"/><path d="M8.782 11.12H4.744v.3h4.038v-.3zm-1.246 1.939H4.744v.3h2.792v-.3zm3.114 0H7.856v.3h2.792v-.3zm4.36-1.939h-4.037v.3h4.037v-.3zm-3.736.918h.944v.62h1.547v-.92h-.924v.3h.622v.32h-.944v-.62h-1.546v.92h.301v-.62z" fill="#fff"/><path d="M16.577 12.36h-.322v-1.24h-.301v1.24h-.321v-1.24h-.302v.62h-1.245v.92h.924v-.3h-.623v-.32h.944v.62h1.547v-1.54h-.301v1.24zm.301.699h-2.792v.3h2.792v-.3zm-3.113 0h-2.792v.3h2.792v-.3zM33.69 11.12h-4.038v.3h4.038v-.3zm-3.736.918h.944v.62h1.546v-.92h-.924v.3h.623v.32H31.2v-.62h-1.547v.92h.302v-.62z" fill="#fff"/><path d="M35.256 12.36h-.321v-1.24h-.301v1.24h-.322v-1.24h-.301v.62h-1.245v.92h.924v-.3h-.623v-.32h.944v.62h1.547v-1.54h-.302v1.24zm.302.699h-2.792v.3h2.792v-.3zm-3.114 0h-2.792v.3h2.792v-.3zm3.736-1.021h.944v.62h1.547v-.92h-.924v.3h.623v.32h-.944v-.62h-1.547v.92h.301v-.62zm5.303.322h-.322v-1.24h-.3v1.24h-.322v-1.24h-.301v.62h-1.246v.92h.924v-.3h-.622v-.32h.944v.62h1.546v-1.54h-.301v1.24z" fill="#fff"/><path d="M39.916 11.12H35.88v.3h4.037v-.3zm1.868 1.939h-2.792v.3h2.792v-.3zm-3.114 0h-2.79v.3h2.792v-.3zm-39.871-1.021h.964v.62H1.31v-.92H.386v.3h.622v.32H.064v-.62h-1.546v.92h.28v-.62zm5.323.322H3.8v-1.24h-.3v1.24h-.321v-1.24h-.302v.62H1.631v.92h.924v-.3h-.623v-.32h.944v.62h1.547v-1.54h-.301v1.24z" fill="#fff"/><path d="M2.555 11.12h-4.037v.3h4.037v-.3zm1.868 1.939H1.63v.3h2.792v-.3zm-3.113 0h-2.792v.3H1.31v-.3zM21.237 27.34h-4.038v.3h4.038v-.3z" fill="#fff"/><path d="M22.803 28.58h-.321v-1.24h-.301v1.24h-.322v-1.24h-.301v.62h-1.245v.92h.924v-.3h-.623v-.32h.944v.62h1.547v-1.54h-.302v1.24zm-3.736-.321h.623v.32h-.944v-.62h-1.547v.92h.301v-.62h.945v.62h1.546v-.92h-.924v.3zm.924-1.601H17.2v.3h2.792v-.3zm3.114 0h-2.793v.3h2.793v-.3zm2.189 1.601h.622v.32h-.944v-.62h-1.546v.92h.301v-.62h.944v.62h1.547v-.92h-.924v.3zm3.736.321h-.322v-1.24h-.3v1.24h-.322v-1.24h-.302v.62H26.54v.92h.924v-.3h-.623v-.32h.944v.62h1.547v-1.54h-.301v1.24z" fill="#fff"/><path d="M27.463 27.34h-4.037v.3h4.037v-.3zm-1.245-.682h-2.792v.3h2.792v-.3zm3.113 0H26.54v.3h2.792v-.3zM10.348 28.58h-.321v-1.24h-.302v1.24h-.32v-1.24h-.302v.62H7.857v.92h.924v-.3H8.16v-.32h.944v.62h1.546v-1.54h-.3v1.24zm-3.736-.321h.623v.32H6.29v-.62H4.744v.92h.301v-.62h.945v.62h1.546v-.92h-.924v.3z" fill="#fff"/><path d="M8.782 27.34H4.744v.3h4.038v-.3zm-1.246-.682H4.744v.3h2.792v-.3zm3.114 0H7.856v.3h2.792v-.3zm2.19 1.601h.623v.32h-.944v-.62h-1.546v.92h.301v-.62h.944v.62h1.547v-.92h-.924v.3zm3.737.321h-.322v-1.24h-.301v1.24h-.321v-1.24h-.302v.62h-1.245v.92h.924v-.3h-.623v-.32h.944v.62h1.547v-1.54h-.301v1.24z" fill="#fff"/><path d="M15.01 27.34h-4.037v.3h4.037v-.3zm1.868-.682h-2.792v.3h2.792v-.3zm-3.113 0h-2.792v.3h2.792v-.3zm19.925.682h-4.038v.3h4.038v-.3z" fill="#fff"/><path d="M35.256 28.58h-.321v-1.24h-.301v1.24h-.322v-1.24h-.301v.62h-1.245v.92h.924v-.3h-.623v-.32h.944v.62h1.547v-1.54h-.302v1.24zm-3.736-.321h.623v.32H31.2v-.62h-1.547v.92h.302v-.62h.944v.62h1.546v-.92h-.924v.3zm.924-1.601h-2.792v.3h2.792v-.3zm3.114 0h-2.792v.3h2.792v-.3zm2.189 1.601h.623v.32h-.944v-.62h-1.547v.92h.301v-.62h.944v.62h1.547v-.92h-.924v.3zm3.736.321h-.322v-1.24h-.3v1.24h-.322v-1.24h-.301v.62h-1.246v.92h.924v-.3h-.622v-.32h.944v.62h1.546v-1.54h-.301v1.24z" fill="#fff"/><path d="M39.916 27.34H35.88v.3h4.037v-.3zm-1.246-.682h-2.79v.3h2.792v-.3zm3.114 0h-2.792v.3h2.792v-.3zM4.122 28.58H3.8v-1.24h-.3v1.24h-.321v-1.24h-.302v.62H1.631v.92h.924v-.3h-.623v-.32h.944v.62h1.547v-1.54h-.301v1.24zm-3.736-.321h.622v.32H.064v-.62h-1.546v.92h.28v-.62h.965v.62H1.31v-.92H.386v.3z" fill="#fff"/><path d="M2.555 27.34h-4.037v.3h4.037v-.3zm-1.245-.682h-2.792v.3H1.31v-.3zm3.113 0H1.63v.3h2.792v-.3z" fill="#fff"/><path d="M22.2 16.4s3.615 2.82.963 6.9c2.491-1.54 2.712-5.74-.964-6.9zm-4.098 0c-3.676 1.16-3.475 5.36-.964 6.9-2.652-4.06.964-6.9.964-6.9z" fill="#DA0000"/><path d="M23.304 19.96c-.14-2.64-1.547-3.44-1.547-3.44s2.51 3.64-1.185 6.7l.16-3.78v-2.78c-.2-.06-.582-.5-.582-.5s-.381.44-.582.5v2.78l.16 3.78c-3.676-3.04-1.185-6.7-1.185-6.7s-1.406.8-1.546 3.44c-.04 2.62 2.33 3.9 2.33 3.9-.221.1-.804.3-1.848.3 1.285.44 2.25.12 2.25.12l.421.54.422-.54s.984.32 2.25-.12c-1.045 0-1.647-.18-1.848-.3 0 0 2.37-1.28 2.33-3.9z" fill="#DA0000"/><path d="M20.151 16c.582.64 1.567 0 1.225-.7-.602 1.06-1.225.2-1.225.2s-.623.86-1.225-.2c-.342.7.643 1.36 1.225.7z" fill="#DA0000"/></g></g><defs><clipPath id="a"><path fill="#fff" d="M0 0h40v40H0z"/></clipPath></defs></svg>