<svg width="1920" height="430" viewBox="0 0 1920 430" fill="none" xmlns="http://www.w3.org/2000/svg"><path d="M-359 429.461c57.672-24.759 291.367-155.382 711.283-155.382 524.894 0 818.267 304.36 1609.787 52.932" stroke="url(#a)"/><path d="M-359 156.434C-301.328 131.675-67.633 1.052 352.283 1.052c524.894 0 818.267 304.36 1609.787 52.932" stroke="url(#b)"/><path d="M-359 420.655c57.672-24.759 291.367-155.382 711.283-155.382 524.894 0 818.267 304.36 1609.787 52.932" stroke="url(#c)"/><path d="M-359 411.846c57.672-24.758 291.367-155.381 711.283-155.381 524.894 0 818.267 304.36 1609.787 52.932" stroke="url(#d)"/><path d="M-359 403.038c57.672-24.758 291.367-155.381 711.283-155.381 524.894 0 818.267 304.36 1609.787 52.932" stroke="url(#e)"/><path d="M-359 394.232c57.672-24.758 291.367-155.381 711.283-155.381 524.894 0 818.267 304.36 1609.787 52.932" stroke="url(#f)"/><path d="M-359 385.425c57.672-24.759 291.367-155.382 711.283-155.382 524.894 0 818.267 304.361 1609.787 52.933" stroke="url(#g)"/><path d="M-359 376.618c57.672-24.759 291.367-155.382 711.283-155.382 524.894 0 818.267 304.36 1609.787 52.933" stroke="url(#h)"/><path d="M-359 367.81c57.672-24.758 291.367-155.381 711.283-155.381 524.894 0 818.267 304.36 1609.787 52.932" stroke="url(#i)"/><path d="M-359 359.004c57.672-24.758 291.367-155.381 711.283-155.381 524.894 0 818.267 304.36 1609.787 52.932" stroke="url(#j)"/><path d="M-359 350.196c57.672-24.759 291.367-155.382 711.283-155.382 524.894 0 818.267 304.36 1609.787 52.932" stroke="url(#k)"/><path d="M-359 341.387c57.672-24.758 291.367-155.381 711.283-155.381 524.894 0 818.267 304.36 1609.787 52.932" stroke="url(#l)"/><path d="M-359 332.581C-301.328 307.823-67.633 177.2 352.283 177.2c524.894 0 818.267 304.36 1609.787 52.932" stroke="url(#m)"/><path d="M-359 323.773c57.672-24.759 291.367-155.382 711.283-155.382 524.894 0 818.267 304.36 1609.787 52.932" stroke="url(#n)"/><path d="M-359 314.966c57.672-24.759 291.367-155.382 711.283-155.382 524.894 0 818.267 304.36 1609.787 52.932" stroke="url(#o)"/><path d="M-359 306.157c57.672-24.759 291.367-155.382 711.283-155.382 524.894 0 818.267 304.36 1609.787 52.932" stroke="url(#p)"/><path d="M-359 297.352c57.672-24.759 291.367-155.382 711.283-155.382 524.894 0 818.267 304.36 1609.787 52.932" stroke="url(#q)"/><path d="M-359 288.545c57.672-24.758 291.367-155.381 711.283-155.381 524.894 0 818.267 304.36 1609.787 52.932" stroke="url(#r)"/><path d="M-359 279.737c57.672-24.759 291.367-155.382 711.283-155.382 524.894 0 818.267 304.36 1609.787 52.932" stroke="url(#s)"/><path d="M-359 270.93c57.672-24.759 291.367-155.382 711.283-155.382 524.894 0 818.267 304.361 1609.787 52.933" stroke="url(#t)"/><path d="M-359 262.121c57.672-24.758 291.367-155.381 711.283-155.381 524.894 0 818.267 304.36 1609.787 52.932" stroke="url(#u)"/><path d="M-359 253.315c57.672-24.758 291.367-155.381 711.283-155.381 524.894 0 818.267 304.36 1609.787 52.932" stroke="url(#v)"/><path d="M-359 244.508c57.672-24.759 291.367-155.382 711.283-155.382 524.894 0 818.267 304.36 1609.787 52.932" stroke="url(#w)"/><path d="M-359 235.699C-301.328 210.94-67.633 80.317 352.283 80.317c524.894 0 818.267 304.361 1609.787 52.933" stroke="url(#x)"/><path d="M-359 226.891C-301.328 202.133-67.633 71.51 352.283 71.51c524.894 0 818.267 304.36 1609.787 52.932" stroke="url(#y)"/><path d="M-359 218.085c57.672-24.758 291.367-155.381 711.283-155.381 524.894 0 818.267 304.36 1609.787 52.932" stroke="url(#z)"/><path d="M-359 209.278c57.672-24.759 291.367-155.382 711.283-155.382 524.894 0 818.267 304.36 1609.787 52.932" stroke="url(#A)"/><path d="M-359 200.471c57.672-24.759 291.367-155.382 711.283-155.382 524.894 0 818.267 304.361 1609.787 52.933" stroke="url(#B)"/><path d="M-359 191.665c57.672-24.758 291.367-155.381 711.283-155.381 524.894 0 818.267 304.36 1609.787 52.932" stroke="url(#C)"/><path d="M-359 182.855c57.672-24.758 291.367-155.381 711.283-155.381 524.894 0 818.267 304.36 1609.787 52.932" stroke="url(#D)"/><path d="M-359 174.049C-301.328 149.29-67.633 18.667 352.283 18.667c524.894 0 818.267 304.361 1609.787 52.933" stroke="url(#E)"/><path d="M-359 165.241C-301.328 140.482-67.633 9.859 352.283 9.859c524.894 0 818.267 304.36 1609.787 52.932" stroke="url(#F)"/><defs><linearGradient id="a" x1="801.536" y1="274.079" x2="801.536" y2="429.461" gradientUnits="userSpaceOnUse"><stop stop-color="#fff"/><stop offset="1" stop-color="#CDE2FF" stop-opacity=".59"/></linearGradient><linearGradient id="b" x1="801.536" y1="1.052" x2="801.536" y2="156.434" gradientUnits="userSpaceOnUse"><stop stop-color="#fff"/><stop offset="1" stop-color="#CDE2FF" stop-opacity=".59"/></linearGradient><linearGradient id="c" x1="801.536" y1="265.273" x2="801.536" y2="420.655" gradientUnits="userSpaceOnUse"><stop stop-color="#fff"/><stop offset="1" stop-color="#CDE2FF" stop-opacity=".59"/></linearGradient><linearGradient id="d" x1="801.536" y1="256.465" x2="801.536" y2="411.846" gradientUnits="userSpaceOnUse"><stop stop-color="#fff"/><stop offset="1" stop-color="#CDE2FF" stop-opacity=".59"/></linearGradient><linearGradient id="e" x1="801.536" y1="247.657" x2="801.536" y2="403.038" gradientUnits="userSpaceOnUse"><stop stop-color="#fff"/><stop offset="1" stop-color="#CDE2FF" stop-opacity=".59"/></linearGradient><linearGradient id="f" x1="801.536" y1="238.851" x2="801.536" y2="394.232" gradientUnits="userSpaceOnUse"><stop stop-color="#fff"/><stop offset="1" stop-color="#CDE2FF" stop-opacity=".59"/></linearGradient><linearGradient id="g" x1="801.536" y1="230.043" x2="801.536" y2="385.425" gradientUnits="userSpaceOnUse"><stop stop-color="#fff"/><stop offset="1" stop-color="#CDE2FF" stop-opacity=".59"/></linearGradient><linearGradient id="h" x1="801.536" y1="221.236" x2="801.536" y2="376.618" gradientUnits="userSpaceOnUse"><stop stop-color="#fff"/><stop offset="1" stop-color="#CDE2FF" stop-opacity=".59"/></linearGradient><linearGradient id="i" x1="801.536" y1="212.429" x2="801.536" y2="367.81" gradientUnits="userSpaceOnUse"><stop stop-color="#fff"/><stop offset="1" stop-color="#CDE2FF" stop-opacity=".59"/></linearGradient><linearGradient id="j" x1="801.536" y1="203.623" x2="801.536" y2="359.004" gradientUnits="userSpaceOnUse"><stop stop-color="#fff"/><stop offset="1" stop-color="#CDE2FF" stop-opacity=".59"/></linearGradient><linearGradient id="k" x1="801.536" y1="194.814" x2="801.536" y2="350.196" gradientUnits="userSpaceOnUse"><stop stop-color="#fff"/><stop offset="1" stop-color="#CDE2FF" stop-opacity=".59"/></linearGradient><linearGradient id="l" x1="801.536" y1="186.006" x2="801.536" y2="341.387" gradientUnits="userSpaceOnUse"><stop stop-color="#fff"/><stop offset="1" stop-color="#CDE2FF" stop-opacity=".59"/></linearGradient><linearGradient id="m" x1="801.536" y1="177.2" x2="801.536" y2="332.581" gradientUnits="userSpaceOnUse"><stop stop-color="#fff"/><stop offset="1" stop-color="#CDE2FF" stop-opacity=".59"/></linearGradient><linearGradient id="n" x1="801.536" y1="168.391" x2="801.536" y2="323.773" gradientUnits="userSpaceOnUse"><stop stop-color="#fff"/><stop offset="1" stop-color="#CDE2FF" stop-opacity=".59"/></linearGradient><linearGradient id="o" x1="801.536" y1="159.584" x2="801.536" y2="314.966" gradientUnits="userSpaceOnUse"><stop stop-color="#fff"/><stop offset="1" stop-color="#CDE2FF" stop-opacity=".59"/></linearGradient><linearGradient id="p" x1="801.536" y1="150.775" x2="801.536" y2="306.157" gradientUnits="userSpaceOnUse"><stop stop-color="#fff"/><stop offset="1" stop-color="#CDE2FF" stop-opacity=".59"/></linearGradient><linearGradient id="q" x1="801.536" y1="141.97" x2="801.536" y2="297.352" gradientUnits="userSpaceOnUse"><stop stop-color="#fff"/><stop offset="1" stop-color="#CDE2FF" stop-opacity=".59"/></linearGradient><linearGradient id="r" x1="801.536" y1="133.164" x2="801.536" y2="288.545" gradientUnits="userSpaceOnUse"><stop stop-color="#fff"/><stop offset="1" stop-color="#CDE2FF" stop-opacity=".59"/></linearGradient><linearGradient id="s" x1="801.536" y1="124.355" x2="801.536" y2="279.737" gradientUnits="userSpaceOnUse"><stop stop-color="#fff"/><stop offset="1" stop-color="#CDE2FF" stop-opacity=".59"/></linearGradient><linearGradient id="t" x1="801.536" y1="115.548" x2="801.536" y2="270.93" gradientUnits="userSpaceOnUse"><stop stop-color="#fff"/><stop offset="1" stop-color="#CDE2FF" stop-opacity=".59"/></linearGradient><linearGradient id="u" x1="801.536" y1="106.74" x2="801.536" y2="262.121" gradientUnits="userSpaceOnUse"><stop stop-color="#fff"/><stop offset="1" stop-color="#CDE2FF" stop-opacity=".59"/></linearGradient><linearGradient id="v" x1="801.536" y1="97.934" x2="801.536" y2="253.315" gradientUnits="userSpaceOnUse"><stop stop-color="#fff"/><stop offset="1" stop-color="#CDE2FF" stop-opacity=".59"/></linearGradient><linearGradient id="w" x1="801.536" y1="89.126" x2="801.536" y2="244.508" gradientUnits="userSpaceOnUse"><stop stop-color="#fff"/><stop offset="1" stop-color="#CDE2FF" stop-opacity=".59"/></linearGradient><linearGradient id="x" x1="801.536" y1="80.317" x2="801.536" y2="235.699" gradientUnits="userSpaceOnUse"><stop stop-color="#fff"/><stop offset="1" stop-color="#CDE2FF" stop-opacity=".59"/></linearGradient><linearGradient id="y" x1="801.536" y1="71.51" x2="801.536" y2="226.891" gradientUnits="userSpaceOnUse"><stop stop-color="#fff"/><stop offset="1" stop-color="#CDE2FF" stop-opacity=".59"/></linearGradient><linearGradient id="z" x1="801.536" y1="62.704" x2="801.536" y2="218.085" gradientUnits="userSpaceOnUse"><stop stop-color="#fff"/><stop offset="1" stop-color="#CDE2FF" stop-opacity=".59"/></linearGradient><linearGradient id="A" x1="801.536" y1="53.896" x2="801.536" y2="209.278" gradientUnits="userSpaceOnUse"><stop stop-color="#fff"/><stop offset="1" stop-color="#CDE2FF" stop-opacity=".59"/></linearGradient><linearGradient id="B" x1="801.536" y1="45.089" x2="801.536" y2="200.471" gradientUnits="userSpaceOnUse"><stop stop-color="#fff"/><stop offset="1" stop-color="#CDE2FF" stop-opacity=".59"/></linearGradient><linearGradient id="C" x1="801.536" y1="36.284" x2="801.536" y2="191.665" gradientUnits="userSpaceOnUse"><stop stop-color="#fff"/><stop offset="1" stop-color="#CDE2FF" stop-opacity=".59"/></linearGradient><linearGradient id="D" x1="801.536" y1="27.474" x2="801.536" y2="182.855" gradientUnits="userSpaceOnUse"><stop stop-color="#fff"/><stop offset="1" stop-color="#CDE2FF" stop-opacity=".59"/></linearGradient><linearGradient id="E" x1="801.536" y1="18.668" x2="801.536" y2="174.049" gradientUnits="userSpaceOnUse"><stop stop-color="#fff"/><stop offset="1" stop-color="#CDE2FF" stop-opacity=".59"/></linearGradient><linearGradient id="F" x1="801.536" y1="9.859" x2="801.536" y2="165.241" gradientUnits="userSpaceOnUse"><stop stop-color="#fff"/><stop offset="1" stop-color="#CDE2FF" stop-opacity=".59"/></linearGradient></defs></svg>