<svg width="768" height="265" viewBox="0 0 768 265" fill="none" xmlns="http://www.w3.org/2000/svg"><path d="M-288 264.278c30.822-20.199 155.716-126.762 380.133-126.762 280.521 0 437.31 248.3 860.325 43.182" stroke="#085ED0" stroke-opacity=".1"/><path d="M-288 257.094c30.822-20.198 155.716-126.762 380.133-126.762 280.521 0 437.31 248.301 860.325 43.183" stroke="#085ED0" stroke-opacity=".1"/><path d="M-288 249.911c30.822-20.199 155.716-126.763 380.133-126.763 280.521 0 437.31 248.301 860.325 43.183" stroke="#085ED0" stroke-opacity=".1"/><path d="M-288 242.723c30.822-20.198 155.716-126.762 380.133-126.762 280.521 0 437.31 248.301 860.325 43.183" stroke="#085ED0" stroke-opacity=".1"/><path d="M-288 235.539c30.822-20.198 155.716-126.762 380.133-126.762 280.521 0 437.31 248.301 860.325 43.183" stroke="#085ED0" stroke-opacity=".1"/><path d="M-288 228.352c30.822-20.198 155.716-126.762 380.133-126.762 280.521 0 437.31 248.3 860.325 43.183" stroke="#085ED0" stroke-opacity=".1"/><path d="M-288 221.168C-257.178 200.97-132.284 94.406 92.133 94.406c280.521 0 437.31 248.301 860.325 43.183" stroke="#085ED0" stroke-opacity=".1"/><path d="M-288 213.985c30.822-20.199 155.716-126.762 380.133-126.762 280.521 0 437.31 248.3 860.325 43.182" stroke="#085ED0" stroke-opacity=".1"/><path d="M-288 206.797c30.822-20.198 155.716-126.762 380.133-126.762 280.521 0 437.31 248.301 860.325 43.183" stroke="#085ED0" stroke-opacity=".1"/><path d="M-288 199.614c30.822-20.199 155.716-126.762 380.133-126.762 280.521 0 437.31 248.3 860.325 43.182" stroke="#085ED0" stroke-opacity=".1"/><path d="M-288 192.426c30.822-20.198 155.716-126.762 380.133-126.762 280.521 0 437.31 248.301 860.325 43.183" stroke="#085ED0" stroke-opacity=".1"/><path d="M-288 185.243c30.822-20.199 155.716-126.762 380.133-126.762 280.521 0 437.31 248.3 860.325 43.182" stroke="#085ED0" stroke-opacity=".1"/><path d="M-288 178.059c30.822-20.198 155.716-126.762 380.133-126.762 280.521 0 437.31 248.3 860.325 43.183" stroke="#085ED0" stroke-opacity=".1"/><path d="M-288 170.872c30.822-20.199 155.716-126.763 380.133-126.763 280.521 0 437.31 248.301 860.325 43.183" stroke="#085ED0" stroke-opacity=".1"/><path d="M-288 163.688C-257.178 143.49-132.284 36.926 92.133 36.926c280.521 0 437.31 248.3 860.325 43.183" stroke="#085ED0" stroke-opacity=".1"/><path d="M-288 156.504c30.822-20.198 155.716-126.762 380.133-126.762 280.521 0 437.31 248.301 860.325 43.183" stroke="#085ED0" stroke-opacity=".1"/><path d="M-288 149.317c30.822-20.199 155.716-126.762 380.133-126.762 280.521 0 437.31 248.3 860.325 43.182" stroke="#085ED0" stroke-opacity=".1"/><path d="M-288 142.133c30.822-20.198 155.716-126.762 380.133-126.762 280.521 0 437.31 248.301 860.325 43.183" stroke="#085ED0" stroke-opacity=".1"/><path d="M-288 134.946C-257.178 114.747-132.284 8.184 92.133 8.184c280.521 0 437.31 248.3 860.325 43.182" stroke="#085ED0" stroke-opacity=".1"/><path d="M-288 127.762C-257.178 107.564-132.284 1 92.133 1c280.521 0 437.31 248.301 860.325 43.183" stroke="#085ED0" stroke-opacity=".1"/></svg>