<svg width="1920" height="482" viewBox="0 0 1920 482" fill="none" xmlns="http://www.w3.org/2000/svg"><path d="M-193 481.487c56.25-36.862 284.183-231.341 693.745-231.341 511.955 0 798.095 453.149 1570.095 78.808" stroke="#085ED0" stroke-opacity=".1"/><path d="M-193 468.374c56.25-36.862 284.183-231.342 693.745-231.342 511.955 0 798.095 453.15 1570.095 78.809" stroke="#085ED0" stroke-opacity=".1"/><path d="M-193 455.261c56.25-36.863 284.183-231.342 693.745-231.342 511.955 0 798.095 453.15 1570.095 78.809" stroke="#085ED0" stroke-opacity=".1"/><path d="M-193 442.148c56.25-36.862 284.183-231.341 693.745-231.341 511.955 0 798.095 453.149 1570.095 78.808" stroke="#085ED0" stroke-opacity=".1"/><path d="M-193 429.035c56.25-36.862 284.183-231.342 693.745-231.342 511.955 0 798.095 453.15 1570.095 78.809" stroke="#085ED0" stroke-opacity=".1"/><path d="M-193 415.922C-136.75 379.06 91.183 184.58 500.745 184.58c511.955 0 798.095 453.15 1570.095 78.809" stroke="#085ED0" stroke-opacity=".1"/><path d="M-193 402.809c56.25-36.862 284.183-231.341 693.745-231.341 511.955 0 798.095 453.15 1570.095 78.808" stroke="#085ED0" stroke-opacity=".1"/><path d="M-193 389.696c56.25-36.862 284.183-231.342 693.745-231.342 511.955 0 798.095 453.15 1570.095 78.809" stroke="#085ED0" stroke-opacity=".1"/><path d="M-193 376.584c56.25-36.862 284.183-231.342 693.745-231.342 511.955 0 798.095 453.15 1570.095 78.809" stroke="#085ED0" stroke-opacity=".1"/><path d="M-193 363.47c56.25-36.862 284.183-231.341 693.745-231.341 511.955 0 798.095 453.15 1570.095 78.809" stroke="#085ED0" stroke-opacity=".1"/><path d="M-193 350.357c56.25-36.862 284.183-231.341 693.745-231.341 511.955 0 798.095 453.149 1570.095 78.808" stroke="#085ED0" stroke-opacity=".1"/><path d="M-193 337.245c56.25-36.862 284.183-231.342 693.745-231.342 511.955 0 798.095 453.15 1570.095 78.809" stroke="#085ED0" stroke-opacity=".1"/><path d="M-193 324.132C-136.75 287.269 91.183 92.79 500.745 92.79c511.955 0 798.095 453.15 1570.095 78.809" stroke="#085ED0" stroke-opacity=".1"/><path d="M-193 311.018c56.25-36.862 284.183-231.341 693.745-231.341 511.955 0 798.095 453.15 1570.095 78.808" stroke="#085ED0" stroke-opacity=".1"/><path d="M-193 297.906c56.25-36.862 284.183-231.341 693.745-231.341 511.955 0 798.095 453.149 1570.095 78.808" stroke="#085ED0" stroke-opacity=".1"/><path d="M-193 284.794c56.25-36.862 284.183-231.342 693.745-231.342 511.955 0 798.095 453.15 1570.095 78.809" stroke="#085ED0" stroke-opacity=".1"/><path d="M-193 271.68c56.25-36.862 284.183-231.341 693.745-231.341 511.955 0 798.095 453.15 1570.095 78.809" stroke="#085ED0" stroke-opacity=".1"/><path d="M-193 258.567c56.25-36.862 284.183-231.341 693.745-231.341 511.955 0 798.095 453.149 1570.095 78.808" stroke="#085ED0" stroke-opacity=".1"/><path d="M-193 245.454c56.25-36.862 284.183-231.342 693.745-231.342 511.955 0 798.095 453.15 1570.095 78.809" stroke="#085ED0" stroke-opacity=".1"/><path d="M-193 232.342C-136.75 195.479 91.183 1 500.745 1 1012.7 1 1298.84 454.15 2070.84 79.809" stroke="#085ED0" stroke-opacity=".1"/></svg>