<svg width="1920" height="412" viewBox="0 0 1920 412" fill="none" xmlns="http://www.w3.org/2000/svg"><path d="M-258 429.408c57.672-24.759 291.367-155.382 711.283-155.382 524.894 0 818.267 304.361 1609.787 52.933M-258 156.382C-200.328 131.623 33.367 1 453.283 1 978.177 1 1271.55 305.36 2063.07 53.932" stroke="#fff"/><path d="M-258 420.602c57.672-24.758 291.367-155.381 711.283-155.381 524.894 0 818.267 304.36 1609.787 52.932" stroke="#fff"/><path d="M-258 411.795c57.672-24.759 291.367-155.382 711.283-155.382 524.894 0 818.267 304.36 1609.787 52.932" stroke="#fff"/><path d="M-258 402.986c57.672-24.758 291.367-155.382 711.283-155.382 524.894 0 818.267 304.361 1609.787 52.933" stroke="#fff"/><path d="M-258 394.179c57.672-24.758 291.367-155.381 711.283-155.381 524.894 0 818.267 304.36 1609.787 52.932" stroke="#fff"/><path d="M-258 385.373c57.672-24.759 291.367-155.382 711.283-155.382 524.894 0 818.267 304.36 1609.787 52.932" stroke="#fff"/><path d="M-258 376.566c57.672-24.758 291.367-155.381 711.283-155.381 524.894 0 818.267 304.36 1609.787 52.932" stroke="#fff"/><path d="M-258 367.759C-200.328 343 33.367 212.377 453.283 212.377c524.894 0 818.267 304.36 1609.787 52.932" stroke="#fff"/><path d="M-258 358.952c57.672-24.759 291.367-155.382 711.283-155.382 524.894 0 818.267 304.36 1609.787 52.933" stroke="#fff"/><path d="M-258 350.143c57.672-24.758 291.367-155.381 711.283-155.381 524.894 0 818.267 304.36 1609.787 52.932" stroke="#fff"/><path d="M-258 341.336c57.672-24.759 291.367-155.382 711.283-155.382 524.894 0 818.267 304.36 1609.787 52.932" stroke="#fff"/><path d="M-258 332.529c57.672-24.759 291.367-155.382 711.283-155.382 524.894 0 818.267 304.361 1609.787 52.933" stroke="#fff"/><path d="M-258 323.72c57.672-24.758 291.367-155.381 711.283-155.381 524.894 0 818.267 304.36 1609.787 52.932" stroke="#fff"/><path d="M-258 314.913c57.672-24.759 291.367-155.382 711.283-155.382 524.894 0 818.267 304.36 1609.787 52.932" stroke="#fff"/><path d="M-258 306.104c57.672-24.758 291.367-155.381 711.283-155.381 524.894 0 818.267 304.36 1609.787 52.932" stroke="#fff"/><path d="M-258 297.3c57.672-24.759 291.367-155.382 711.283-155.382 524.894 0 818.267 304.36 1609.787 52.932" stroke="#fff"/><path d="M-258 288.493c57.672-24.759 291.367-155.382 711.283-155.382 524.894 0 818.267 304.36 1609.787 52.933" stroke="#fff"/><path d="M-258 279.684c57.672-24.758 291.367-155.381 711.283-155.381 524.894 0 818.267 304.36 1609.787 52.932" stroke="#fff"/><path d="M-258 270.878c57.672-24.759 291.367-155.382 711.283-155.382 524.894 0 818.267 304.36 1609.787 52.932" stroke="#fff"/><path d="M-258 262.069c57.672-24.758 291.367-155.381 711.283-155.381 524.894 0 818.267 304.36 1609.787 52.932" stroke="#fff"/><path d="M-258 253.262c57.672-24.758 291.367-155.381 711.283-155.381 524.894 0 818.267 304.36 1609.787 52.932" stroke="#fff"/><path d="M-258 244.456c57.672-24.759 291.367-155.382 711.283-155.382 524.894 0 818.267 304.36 1609.787 52.932" stroke="#fff"/><path d="M-258 235.647c57.672-24.758 291.367-155.381 711.283-155.381 524.894 0 818.267 304.36 1609.787 52.932" stroke="#fff"/><path d="M-258 226.84c57.672-24.759 291.367-155.382 711.283-155.382 524.894 0 818.267 304.36 1609.787 52.932" stroke="#fff"/><path d="M-258 218.033c57.672-24.759 291.367-155.382 711.283-155.382 524.894 0 818.267 304.361 1609.787 52.933" stroke="#fff"/><path d="M-258 209.225c57.672-24.758 291.367-155.381 711.283-155.381 524.894 0 818.267 304.36 1609.787 52.932" stroke="#fff"/><path d="M-258 200.419C-200.328 175.66 33.367 45.037 453.283 45.037c524.894 0 818.267 304.36 1609.787 52.932" stroke="#fff"/><path d="M-258 191.613c57.672-24.759 291.367-155.382 711.283-155.382 524.894 0 818.267 304.361 1609.787 52.933" stroke="#fff"/><path d="M-258 182.803c57.672-24.759 291.367-155.382 711.283-155.382 524.894 0 818.267 304.36 1609.787 52.932" stroke="#fff"/><path d="M-258 173.997c57.672-24.759 291.367-155.382 711.283-155.382 524.894 0 818.267 304.36 1609.787 52.932" stroke="#fff"/><path d="M-258 165.188C-200.328 140.43 33.367 9.807 453.283 9.807c524.894 0 818.267 304.36 1609.787 52.932" stroke="#fff"/></svg>