<svg width="768" height="265" viewBox="0 0 768 265" fill="none" xmlns="http://www.w3.org/2000/svg"><path d="M-300 264.28c30.822-20.199 155.716-126.762 380.133-126.762 280.521 0 437.31 248.3 860.325 43.182" stroke="url(#a)" stroke-opacity=".15"/><path d="M-300 257.094c30.822-20.198 155.716-126.762 380.133-126.762 280.521 0 437.31 248.301 860.325 43.183" stroke="url(#b)" stroke-opacity=".15"/><path d="M-300 249.909c30.822-20.199 155.716-126.763 380.133-126.763 280.521 0 437.31 248.301 860.325 43.183" stroke="url(#c)" stroke-opacity=".15"/><path d="M-300 242.725c30.822-20.198 155.716-126.762 380.133-126.762 280.521 0 437.31 248.3 860.325 43.183" stroke="url(#d)" stroke-opacity=".15"/><path d="M-300 235.539c30.822-20.198 155.716-126.762 380.133-126.762 280.521 0 437.31 248.301 860.325 43.183" stroke="url(#e)" stroke-opacity=".15"/><path d="M-300 228.354c30.822-20.198 155.716-126.762 380.133-126.762 280.521 0 437.31 248.3 860.325 43.183" stroke="url(#f)" stroke-opacity=".15"/><path d="M-300 221.168C-269.178 200.97-144.284 94.406 80.133 94.406c280.521 0 437.31 248.301 860.325 43.183" stroke="url(#g)" stroke-opacity=".15"/><path d="M-300 213.983c30.822-20.199 155.716-126.762 380.133-126.762 280.521 0 437.31 248.3 860.325 43.182" stroke="url(#h)" stroke-opacity=".15"/><path d="M-300 206.799c30.822-20.198 155.716-126.762 380.133-126.762 280.521 0 437.31 248.301 860.325 43.183" stroke="url(#i)" stroke-opacity=".15"/><path d="M-300 199.614c30.822-20.199 155.716-126.762 380.133-126.762 280.521 0 437.31 248.3 860.325 43.182" stroke="url(#j)" stroke-opacity=".15"/><path d="M-300 192.428C-269.178 172.23-144.284 65.666 80.133 65.666c280.521 0 437.31 248.301 860.325 43.183" stroke="url(#k)" stroke-opacity=".15"/><path d="M-300 185.243c30.822-20.199 155.716-126.762 380.133-126.762 280.521 0 437.31 248.3 860.325 43.182" stroke="url(#l)" stroke-opacity=".15"/><path d="M-300 178.057c30.822-20.198 155.716-126.762 380.133-126.762 280.521 0 437.31 248.301 860.325 43.183" stroke="url(#m)" stroke-opacity=".15"/><path d="M-300 170.873c30.822-20.198 155.716-126.762 380.133-126.762 280.521 0 437.31 248.301 860.325 43.183" stroke="url(#n)" stroke-opacity=".15"/><path d="M-300 163.688C-269.178 143.49-144.284 36.926 80.133 36.926c280.521 0 437.31 248.3 860.325 43.183" stroke="url(#o)" stroke-opacity=".15"/><path d="M-300 156.502C-269.178 136.304-144.284 29.74 80.133 29.74c280.521 0 437.31 248.301 860.325 43.183" stroke="url(#p)" stroke-opacity=".15"/><path d="M-300 149.317c30.822-20.199 155.716-126.762 380.133-126.762 280.521 0 437.31 248.3 860.325 43.182" stroke="url(#q)" stroke-opacity=".15"/><path d="M-300 142.131c30.822-20.198 155.716-126.762 380.133-126.762 280.521 0 437.31 248.301 860.325 43.183" stroke="url(#r)" stroke-opacity=".15"/><path d="M-300 134.948C-269.178 114.749-144.284 8.186 80.133 8.186c280.521 0 437.31 248.3 860.325 43.182" stroke="url(#s)" stroke-opacity=".15"/><path d="M-300 127.762C-269.178 107.564-144.284 1 80.133 1c280.521 0 437.31 248.301 860.325 43.183" stroke="url(#t)" stroke-opacity=".15"/><defs><linearGradient id="a" x1="320.229" y1="137.518" x2="320.229" y2="264.28" gradientUnits="userSpaceOnUse"><stop stop-color="#FF1212" stop-opacity=".4"/><stop offset="1" stop-color="#FF1212" stop-opacity=".27"/></linearGradient><linearGradient id="b" x1="320.229" y1="130.332" x2="320.229" y2="257.094" gradientUnits="userSpaceOnUse"><stop stop-color="#FF1212" stop-opacity=".4"/><stop offset="1" stop-color="#FF1212" stop-opacity=".27"/></linearGradient><linearGradient id="c" x1="320.229" y1="123.146" x2="320.229" y2="249.909" gradientUnits="userSpaceOnUse"><stop stop-color="#FF1212" stop-opacity=".4"/><stop offset="1" stop-color="#FF1212" stop-opacity=".27"/></linearGradient><linearGradient id="d" x1="320.229" y1="115.963" x2="320.229" y2="242.725" gradientUnits="userSpaceOnUse"><stop stop-color="#FF1212" stop-opacity=".4"/><stop offset="1" stop-color="#FF1212" stop-opacity=".27"/></linearGradient><linearGradient id="e" x1="320.229" y1="108.777" x2="320.229" y2="235.539" gradientUnits="userSpaceOnUse"><stop stop-color="#FF1212" stop-opacity=".4"/><stop offset="1" stop-color="#FF1212" stop-opacity=".27"/></linearGradient><linearGradient id="f" x1="320.229" y1="101.592" x2="320.229" y2="228.354" gradientUnits="userSpaceOnUse"><stop stop-color="#FF1212" stop-opacity=".4"/><stop offset="1" stop-color="#FF1212" stop-opacity=".27"/></linearGradient><linearGradient id="g" x1="320.229" y1="94.406" x2="320.229" y2="221.168" gradientUnits="userSpaceOnUse"><stop stop-color="#FF1212" stop-opacity=".4"/><stop offset="1" stop-color="#FF1212" stop-opacity=".27"/></linearGradient><linearGradient id="h" x1="320.229" y1="87.221" x2="320.229" y2="213.983" gradientUnits="userSpaceOnUse"><stop stop-color="#FF1212" stop-opacity=".4"/><stop offset="1" stop-color="#FF1212" stop-opacity=".27"/></linearGradient><linearGradient id="i" x1="320.229" y1="80.037" x2="320.229" y2="206.799" gradientUnits="userSpaceOnUse"><stop stop-color="#FF1212" stop-opacity=".4"/><stop offset="1" stop-color="#FF1212" stop-opacity=".27"/></linearGradient><linearGradient id="j" x1="320.229" y1="72.852" x2="320.229" y2="199.614" gradientUnits="userSpaceOnUse"><stop stop-color="#FF1212" stop-opacity=".4"/><stop offset="1" stop-color="#FF1212" stop-opacity=".27"/></linearGradient><linearGradient id="k" x1="320.229" y1="65.666" x2="320.229" y2="192.428" gradientUnits="userSpaceOnUse"><stop stop-color="#FF1212" stop-opacity=".4"/><stop offset="1" stop-color="#FF1212" stop-opacity=".27"/></linearGradient><linearGradient id="l" x1="320.229" y1="58.48" x2="320.229" y2="185.243" gradientUnits="userSpaceOnUse"><stop stop-color="#FF1212" stop-opacity=".4"/><stop offset="1" stop-color="#FF1212" stop-opacity=".27"/></linearGradient><linearGradient id="m" x1="320.229" y1="51.295" x2="320.229" y2="178.057" gradientUnits="userSpaceOnUse"><stop stop-color="#FF1212" stop-opacity=".4"/><stop offset="1" stop-color="#FF1212" stop-opacity=".27"/></linearGradient><linearGradient id="n" x1="320.229" y1="44.111" x2="320.229" y2="170.873" gradientUnits="userSpaceOnUse"><stop stop-color="#FF1212" stop-opacity=".4"/><stop offset="1" stop-color="#FF1212" stop-opacity=".27"/></linearGradient><linearGradient id="o" x1="320.229" y1="36.926" x2="320.229" y2="163.688" gradientUnits="userSpaceOnUse"><stop stop-color="#FF1212" stop-opacity=".4"/><stop offset="1" stop-color="#FF1212" stop-opacity=".27"/></linearGradient><linearGradient id="p" x1="320.229" y1="29.74" x2="320.229" y2="156.502" gradientUnits="userSpaceOnUse"><stop stop-color="#FF1212" stop-opacity=".4"/><stop offset="1" stop-color="#FF1212" stop-opacity=".27"/></linearGradient><linearGradient id="q" x1="320.229" y1="22.555" x2="320.229" y2="149.317" gradientUnits="userSpaceOnUse"><stop stop-color="#FF1212" stop-opacity=".4"/><stop offset="1" stop-color="#FF1212" stop-opacity=".27"/></linearGradient><linearGradient id="r" x1="320.229" y1="15.369" x2="320.229" y2="142.131" gradientUnits="userSpaceOnUse"><stop stop-color="#FF1212" stop-opacity=".4"/><stop offset="1" stop-color="#FF1212" stop-opacity=".27"/></linearGradient><linearGradient id="s" x1="320.229" y1="8.186" x2="320.229" y2="134.948" gradientUnits="userSpaceOnUse"><stop stop-color="#FF1212" stop-opacity=".4"/><stop offset="1" stop-color="#FF1212" stop-opacity=".27"/></linearGradient><linearGradient id="t" x1="320.229" y1="1" x2="320.229" y2="127.762" gradientUnits="userSpaceOnUse"><stop stop-color="#FF1212" stop-opacity=".4"/><stop offset="1" stop-color="#FF1212" stop-opacity=".27"/></linearGradient></defs></svg>