<svg width="1920" height="482" viewBox="0 0 1920 482" fill="none" xmlns="http://www.w3.org/2000/svg"><path d="M-295 481.486c56.25-36.862 284.183-231.341 693.745-231.341 511.953 0 798.095 453.149 1570.095 78.808" stroke="url(#a)" stroke-opacity=".15"/><path d="M-295 468.373c56.25-36.862 284.183-231.342 693.745-231.342 511.953 0 798.095 453.15 1570.095 78.809" stroke="url(#b)" stroke-opacity=".15"/><path d="M-295 455.261c56.25-36.862 284.183-231.341 693.745-231.341 511.953 0 798.095 453.15 1570.095 78.809" stroke="url(#c)" stroke-opacity=".15"/><path d="M-295 442.148c56.25-36.862 284.183-231.341 693.745-231.341 511.953 0 798.095 453.149 1570.095 78.808" stroke="url(#d)" stroke-opacity=".15"/><path d="M-295 429.035c56.25-36.862 284.183-231.342 693.745-231.342 511.953 0 798.095 453.15 1570.095 78.809" stroke="url(#e)" stroke-opacity=".15"/><path d="M-295 415.922C-238.75 379.06-10.817 184.58 398.745 184.58c511.953 0 798.095 453.15 1570.095 78.809" stroke="url(#f)" stroke-opacity=".15"/><path d="M-295 402.808c56.25-36.862 284.183-231.341 693.745-231.341 511.953 0 798.095 453.15 1570.095 78.808" stroke="url(#g)" stroke-opacity=".15"/><path d="M-295 389.697c56.25-36.862 284.183-231.342 693.745-231.342 511.953 0 798.095 453.15 1570.095 78.809" stroke="url(#h)" stroke-opacity=".15"/><path d="M-295 376.584c56.25-36.862 284.183-231.342 693.745-231.342 511.953 0 798.095 453.15 1570.095 78.809" stroke="url(#i)" stroke-opacity=".15"/><path d="M-295 363.47c56.25-36.862 284.183-231.341 693.745-231.341 511.953 0 798.095 453.15 1570.095 78.809" stroke="url(#j)" stroke-opacity=".15"/><path d="M-295 350.357c56.25-36.862 284.183-231.341 693.745-231.341 511.953 0 798.095 453.149 1570.095 78.808" stroke="url(#k)" stroke-opacity=".15"/><path d="M-295 337.246c56.25-36.862 284.183-231.342 693.745-231.342 511.953 0 798.095 453.15 1570.095 78.809" stroke="url(#l)" stroke-opacity=".15"/><path d="M-295 324.133C-238.75 287.27-10.817 92.791 398.745 92.791c511.953 0 798.095 453.15 1570.095 78.809" stroke="url(#m)" stroke-opacity=".15"/><path d="M-295 311.019c56.25-36.862 284.183-231.341 693.745-231.341 511.953 0 798.095 453.15 1570.095 78.808" stroke="url(#n)" stroke-opacity=".15"/><path d="M-295 297.906c56.25-36.862 284.183-231.341 693.745-231.341 511.953 0 798.095 453.149 1570.095 78.808" stroke="url(#o)" stroke-opacity=".15"/><path d="M-295 284.793c56.25-36.862 284.183-231.342 693.745-231.342 511.953 0 798.095 453.15 1570.095 78.809" stroke="url(#p)" stroke-opacity=".15"/><path d="M-295 271.679c56.25-36.862 284.183-231.341 693.745-231.341 511.953 0 798.095 453.15 1570.095 78.809" stroke="url(#q)" stroke-opacity=".15"/><path d="M-295 258.566c56.25-36.862 284.183-231.341 693.745-231.341 511.953 0 798.095 453.149 1570.095 78.808" stroke="url(#r)" stroke-opacity=".15"/><path d="M-295 245.455c56.25-36.862 284.183-231.342 693.745-231.342 511.953 0 798.095 453.15 1570.095 78.809" stroke="url(#s)" stroke-opacity=".15"/><path d="M-295 232.342C-238.75 195.479-10.817 1 398.745 1 910.698 1 1196.84 454.15 1968.84 79.809" stroke="url(#t)" stroke-opacity=".15"/><defs><linearGradient id="a" x1="836.921" y1="250.145" x2="836.921" y2="481.486" gradientUnits="userSpaceOnUse"><stop stop-color="#FF1212" stop-opacity=".4"/><stop offset="1" stop-color="#FF1212" stop-opacity=".27"/></linearGradient><linearGradient id="b" x1="836.921" y1="237.031" x2="836.921" y2="468.373" gradientUnits="userSpaceOnUse"><stop stop-color="#FF1212" stop-opacity=".4"/><stop offset="1" stop-color="#FF1212" stop-opacity=".27"/></linearGradient><linearGradient id="c" x1="836.921" y1="223.92" x2="836.921" y2="455.261" gradientUnits="userSpaceOnUse"><stop stop-color="#FF1212" stop-opacity=".4"/><stop offset="1" stop-color="#FF1212" stop-opacity=".27"/></linearGradient><linearGradient id="d" x1="836.921" y1="210.807" x2="836.921" y2="442.148" gradientUnits="userSpaceOnUse"><stop stop-color="#FF1212" stop-opacity=".4"/><stop offset="1" stop-color="#FF1212" stop-opacity=".27"/></linearGradient><linearGradient id="e" x1="836.921" y1="197.693" x2="836.921" y2="429.035" gradientUnits="userSpaceOnUse"><stop stop-color="#FF1212" stop-opacity=".4"/><stop offset="1" stop-color="#FF1212" stop-opacity=".27"/></linearGradient><linearGradient id="f" x1="836.921" y1="184.58" x2="836.921" y2="415.922" gradientUnits="userSpaceOnUse"><stop stop-color="#FF1212" stop-opacity=".4"/><stop offset="1" stop-color="#FF1212" stop-opacity=".27"/></linearGradient><linearGradient id="g" x1="836.921" y1="171.467" x2="836.921" y2="402.808" gradientUnits="userSpaceOnUse"><stop stop-color="#FF1212" stop-opacity=".4"/><stop offset="1" stop-color="#FF1212" stop-opacity=".27"/></linearGradient><linearGradient id="h" x1="836.921" y1="158.355" x2="836.921" y2="389.697" gradientUnits="userSpaceOnUse"><stop stop-color="#FF1212" stop-opacity=".4"/><stop offset="1" stop-color="#FF1212" stop-opacity=".27"/></linearGradient><linearGradient id="i" x1="836.921" y1="145.242" x2="836.921" y2="376.584" gradientUnits="userSpaceOnUse"><stop stop-color="#FF1212" stop-opacity=".4"/><stop offset="1" stop-color="#FF1212" stop-opacity=".27"/></linearGradient><linearGradient id="j" x1="836.921" y1="132.129" x2="836.921" y2="363.47" gradientUnits="userSpaceOnUse"><stop stop-color="#FF1212" stop-opacity=".4"/><stop offset="1" stop-color="#FF1212" stop-opacity=".27"/></linearGradient><linearGradient id="k" x1="836.921" y1="119.016" x2="836.921" y2="350.357" gradientUnits="userSpaceOnUse"><stop stop-color="#FF1212" stop-opacity=".4"/><stop offset="1" stop-color="#FF1212" stop-opacity=".27"/></linearGradient><linearGradient id="l" x1="836.921" y1="105.904" x2="836.921" y2="337.246" gradientUnits="userSpaceOnUse"><stop stop-color="#FF1212" stop-opacity=".4"/><stop offset="1" stop-color="#FF1212" stop-opacity=".27"/></linearGradient><linearGradient id="m" x1="836.921" y1="92.791" x2="836.921" y2="324.133" gradientUnits="userSpaceOnUse"><stop stop-color="#FF1212" stop-opacity=".4"/><stop offset="1" stop-color="#FF1212" stop-opacity=".27"/></linearGradient><linearGradient id="n" x1="836.921" y1="79.678" x2="836.921" y2="311.019" gradientUnits="userSpaceOnUse"><stop stop-color="#FF1212" stop-opacity=".4"/><stop offset="1" stop-color="#FF1212" stop-opacity=".27"/></linearGradient><linearGradient id="o" x1="836.921" y1="66.564" x2="836.921" y2="297.906" gradientUnits="userSpaceOnUse"><stop stop-color="#FF1212" stop-opacity=".4"/><stop offset="1" stop-color="#FF1212" stop-opacity=".27"/></linearGradient><linearGradient id="p" x1="836.921" y1="53.451" x2="836.921" y2="284.793" gradientUnits="userSpaceOnUse"><stop stop-color="#FF1212" stop-opacity=".4"/><stop offset="1" stop-color="#FF1212" stop-opacity=".27"/></linearGradient><linearGradient id="q" x1="836.921" y1="40.338" x2="836.921" y2="271.679" gradientUnits="userSpaceOnUse"><stop stop-color="#FF1212" stop-opacity=".4"/><stop offset="1" stop-color="#FF1212" stop-opacity=".27"/></linearGradient><linearGradient id="r" x1="836.921" y1="27.225" x2="836.921" y2="258.566" gradientUnits="userSpaceOnUse"><stop stop-color="#FF1212" stop-opacity=".4"/><stop offset="1" stop-color="#FF1212" stop-opacity=".27"/></linearGradient><linearGradient id="s" x1="836.921" y1="14.113" x2="836.921" y2="245.455" gradientUnits="userSpaceOnUse"><stop stop-color="#FF1212" stop-opacity=".4"/><stop offset="1" stop-color="#FF1212" stop-opacity=".27"/></linearGradient><linearGradient id="t" x1="836.921" y1="1" x2="836.921" y2="232.342" gradientUnits="userSpaceOnUse"><stop stop-color="#FF1212" stop-opacity=".4"/><stop offset="1" stop-color="#FF1212" stop-opacity=".27"/></linearGradient></defs></svg>