<svg width="1920" height="477" viewBox="0 0 1920 477" fill="none" xmlns="http://www.w3.org/2000/svg"><path d="M2368.22 477c-58.84-27.509-297.29-172.643-725.73-172.643-535.56 0-834.89 338.172-1642.489 58.813M2368.22 173.643C2309.38 146.134 2070.93 1 1642.49 1 1106.93 1 807.6 339.171.001 59.812" stroke="#085ED0" stroke-opacity=".1"/><path d="M2368.22 467.215c-58.84-27.509-297.29-172.643-725.73-172.643-535.56 0-834.89 338.172-1642.489 58.813" stroke="#085ED0" stroke-opacity=".1"/><path d="M2368.22 457.43c-58.84-27.509-297.29-172.643-725.73-172.643-535.56 0-834.89 338.171-1642.489 58.813" stroke="#085ED0" stroke-opacity=".1"/><path d="M2368.22 447.643C2309.38 420.134 2070.93 275 1642.49 275 1106.93 275 807.6 613.171.001 333.812" stroke="#085ED0" stroke-opacity=".1"/><path d="M2368.22 437.858c-58.84-27.509-297.29-172.643-725.73-172.643-535.56 0-834.89 338.171-1642.489 58.812" stroke="#085ED0" stroke-opacity=".1"/><path d="M2368.22 428.073c-58.84-27.51-297.29-172.643-725.73-172.643-535.56 0-834.89 338.171-1642.489 58.812" stroke="#085ED0" stroke-opacity=".1"/><path d="M2368.22 418.287c-58.84-27.509-297.29-172.642-725.73-172.642-535.56 0-834.89 338.171-1642.489 58.812" stroke="#085ED0" stroke-opacity=".1"/><path d="M2368.22 408.502c-58.84-27.509-297.29-172.643-725.73-172.643-535.56 0-834.89 338.172-1642.489 58.813" stroke="#085ED0" stroke-opacity=".1"/><path d="M2368.22 398.717c-58.84-27.509-297.29-172.643-725.73-172.643-535.56 0-834.89 338.171-1642.489 58.813" stroke="#085ED0" stroke-opacity=".1"/><path d="M2368.22 388.93c-58.84-27.509-297.29-172.643-725.73-172.643-535.56 0-834.89 338.171-1642.489 58.813" stroke="#085ED0" stroke-opacity=".1"/><path d="M2368.22 379.143c-58.84-27.509-297.29-172.643-725.73-172.643-535.56 0-834.89 338.171-1642.489 58.812" stroke="#085ED0" stroke-opacity=".1"/><path d="M2368.22 369.358c-58.84-27.509-297.29-172.643-725.73-172.643-535.56 0-834.89 338.171-1642.489 58.812" stroke="#085ED0" stroke-opacity=".1"/><path d="M2368.22 359.573c-58.84-27.51-297.29-172.643-725.73-172.643-535.56 0-834.89 338.171-1642.489 58.812" stroke="#085ED0" stroke-opacity=".1"/><path d="M2368.22 349.785c-58.84-27.509-297.29-172.642-725.73-172.642-535.56 0-834.89 338.171-1642.489 58.812" stroke="#085ED0" stroke-opacity=".1"/><path d="M2368.22 339.998c-58.84-27.509-297.29-172.643-725.73-172.643-535.56 0-834.89 338.172-1642.489 58.813" stroke="#085ED0" stroke-opacity=".1"/><path d="M2368.22 330.215c-58.84-27.509-297.29-172.643-725.73-172.643-535.56 0-834.89 338.172-1642.489 58.813" stroke="#085ED0" stroke-opacity=".1"/><path d="M2368.22 320.43c-58.84-27.509-297.29-172.643-725.73-172.643-535.56 0-834.89 338.171-1642.489 58.813" stroke="#085ED0" stroke-opacity=".1"/><path d="M2368.22 310.643C2309.38 283.134 2070.93 138 1642.49 138 1106.93 138 807.6 476.171.001 196.812" stroke="#085ED0" stroke-opacity=".1"/><path d="M2368.22 300.858c-58.84-27.509-297.29-172.643-725.73-172.643-535.56 0-834.89 338.171-1642.489 58.812" stroke="#085ED0" stroke-opacity=".1"/><path d="M2368.22 291.071c-58.84-27.509-297.29-172.643-725.73-172.643-535.56 0-834.89 338.171-1642.489 58.812" stroke="#085ED0" stroke-opacity=".1"/><path d="M2368.22 281.287c-58.84-27.509-297.29-172.642-725.73-172.642-535.56 0-834.89 338.171-1642.489 58.812" stroke="#085ED0" stroke-opacity=".1"/><path d="M2368.22 271.502c-58.84-27.509-297.29-172.643-725.73-172.643-535.56 0-834.89 338.172-1642.489 58.813" stroke="#085ED0" stroke-opacity=".1"/><path d="M2368.22 261.713c-58.84-27.509-297.29-172.643-725.73-172.643-535.56 0-834.89 338.172-1642.489 58.813" stroke="#085ED0" stroke-opacity=".1"/><path d="M2368.22 251.928c-58.84-27.509-297.29-172.643-725.73-172.643-535.56 0-834.89 338.171-1642.489 58.813" stroke="#085ED0" stroke-opacity=".1"/><path d="M2368.22 242.145c-58.84-27.509-297.29-172.643-725.73-172.643-535.56 0-834.89 338.171-1642.489 58.812" stroke="#085ED0" stroke-opacity=".1"/><path d="M2368.22 232.356c-58.84-27.509-297.29-172.643-725.73-172.643-535.56 0-834.89 338.171-1642.489 58.812" stroke="#085ED0" stroke-opacity=".1"/><path d="M2368.22 222.573c-58.84-27.51-297.29-172.643-725.73-172.643C1106.93 49.93 807.6 388.1.001 108.742" stroke="#085ED0" stroke-opacity=".1"/><path d="M2368.22 212.787c-58.84-27.509-297.29-172.643-725.73-172.643-535.56 0-834.89 338.172-1642.489 58.813" stroke="#085ED0" stroke-opacity=".1"/><path d="M2368.22 202.998c-58.84-27.509-297.29-172.642-725.73-172.642-535.56 0-834.89 338.171-1642.489 58.812" stroke="#085ED0" stroke-opacity=".1"/><path d="M2368.22 193.215c-58.84-27.509-297.29-172.643-725.73-172.643-535.56 0-834.89 338.172-1642.489 58.813" stroke="#085ED0" stroke-opacity=".1"/><path d="M2368.22 183.428c-58.84-27.509-297.29-172.643-725.73-172.643-535.56 0-834.89 338.171-1642.489 58.813" stroke="#085ED0" stroke-opacity=".1"/></svg>