<svg width="768" height="264" viewBox="0 0 768 264" fill="none" xmlns="http://www.w3.org/2000/svg"><mask id="a" style="mask-type:alpha" maskUnits="userSpaceOnUse" x="0" y="0" width="768" height="264"><path fill="#D9D9D9" d="M0 0h768v264H0z"/></mask><g mask="url(#a)" stroke="#085ED0" stroke-opacity=".1"><path d="M956 263.998c-30.81-15.199-155.659-95.389-379.993-95.389-280.418 0-437.148 186.847-860.007 32.495M956 96.389C925.19 81.189 800.341 1 576.007 1 295.589 1 138.859 187.847-284 33.495"/><path d="M956 258.596c-30.81-15.199-155.659-95.389-379.993-95.389-280.418 0-437.148 186.847-860.007 32.495"/><path d="M956 253.186c-30.81-15.2-155.659-95.389-379.993-95.389-280.418 0-437.148 186.847-860.007 32.495"/><path d="M956 247.779c-30.81-15.199-155.659-95.388-379.993-95.388-280.418 0-437.148 186.846-860.007 32.495"/><path d="M956 242.373c-30.81-15.199-155.659-95.389-379.993-95.389-280.418 0-437.148 186.847-860.007 32.495"/><path d="M956 236.967c-30.81-15.199-155.659-95.389-379.993-95.389-280.418 0-437.148 186.847-860.007 32.495"/><path d="M956 231.561c-30.81-15.2-155.659-95.389-379.993-95.389-280.418 0-437.148 186.847-860.007 32.495"/><path d="M956 226.154c-30.81-15.199-155.659-95.388-379.993-95.388-280.418 0-437.148 186.846-860.007 32.495"/><path d="M956 220.748c-30.81-15.199-155.659-95.389-379.993-95.389-280.418 0-437.148 186.847-860.007 32.495"/><path d="M956 215.338c-30.81-15.199-155.659-95.389-379.993-95.389-280.418 0-437.148 186.847-860.007 32.495"/><path d="M956 209.932c-30.81-15.2-155.659-95.389-379.993-95.389-280.418 0-437.148 186.847-860.007 32.495"/><path d="M956 204.526c-30.81-15.2-155.659-95.389-379.993-95.389-280.418 0-437.148 186.847-860.007 32.495"/><path d="M956 199.119c-30.81-15.199-155.659-95.389-379.993-95.389-280.418 0-437.148 186.847-860.007 32.496"/><path d="M956 193.713c-30.81-15.199-155.659-95.389-379.993-95.389-280.418 0-437.148 186.847-860.007 32.495"/><path d="M956 188.303c-30.81-15.199-155.659-95.389-379.993-95.389-280.418 0-437.148 186.847-860.007 32.495"/><path d="M956 182.897c-30.81-15.2-155.659-95.39-379.993-95.39-280.418 0-437.148 186.848-860.007 32.496"/><path d="M956 177.49c-30.81-15.199-155.659-95.388-379.993-95.388-280.418 0-437.148 186.846-860.007 32.495"/><path d="M956 172.084c-30.81-15.199-155.659-95.389-379.993-95.389-280.418 0-437.148 186.847-860.007 32.495"/><path d="M956 166.678c-30.81-15.199-155.659-95.389-379.993-95.389-280.418 0-437.148 186.847-860.007 32.495"/><path d="M956 161.272c-30.81-15.2-155.659-95.39-379.993-95.39-280.418 0-437.148 186.848-860.007 32.496"/><path d="M956 155.865c-30.81-15.199-155.659-95.388-379.993-95.388-280.418 0-437.148 186.846-860.007 32.495"/><path d="M956 150.459C925.19 135.26 800.341 55.07 576.007 55.07 295.589 55.07 138.859 241.917-284 87.565"/><path d="M956 145.049C925.19 129.85 800.341 49.66 576.007 49.66 295.589 49.66 138.859 236.507-284 82.155"/><path d="M956 139.643c-30.81-15.2-155.659-95.39-379.993-95.39-280.418 0-437.148 186.848-860.007 32.496"/><path d="M956 134.236c-30.81-15.199-155.659-95.388-379.993-95.388-280.418 0-437.148 186.846-860.007 32.495"/><path d="M956 128.83c-30.81-15.199-155.659-95.389-379.993-95.389-280.418 0-437.148 186.847-860.007 32.495"/><path d="M956 123.424c-30.81-15.199-155.659-95.389-379.993-95.389-280.418 0-437.148 186.847-860.007 32.495"/><path d="M956 118.018c-30.81-15.2-155.659-95.39-379.993-95.39-280.418 0-437.148 186.848-860.007 32.496"/><path d="M956 112.608c-30.81-15.2-155.659-95.39-379.993-95.39-280.418 0-437.148 186.848-860.007 32.496"/><path d="M956 107.201c-30.81-15.199-155.659-95.388-379.993-95.388-280.418 0-437.148 186.846-860.007 32.495"/><path d="M956 101.795c-30.81-15.2-155.659-95.389-379.993-95.389-280.418 0-437.148 186.847-860.007 32.495"/></g></svg>