<svg width="1110" height="197" viewBox="0 0 1110 197" fill="none" xmlns="http://www.w3.org/2000/svg"><path d="M1440 154.461C1404 130.009 1258.11 1 995.96 1 668.278 1 485.131 301.599-9 53.278m1449 292.551c-36-24.453-181.89-153.462-444.04-153.462-327.682 0-510.829 300.599-1004.96 52.278" stroke="#FF1212" stroke-opacity=".12"/><path d="M1440 337.133c-36-24.452-181.89-153.461-444.04-153.461-327.682 0-510.829 300.599-1004.96 52.278" stroke="#FF1212" stroke-opacity=".12"/><path d="M1440 328.43c-36-24.453-181.89-153.461-444.04-153.461-327.682 0-510.829 300.599-1004.96 52.278" stroke="#FF1212" stroke-opacity=".12"/><path d="M1440 319.735c-36-24.453-181.89-153.462-444.04-153.462-327.682 0-510.829 300.599-1004.96 52.278" stroke="#FF1212" stroke-opacity=".12"/><path d="M1440 311.032c-36-24.453-181.89-153.462-444.04-153.462-327.682 0-510.829 300.599-1004.96 52.278" stroke="#FF1212" stroke-opacity=".12"/><path d="M1440 302.336c-36-24.452-181.89-153.461-444.04-153.461-327.682 0-510.829 300.599-1004.96 52.278" stroke="#FF1212" stroke-opacity=".12"/><path d="M1440 293.641c-36-24.453-181.89-153.461-444.04-153.461-327.682 0-510.829 300.598-1004.96 52.278" stroke="#FF1212" stroke-opacity=".12"/><path d="M1440 284.938c-36-24.453-181.89-153.461-444.04-153.461-327.682 0-510.829 300.598-1004.96 52.278" stroke="#FF1212" stroke-opacity=".12"/><path d="M1440 276.243c-36-24.453-181.89-153.462-444.04-153.462-327.682 0-510.829 300.599-1004.96 52.278" stroke="#FF1212" stroke-opacity=".12"/><path d="M1440 267.539c-36-24.452-181.89-153.461-444.04-153.461-327.682 0-510.829 300.599-1004.96 52.278" stroke="#FF1212" stroke-opacity=".12"/><path d="M1440 258.844c-36-24.452-181.89-153.461-444.04-153.461-327.682 0-510.829 300.599-1004.96 52.278" stroke="#FF1212" stroke-opacity=".12"/><path d="M1440 250.149c-36-24.453-181.89-153.462-444.04-153.462-327.682 0-510.829 300.599-1004.96 52.279" stroke="#FF1212" stroke-opacity=".12"/><path d="M1440 241.446c-36-24.453-181.89-153.462-444.04-153.462-327.682 0-510.829 300.599-1004.96 52.278" stroke="#FF1212" stroke-opacity=".12"/><path d="M1440 232.75c-36-24.452-181.89-153.46-444.04-153.46C668.278 79.29 485.131 379.887-9 131.566" stroke="#FF1212" stroke-opacity=".12"/><path d="M1440 224.047c-36-24.452-181.89-153.461-444.04-153.461-327.682 0-510.829 300.599-1004.96 52.278" stroke="#FF1212" stroke-opacity=".12"/><path d="M1440 215.352c-36-24.453-181.89-153.461-444.04-153.461C668.278 61.89 485.131 362.489-9 114.169" stroke="#FF1212" stroke-opacity=".12"/><path d="M1440 206.649c-36-24.453-181.89-153.462-444.04-153.462-327.682 0-510.829 300.599-1004.96 52.279" stroke="#FF1212" stroke-opacity=".12"/><path d="M1440 197.954c-36-24.453-181.89-153.462-444.04-153.462C668.278 44.492 485.131 345.091-9 96.77" stroke="#FF1212" stroke-opacity=".12"/><path d="M1440 189.258c-36-24.452-181.89-153.461-444.04-153.461C668.278 35.797 485.131 336.396-9 88.075" stroke="#FF1212" stroke-opacity=".12"/><path d="M1440 180.555c-36-24.453-181.89-153.461-444.04-153.461C668.278 27.094 485.131 327.693-9 79.372" stroke="#FF1212" stroke-opacity=".12"/><path d="M1440 171.86c-36-24.453-181.89-153.462-444.04-153.462C668.278 18.398 485.131 318.997-9 70.677" stroke="#FF1212" stroke-opacity=".12"/><path d="M1440 163.157C1404 138.704 1258.11 9.695 995.96 9.695 668.278 9.695 485.131 310.294-9 61.973" stroke="#FF1212" stroke-opacity=".12"/></svg>