<svg width="1920" height="440" viewBox="0 0 1920 440" fill="none" xmlns="http://www.w3.org/2000/svg"><path d="M-72 439c50.529-25.313 255.279-158.86 623.185-158.86 459.885 0 716.915 311.174 1410.405 54.117M-72 159.86C-21.471 134.547 183.279 1 551.185 1 1011.07 1 1268.1 312.174 1961.59 55.117" stroke="#085ED0" stroke-opacity=".1"/><path d="M-72 429.996c50.529-25.313 255.279-158.86 623.185-158.86 459.885 0 716.915 311.174 1410.405 54.117" stroke="#085ED0" stroke-opacity=".1"/><path d="M-72 420.991c50.529-25.313 255.279-158.86 623.185-158.86 459.885 0 716.915 311.174 1410.405 54.117" stroke="#085ED0" stroke-opacity=".1"/><path d="M-72 411.986c50.529-25.313 255.279-158.86 623.185-158.86 459.885 0 716.915 311.174 1410.405 54.117" stroke="#085ED0" stroke-opacity=".1"/><path d="M-72 402.982c50.529-25.313 255.279-158.86 623.185-158.86 459.885 0 716.915 311.174 1410.405 54.117" stroke="#085ED0" stroke-opacity=".1"/><path d="M-72 393.977c50.529-25.313 255.279-158.86 623.185-158.86 459.885 0 716.915 311.174 1410.405 54.117" stroke="#085ED0" stroke-opacity=".1"/><path d="M-72 384.972c50.529-25.312 255.279-158.86 623.185-158.86 459.885 0 716.915 311.174 1410.405 54.118" stroke="#085ED0" stroke-opacity=".1"/><path d="M-72 375.969c50.529-25.313 255.279-158.861 623.185-158.861 459.885 0 716.915 311.174 1410.405 54.118" stroke="#085ED0" stroke-opacity=".1"/><path d="M-72 366.965c50.529-25.313 255.279-158.861 623.185-158.861 459.885 0 716.915 311.174 1410.405 54.118" stroke="#085ED0" stroke-opacity=".1"/><path d="M-72 357.959c50.529-25.313 255.279-158.86 623.185-158.86 459.885 0 716.915 311.174 1410.405 54.117" stroke="#085ED0" stroke-opacity=".1"/><path d="M-72 348.955c50.529-25.313 255.279-158.86 623.185-158.86 459.885 0 716.915 311.174 1410.405 54.117" stroke="#085ED0" stroke-opacity=".1"/><path d="M-72 339.951c50.529-25.313 255.279-158.86 623.185-158.86 459.885 0 716.915 311.174 1410.405 54.117" stroke="#085ED0" stroke-opacity=".1"/><path d="M-72 330.946c50.529-25.313 255.279-158.86 623.185-158.86 459.885 0 716.915 311.174 1410.405 54.117" stroke="#085ED0" stroke-opacity=".1"/><path d="M-72 321.941c50.529-25.313 255.279-158.86 623.185-158.86 459.885 0 716.915 311.174 1410.405 54.117" stroke="#085ED0" stroke-opacity=".1"/><path d="M-72 312.937c50.529-25.313 255.279-158.86 623.185-158.86 459.885 0 716.915 311.174 1410.405 54.117" stroke="#085ED0" stroke-opacity=".1"/><path d="M-72 303.932c50.529-25.312 255.279-158.86 623.185-158.86 459.885 0 716.915 311.174 1410.405 54.117" stroke="#085ED0" stroke-opacity=".1"/><path d="M-72 294.928c50.529-25.313 255.279-158.861 623.185-158.861 459.885 0 716.915 311.174 1410.405 54.118" stroke="#085ED0" stroke-opacity=".1"/><path d="M-72 285.924c50.529-25.313 255.279-158.861 623.185-158.861 459.885 0 716.915 311.174 1410.405 54.118" stroke="#085ED0" stroke-opacity=".1"/><path d="M-72 276.919c50.529-25.313 255.279-158.86 623.185-158.86 459.885 0 716.915 311.173 1410.405 54.117" stroke="#085ED0" stroke-opacity=".1"/><path d="M-72 267.914c50.529-25.313 255.279-158.86 623.185-158.86 459.885 0 716.915 311.174 1410.405 54.117" stroke="#085ED0" stroke-opacity=".1"/><path d="M-72 258.91c50.529-25.313 255.279-158.86 623.185-158.86 459.885 0 716.915 311.174 1410.405 54.117" stroke="#085ED0" stroke-opacity=".1"/><path d="M-72 249.905c50.529-25.313 255.279-158.86 623.185-158.86 459.885 0 716.915 311.174 1410.405 54.117" stroke="#085ED0" stroke-opacity=".1"/><path d="M-72 240.901c50.529-25.313 255.279-158.86 623.185-158.86 459.885 0 716.915 311.174 1410.405 54.117" stroke="#085ED0" stroke-opacity=".1"/><path d="M-72 231.896c50.529-25.313 255.279-158.86 623.185-158.86 459.885 0 716.915 311.174 1410.405 54.117" stroke="#085ED0" stroke-opacity=".1"/><path d="M-72 222.891c50.529-25.312 255.279-158.86 623.185-158.86 459.885 0 716.915 311.174 1410.405 54.117" stroke="#085ED0" stroke-opacity=".1"/><path d="M-72 213.888c50.529-25.313 255.279-158.86 623.185-158.86 459.885 0 716.915 311.173 1410.405 54.117" stroke="#085ED0" stroke-opacity=".1"/><path d="M-72 204.883c50.529-25.313 255.279-158.86 623.185-158.86 459.885 0 716.915 311.173 1410.405 54.117" stroke="#085ED0" stroke-opacity=".1"/><path d="M-72 195.878c50.529-25.313 255.279-158.86 623.185-158.86 459.885 0 716.915 311.173 1410.405 54.117" stroke="#085ED0" stroke-opacity=".1"/><path d="M-72 186.874c50.529-25.313 255.279-158.86 623.185-158.86 459.885 0 716.915 311.174 1410.405 54.117" stroke="#085ED0" stroke-opacity=".1"/><path d="M-72 177.869c50.529-25.313 255.279-158.86 623.185-158.86 459.885 0 716.915 311.174 1410.405 54.117" stroke="#085ED0" stroke-opacity=".1"/><path d="M-72 168.864c50.529-25.313 255.279-158.86 623.185-158.86 459.885 0 716.915 311.174 1410.405 54.117" stroke="#085ED0" stroke-opacity=".1"/></svg>