<svg width="768" height="265" viewBox="0 0 768 265" fill="none" xmlns="http://www.w3.org/2000/svg"><path d="M-152 264.28c30.822-20.199 155.716-126.762 380.133-126.762 280.521 0 437.31 248.3 860.327 43.182" stroke="url(#a)" stroke-opacity=".15"/><path d="M-152 257.094c30.822-20.198 155.716-126.762 380.133-126.762 280.521 0 437.31 248.301 860.327 43.183" stroke="url(#b)" stroke-opacity=".15"/><path d="M-152 249.909c30.822-20.199 155.716-126.763 380.133-126.763 280.521 0 437.31 248.301 860.327 43.183" stroke="url(#c)" stroke-opacity=".15"/><path d="M-152 242.725c30.822-20.198 155.716-126.762 380.133-126.762 280.521 0 437.31 248.3 860.327 43.183" stroke="url(#d)" stroke-opacity=".15"/><path d="M-152 235.539c30.822-20.198 155.716-126.762 380.133-126.762 280.521 0 437.31 248.301 860.327 43.183" stroke="url(#e)" stroke-opacity=".15"/><path d="M-152 228.354c30.822-20.198 155.716-126.762 380.133-126.762 280.521 0 437.31 248.3 860.327 43.183" stroke="url(#f)" stroke-opacity=".15"/><path d="M-152 221.168C-121.178 200.97 3.716 94.406 228.133 94.406c280.521 0 437.31 248.301 860.327 43.183" stroke="url(#g)" stroke-opacity=".15"/><path d="M-152 213.983C-121.178 193.784 3.716 87.221 228.133 87.221c280.521 0 437.31 248.3 860.327 43.182" stroke="url(#h)" stroke-opacity=".15"/><path d="M-152 206.799C-121.178 186.601 3.716 80.037 228.133 80.037c280.521 0 437.31 248.301 860.327 43.183" stroke="url(#i)" stroke-opacity=".15"/><path d="M-152 199.614C-121.178 179.415 3.716 72.852 228.133 72.852c280.521 0 437.31 248.3 860.327 43.182" stroke="url(#j)" stroke-opacity=".15"/><path d="M-152 192.428C-121.178 172.23 3.716 65.666 228.133 65.666c280.521 0 437.31 248.301 860.327 43.183" stroke="url(#k)" stroke-opacity=".15"/><path d="M-152 185.243C-121.178 165.044 3.716 58.481 228.133 58.481c280.521 0 437.31 248.3 860.327 43.182" stroke="url(#l)" stroke-opacity=".15"/><path d="M-152 178.057C-121.178 157.859 3.716 51.295 228.133 51.295c280.521 0 437.31 248.301 860.327 43.183" stroke="url(#m)" stroke-opacity=".15"/><path d="M-152 170.873C-121.178 150.675 3.716 44.111 228.133 44.111c280.521 0 437.31 248.301 860.327 43.183" stroke="url(#n)" stroke-opacity=".15"/><path d="M-152 163.688C-121.178 143.49 3.716 36.926 228.133 36.926c280.521 0 437.31 248.3 860.327 43.183" stroke="url(#o)" stroke-opacity=".15"/><path d="M-152 156.502C-121.178 136.304 3.716 29.74 228.133 29.74c280.521 0 437.31 248.301 860.327 43.183" stroke="url(#p)" stroke-opacity=".15"/><path d="M-152 149.317C-121.178 129.118 3.716 22.555 228.133 22.555c280.521 0 437.31 248.3 860.327 43.182" stroke="url(#q)" stroke-opacity=".15"/><path d="M-152 142.131C-121.178 121.933 3.716 15.369 228.133 15.369c280.521 0 437.31 248.301 860.327 43.183" stroke="url(#r)" stroke-opacity=".15"/><path d="M-152 134.948C-121.178 114.749 3.716 8.186 228.133 8.186c280.521 0 437.31 248.3 860.327 43.182" stroke="url(#s)" stroke-opacity=".15"/><path d="M-152 127.762C-121.178 107.564 3.716 1 228.133 1c280.521 0 437.31 248.301 860.327 43.183" stroke="url(#t)" stroke-opacity=".15"/><defs><linearGradient id="a" x1="468.229" y1="137.518" x2="468.229" y2="264.28" gradientUnits="userSpaceOnUse"><stop stop-color="#FF1212" stop-opacity=".4"/><stop offset="1" stop-color="#FF1212" stop-opacity=".27"/></linearGradient><linearGradient id="b" x1="468.229" y1="130.332" x2="468.229" y2="257.094" gradientUnits="userSpaceOnUse"><stop stop-color="#FF1212" stop-opacity=".4"/><stop offset="1" stop-color="#FF1212" stop-opacity=".27"/></linearGradient><linearGradient id="c" x1="468.229" y1="123.146" x2="468.229" y2="249.909" gradientUnits="userSpaceOnUse"><stop stop-color="#FF1212" stop-opacity=".4"/><stop offset="1" stop-color="#FF1212" stop-opacity=".27"/></linearGradient><linearGradient id="d" x1="468.229" y1="115.963" x2="468.229" y2="242.725" gradientUnits="userSpaceOnUse"><stop stop-color="#FF1212" stop-opacity=".4"/><stop offset="1" stop-color="#FF1212" stop-opacity=".27"/></linearGradient><linearGradient id="e" x1="468.229" y1="108.777" x2="468.229" y2="235.539" gradientUnits="userSpaceOnUse"><stop stop-color="#FF1212" stop-opacity=".4"/><stop offset="1" stop-color="#FF1212" stop-opacity=".27"/></linearGradient><linearGradient id="f" x1="468.229" y1="101.592" x2="468.229" y2="228.354" gradientUnits="userSpaceOnUse"><stop stop-color="#FF1212" stop-opacity=".4"/><stop offset="1" stop-color="#FF1212" stop-opacity=".27"/></linearGradient><linearGradient id="g" x1="468.229" y1="94.406" x2="468.229" y2="221.168" gradientUnits="userSpaceOnUse"><stop stop-color="#FF1212" stop-opacity=".4"/><stop offset="1" stop-color="#FF1212" stop-opacity=".27"/></linearGradient><linearGradient id="h" x1="468.229" y1="87.221" x2="468.229" y2="213.983" gradientUnits="userSpaceOnUse"><stop stop-color="#FF1212" stop-opacity=".4"/><stop offset="1" stop-color="#FF1212" stop-opacity=".27"/></linearGradient><linearGradient id="i" x1="468.229" y1="80.037" x2="468.229" y2="206.799" gradientUnits="userSpaceOnUse"><stop stop-color="#FF1212" stop-opacity=".4"/><stop offset="1" stop-color="#FF1212" stop-opacity=".27"/></linearGradient><linearGradient id="j" x1="468.229" y1="72.852" x2="468.229" y2="199.614" gradientUnits="userSpaceOnUse"><stop stop-color="#FF1212" stop-opacity=".4"/><stop offset="1" stop-color="#FF1212" stop-opacity=".27"/></linearGradient><linearGradient id="k" x1="468.229" y1="65.666" x2="468.229" y2="192.428" gradientUnits="userSpaceOnUse"><stop stop-color="#FF1212" stop-opacity=".4"/><stop offset="1" stop-color="#FF1212" stop-opacity=".27"/></linearGradient><linearGradient id="l" x1="468.229" y1="58.48" x2="468.229" y2="185.243" gradientUnits="userSpaceOnUse"><stop stop-color="#FF1212" stop-opacity=".4"/><stop offset="1" stop-color="#FF1212" stop-opacity=".27"/></linearGradient><linearGradient id="m" x1="468.229" y1="51.295" x2="468.229" y2="178.057" gradientUnits="userSpaceOnUse"><stop stop-color="#FF1212" stop-opacity=".4"/><stop offset="1" stop-color="#FF1212" stop-opacity=".27"/></linearGradient><linearGradient id="n" x1="468.229" y1="44.111" x2="468.229" y2="170.873" gradientUnits="userSpaceOnUse"><stop stop-color="#FF1212" stop-opacity=".4"/><stop offset="1" stop-color="#FF1212" stop-opacity=".27"/></linearGradient><linearGradient id="o" x1="468.229" y1="36.926" x2="468.229" y2="163.688" gradientUnits="userSpaceOnUse"><stop stop-color="#FF1212" stop-opacity=".4"/><stop offset="1" stop-color="#FF1212" stop-opacity=".27"/></linearGradient><linearGradient id="p" x1="468.229" y1="29.74" x2="468.229" y2="156.502" gradientUnits="userSpaceOnUse"><stop stop-color="#FF1212" stop-opacity=".4"/><stop offset="1" stop-color="#FF1212" stop-opacity=".27"/></linearGradient><linearGradient id="q" x1="468.229" y1="22.555" x2="468.229" y2="149.317" gradientUnits="userSpaceOnUse"><stop stop-color="#FF1212" stop-opacity=".4"/><stop offset="1" stop-color="#FF1212" stop-opacity=".27"/></linearGradient><linearGradient id="r" x1="468.229" y1="15.369" x2="468.229" y2="142.131" gradientUnits="userSpaceOnUse"><stop stop-color="#FF1212" stop-opacity=".4"/><stop offset="1" stop-color="#FF1212" stop-opacity=".27"/></linearGradient><linearGradient id="s" x1="468.229" y1="8.186" x2="468.229" y2="134.948" gradientUnits="userSpaceOnUse"><stop stop-color="#FF1212" stop-opacity=".4"/><stop offset="1" stop-color="#FF1212" stop-opacity=".27"/></linearGradient><linearGradient id="t" x1="468.229" y1="1" x2="468.229" y2="127.762" gradientUnits="userSpaceOnUse"><stop stop-color="#FF1212" stop-opacity=".4"/><stop offset="1" stop-color="#FF1212" stop-opacity=".27"/></linearGradient></defs></svg>