<svg width="320" height="169" viewBox="0 0 320 169" fill="none" xmlns="http://www.w3.org/2000/svg"><path d="M930 154.633C893.997 130.181 748.105 1.172 485.96 1.172 158.278 1.172-24.869 301.77-519 53.45M930 319.907c-36.003-24.453-181.895-153.462-444.04-153.462-327.682 0-510.829 300.599-1004.96 52.278" stroke="#FF1212" stroke-opacity=".12"/><path d="M930 311.204c-36.003-24.453-181.895-153.462-444.04-153.462-327.682 0-510.829 300.599-1004.96 52.278" stroke="#FF1212" stroke-opacity=".12"/><path d="M930 302.508c-36.003-24.452-181.895-153.461-444.04-153.461-327.682 0-510.829 300.599-1004.96 52.278" stroke="#FF1212" stroke-opacity=".12"/><path d="M930 293.813c-36.003-24.453-181.895-153.461-444.04-153.461-327.682 0-510.829 300.598-1004.96 52.278" stroke="#FF1212" stroke-opacity=".12"/><path d="M930 285.11c-36.003-24.453-181.895-153.462-444.04-153.462-327.682 0-510.829 300.599-1004.96 52.278" stroke="#FF1212" stroke-opacity=".12"/><path d="M930 276.414c-36.003-24.452-181.895-153.461-444.04-153.461-327.682 0-510.829 300.599-1004.96 52.278" stroke="#FF1212" stroke-opacity=".12"/><path d="M930 267.711C893.997 243.259 748.105 114.25 485.96 114.25c-327.682 0-510.829 300.599-1004.96 52.278" stroke="#FF1212" stroke-opacity=".12"/><path d="M930 259.016c-36.003-24.453-181.895-153.461-444.04-153.461-327.682 0-510.829 300.598-1004.96 52.278" stroke="#FF1212" stroke-opacity=".12"/><path d="M930 250.321C893.997 225.868 748.105 96.859 485.96 96.859 158.278 96.86-24.869 397.458-519 149.137" stroke="#FF1212" stroke-opacity=".12"/><path d="M930 241.618C893.997 217.165 748.105 88.156 485.96 88.156c-327.682 0-510.829 300.599-1004.96 52.278" stroke="#FF1212" stroke-opacity=".12"/><path d="M930 232.922C893.997 208.47 748.105 79.461 485.96 79.461 158.278 79.46-24.869 380.06-519 131.739" stroke="#FF1212" stroke-opacity=".12"/><path d="M930 224.219C893.997 199.767 748.105 70.758 485.96 70.758c-327.682 0-510.829 300.599-1004.96 52.278" stroke="#FF1212" stroke-opacity=".12"/><path d="M930 215.524C893.997 191.071 748.105 62.062 485.96 62.062c-327.682 0-510.829 300.599-1004.96 52.279" stroke="#FF1212" stroke-opacity=".12"/><path d="M930 206.821C893.997 182.368 748.105 53.359 485.96 53.359 158.278 53.36-24.869 353.958-519 105.637" stroke="#FF1212" stroke-opacity=".12"/><path d="M930 198.125c-36.003-24.452-181.895-153.46-444.04-153.46-327.682 0-510.829 300.598-1004.96 52.277" stroke="#FF1212" stroke-opacity=".12"/><path d="M930 189.43C893.997 164.977 748.105 35.969 485.96 35.969 158.278 35.969-24.869 336.568-519 88.247" stroke="#FF1212" stroke-opacity=".12"/><path d="M930 180.727C893.997 156.274 748.105 27.266 485.96 27.266 158.278 27.266-24.869 327.864-519 79.544" stroke="#FF1212" stroke-opacity=".12"/><path d="M930 172.032C893.997 147.579 748.105 18.57 485.96 18.57 158.278 18.57-24.869 319.17-519 70.848" stroke="#FF1212" stroke-opacity=".12"/><path d="M930 163.329C893.997 138.876 748.105 9.867 485.96 9.867 158.278 9.867-24.869 310.466-519 62.145" stroke="#FF1212" stroke-opacity=".12"/></svg>