<svg width="1920" height="482" viewBox="0 0 1920 482" fill="none" xmlns="http://www.w3.org/2000/svg"><path d="M-264 481.539c56.25-36.862 284.183-231.341 693.745-231.341 511.953 0 798.095 453.149 1570.095 78.808" stroke="url(#a)" stroke-opacity=".45"/><path d="M-264 468.426c56.25-36.862 284.183-231.342 693.745-231.342 511.953 0 798.095 453.15 1570.095 78.809" stroke="url(#b)" stroke-opacity=".45"/><path d="M-264 455.313c56.25-36.862 284.183-231.342 693.745-231.342 511.953 0 798.095 453.15 1570.095 78.809" stroke="url(#c)" stroke-opacity=".45"/><path d="M-264 442.2c56.25-36.862 284.183-231.341 693.745-231.341 511.953 0 798.095 453.149 1570.095 78.808" stroke="url(#d)" stroke-opacity=".45"/><path d="M-264 429.087c56.25-36.862 284.183-231.341 693.745-231.341 511.953 0 798.095 453.15 1570.095 78.809" stroke="url(#e)" stroke-opacity=".45"/><path d="M-264 415.974c56.25-36.862 284.183-231.341 693.745-231.341 511.953 0 798.095 453.15 1570.095 78.808" stroke="url(#f)" stroke-opacity=".45"/><path d="M-264 402.861c56.25-36.862 284.183-231.341 693.745-231.341 511.953 0 798.095 453.15 1570.095 78.808" stroke="url(#g)" stroke-opacity=".45"/><path d="M-264 389.749c56.25-36.863 284.183-231.342 693.745-231.342 511.953 0 798.095 453.15 1570.095 78.809" stroke="url(#h)" stroke-opacity=".45"/><path d="M-264 376.636c56.25-36.862 284.183-231.342 693.745-231.342 511.953 0 798.095 453.15 1570.095 78.809" stroke="url(#i)" stroke-opacity=".45"/><path d="M-264 363.523c56.25-36.862 284.183-231.342 693.745-231.342 511.953 0 798.095 453.15 1570.095 78.809" stroke="url(#j)" stroke-opacity=".45"/><path d="M-264 350.41c56.25-36.862 284.183-231.342 693.745-231.342 511.953 0 798.095 453.15 1570.095 78.809" stroke="url(#k)" stroke-opacity=".45"/><path d="M-264 337.297c56.25-36.862 284.183-231.341 693.745-231.341 511.953 0 798.095 453.149 1570.095 78.808" stroke="url(#l)" stroke-opacity=".45"/><path d="M-264 324.184c56.25-36.862 284.183-231.342 693.745-231.342 511.953 0 798.095 453.15 1570.095 78.809" stroke="url(#m)" stroke-opacity=".45"/><path d="M-264 311.071c56.25-36.862 284.183-231.342 693.745-231.342 511.953 0 798.095 453.15 1570.095 78.809" stroke="url(#n)" stroke-opacity=".45"/><path d="M-264 297.958c56.25-36.862 284.183-231.342 693.745-231.342 511.953 0 798.095 453.15 1570.095 78.809" stroke="url(#o)" stroke-opacity=".45"/><path d="M-264 284.845c56.25-36.862 284.183-231.341 693.745-231.341 511.953 0 798.095 453.15 1570.095 78.809" stroke="url(#p)" stroke-opacity=".45"/><path d="M-264 271.732C-207.75 234.87 20.183 40.391 429.745 40.391c511.953 0 798.095 453.15 1570.095 78.809" stroke="url(#q)" stroke-opacity=".45"/><path d="M-264 258.619c56.25-36.862 284.183-231.341 693.745-231.341 511.953 0 798.095 453.15 1570.095 78.808" stroke="url(#r)" stroke-opacity=".45"/><path d="M-264 245.506c56.25-36.862 284.183-231.341 693.745-231.341 511.953 0 798.095 453.15 1570.095 78.809" stroke="url(#s)" stroke-opacity=".45"/><path d="M-264 232.394C-207.75 195.532 20.183 1.052 429.745 1.052c511.953 0 798.095 453.15 1570.095 78.809" stroke="url(#t)" stroke-opacity=".45"/><defs><linearGradient id="a" x1="867.921" y1="250.198" x2="867.921" y2="481.539" gradientUnits="userSpaceOnUse"><stop stop-color="#0FF" stop-opacity=".69"/><stop offset="1" stop-color="#0FF" stop-opacity=".19"/></linearGradient><linearGradient id="b" x1="867.921" y1="237.084" x2="867.921" y2="468.426" gradientUnits="userSpaceOnUse"><stop stop-color="#0FF" stop-opacity=".69"/><stop offset="1" stop-color="#0FF" stop-opacity=".19"/></linearGradient><linearGradient id="c" x1="867.921" y1="223.971" x2="867.921" y2="455.313" gradientUnits="userSpaceOnUse"><stop stop-color="#0FF" stop-opacity=".69"/><stop offset="1" stop-color="#0FF" stop-opacity=".19"/></linearGradient><linearGradient id="d" x1="867.921" y1="210.859" x2="867.921" y2="442.2" gradientUnits="userSpaceOnUse"><stop stop-color="#0FF" stop-opacity=".69"/><stop offset="1" stop-color="#0FF" stop-opacity=".19"/></linearGradient><linearGradient id="e" x1="867.921" y1="197.746" x2="867.921" y2="429.087" gradientUnits="userSpaceOnUse"><stop stop-color="#0FF" stop-opacity=".69"/><stop offset="1" stop-color="#0FF" stop-opacity=".19"/></linearGradient><linearGradient id="f" x1="867.921" y1="184.633" x2="867.921" y2="415.974" gradientUnits="userSpaceOnUse"><stop stop-color="#0FF" stop-opacity=".69"/><stop offset="1" stop-color="#0FF" stop-opacity=".19"/></linearGradient><linearGradient id="g" x1="867.921" y1="171.52" x2="867.921" y2="402.861" gradientUnits="userSpaceOnUse"><stop stop-color="#0FF" stop-opacity=".69"/><stop offset="1" stop-color="#0FF" stop-opacity=".19"/></linearGradient><linearGradient id="h" x1="867.921" y1="158.407" x2="867.921" y2="389.749" gradientUnits="userSpaceOnUse"><stop stop-color="#0FF" stop-opacity=".69"/><stop offset="1" stop-color="#0FF" stop-opacity=".19"/></linearGradient><linearGradient id="i" x1="867.921" y1="145.294" x2="867.921" y2="376.636" gradientUnits="userSpaceOnUse"><stop stop-color="#0FF" stop-opacity=".69"/><stop offset="1" stop-color="#0FF" stop-opacity=".19"/></linearGradient><linearGradient id="j" x1="867.921" y1="132.181" x2="867.921" y2="363.523" gradientUnits="userSpaceOnUse"><stop stop-color="#0FF" stop-opacity=".69"/><stop offset="1" stop-color="#0FF" stop-opacity=".19"/></linearGradient><linearGradient id="k" x1="867.921" y1="119.068" x2="867.921" y2="350.41" gradientUnits="userSpaceOnUse"><stop stop-color="#0FF" stop-opacity=".69"/><stop offset="1" stop-color="#0FF" stop-opacity=".19"/></linearGradient><linearGradient id="l" x1="867.921" y1="105.956" x2="867.921" y2="337.297" gradientUnits="userSpaceOnUse"><stop stop-color="#0FF" stop-opacity=".69"/><stop offset="1" stop-color="#0FF" stop-opacity=".19"/></linearGradient><linearGradient id="m" x1="867.921" y1="92.843" x2="867.921" y2="324.184" gradientUnits="userSpaceOnUse"><stop stop-color="#0FF" stop-opacity=".69"/><stop offset="1" stop-color="#0FF" stop-opacity=".19"/></linearGradient><linearGradient id="n" x1="867.921" y1="79.73" x2="867.921" y2="311.071" gradientUnits="userSpaceOnUse"><stop stop-color="#0FF" stop-opacity=".69"/><stop offset="1" stop-color="#0FF" stop-opacity=".19"/></linearGradient><linearGradient id="o" x1="867.921" y1="66.617" x2="867.921" y2="297.958" gradientUnits="userSpaceOnUse"><stop stop-color="#0FF" stop-opacity=".69"/><stop offset="1" stop-color="#0FF" stop-opacity=".19"/></linearGradient><linearGradient id="p" x1="867.921" y1="53.504" x2="867.921" y2="284.845" gradientUnits="userSpaceOnUse"><stop stop-color="#0FF" stop-opacity=".69"/><stop offset="1" stop-color="#0FF" stop-opacity=".19"/></linearGradient><linearGradient id="q" x1="867.921" y1="40.391" x2="867.921" y2="271.732" gradientUnits="userSpaceOnUse"><stop stop-color="#0FF" stop-opacity=".69"/><stop offset="1" stop-color="#0FF" stop-opacity=".19"/></linearGradient><linearGradient id="r" x1="867.921" y1="27.278" x2="867.921" y2="258.619" gradientUnits="userSpaceOnUse"><stop stop-color="#0FF" stop-opacity=".69"/><stop offset="1" stop-color="#0FF" stop-opacity=".19"/></linearGradient><linearGradient id="s" x1="867.921" y1="14.165" x2="867.921" y2="245.506" gradientUnits="userSpaceOnUse"><stop stop-color="#0FF" stop-opacity=".69"/><stop offset="1" stop-color="#0FF" stop-opacity=".19"/></linearGradient><linearGradient id="t" x1="867.921" y1="1.052" x2="867.921" y2="232.394" gradientUnits="userSpaceOnUse"><stop stop-color="#0FF" stop-opacity=".69"/><stop offset="1" stop-color="#0FF" stop-opacity=".19"/></linearGradient></defs></svg>