<svg width="768" height="265" viewBox="0 0 768 265" fill="none" xmlns="http://www.w3.org/2000/svg"><g opacity=".25"><path d="M-147 263.945c22.862-20.173 115.502-126.601 281.962-126.601 208.075 0 324.372 247.985 638.142 43.128" stroke="url(#a)"/><path d="M-147 256.769c22.862-20.173 115.502-126.601 281.962-126.601 208.075 0 324.372 247.985 638.142 43.128" stroke="url(#b)"/><path d="M-147 249.593c22.862-20.172 115.502-126.601 281.962-126.601 208.075 0 324.372 247.986 638.142 43.128" stroke="url(#c)"/><path d="M-147 242.418c22.862-20.173 115.502-126.602 281.962-126.602 208.075 0 324.372 247.986 638.142 43.128" stroke="url(#d)"/><path d="M-147 235.242c22.862-20.173 115.502-126.601 281.962-126.601 208.075 0 324.372 247.985 638.142 43.128" stroke="url(#e)"/><path d="M-147 228.066c22.862-20.173 115.502-126.601 281.962-126.601 208.075 0 324.372 247.985 638.142 43.128" stroke="url(#f)"/><path d="M-147 220.888c22.862-20.172 115.502-126.6 281.962-126.6 208.075 0 324.372 247.984 638.142 43.127" stroke="url(#g)"/><path d="M-147 213.713C-124.138 193.54-31.498 87.111 134.962 87.111c208.075 0 324.372 247.986 638.142 43.128" stroke="url(#h)"/><path d="M-147 206.537c22.862-20.173 115.502-126.602 281.962-126.602 208.075 0 324.372 247.986 638.142 43.128" stroke="url(#i)"/><path d="M-147 199.361C-124.138 179.188-31.498 72.76 134.962 72.76c208.075 0 324.372 247.985 638.142 43.128" stroke="url(#j)"/><path d="M-147 192.185c22.862-20.173 115.502-126.601 281.962-126.601 208.075 0 324.372 247.985 638.142 43.128" stroke="url(#k)"/><path d="M-147 185.009c22.862-20.172 115.502-126.6 281.962-126.6 208.075 0 324.372 247.985 638.142 43.127" stroke="url(#l)"/><path d="M-147 177.834c22.862-20.173 115.502-126.602 281.962-126.602 208.075 0 324.372 247.986 638.142 43.128" stroke="url(#m)"/><path d="M-147 170.658c22.862-20.173 115.502-126.601 281.962-126.601 208.075 0 324.372 247.985 638.142 43.127" stroke="url(#n)"/><path d="M-147 163.482c22.862-20.173 115.502-126.601 281.962-126.601 208.075 0 324.372 247.985 638.142 43.128" stroke="url(#o)"/><path d="M-147 156.304c22.862-20.172 115.502-126.6 281.962-126.6 208.075 0 324.372 247.985 638.142 43.127" stroke="url(#p)"/><path d="M-147 149.129c22.862-20.173 115.502-126.602 281.962-126.602 208.075 0 324.372 247.986 638.142 43.128" stroke="url(#q)"/><path d="M-147 141.953C-124.138 121.78-31.498 15.352 134.962 15.352c208.075 0 324.372 247.985 638.142 43.127" stroke="url(#r)"/><path d="M-147 134.777C-124.138 114.604-31.498 8.176 134.962 8.176c208.075 0 324.372 247.985 638.142 43.128" stroke="url(#s)"/><path d="M-147 127.601C-124.138 107.429-31.498 1 134.962 1c208.075 0 324.372 247.985 638.142 43.128" stroke="url(#t)"/></g><defs><linearGradient id="a" x1="313.052" y1="137.344" x2="313.052" y2="263.945" gradientUnits="userSpaceOnUse"><stop stop-color="#0FF" stop-opacity=".69"/><stop offset="1" stop-color="#0FF" stop-opacity=".19"/></linearGradient><linearGradient id="b" x1="313.052" y1="130.168" x2="313.052" y2="256.769" gradientUnits="userSpaceOnUse"><stop stop-color="#0FF" stop-opacity=".69"/><stop offset="1" stop-color="#0FF" stop-opacity=".19"/></linearGradient><linearGradient id="c" x1="313.052" y1="122.992" x2="313.052" y2="249.593" gradientUnits="userSpaceOnUse"><stop stop-color="#0FF" stop-opacity=".69"/><stop offset="1" stop-color="#0FF" stop-opacity=".19"/></linearGradient><linearGradient id="d" x1="313.052" y1="115.816" x2="313.052" y2="242.418" gradientUnits="userSpaceOnUse"><stop stop-color="#0FF" stop-opacity=".69"/><stop offset="1" stop-color="#0FF" stop-opacity=".19"/></linearGradient><linearGradient id="e" x1="313.052" y1="108.641" x2="313.052" y2="235.242" gradientUnits="userSpaceOnUse"><stop stop-color="#0FF" stop-opacity=".69"/><stop offset="1" stop-color="#0FF" stop-opacity=".19"/></linearGradient><linearGradient id="f" x1="313.052" y1="101.465" x2="313.052" y2="228.066" gradientUnits="userSpaceOnUse"><stop stop-color="#0FF" stop-opacity=".69"/><stop offset="1" stop-color="#0FF" stop-opacity=".19"/></linearGradient><linearGradient id="g" x1="313.052" y1="94.287" x2="313.052" y2="220.888" gradientUnits="userSpaceOnUse"><stop stop-color="#0FF" stop-opacity=".69"/><stop offset="1" stop-color="#0FF" stop-opacity=".19"/></linearGradient><linearGradient id="h" x1="313.052" y1="87.111" x2="313.052" y2="213.713" gradientUnits="userSpaceOnUse"><stop stop-color="#0FF" stop-opacity=".69"/><stop offset="1" stop-color="#0FF" stop-opacity=".19"/></linearGradient><linearGradient id="i" x1="313.052" y1="79.936" x2="313.052" y2="206.537" gradientUnits="userSpaceOnUse"><stop stop-color="#0FF" stop-opacity=".69"/><stop offset="1" stop-color="#0FF" stop-opacity=".19"/></linearGradient><linearGradient id="j" x1="313.052" y1="72.76" x2="313.052" y2="199.361" gradientUnits="userSpaceOnUse"><stop stop-color="#0FF" stop-opacity=".69"/><stop offset="1" stop-color="#0FF" stop-opacity=".19"/></linearGradient><linearGradient id="k" x1="313.052" y1="65.584" x2="313.052" y2="192.185" gradientUnits="userSpaceOnUse"><stop stop-color="#0FF" stop-opacity=".69"/><stop offset="1" stop-color="#0FF" stop-opacity=".19"/></linearGradient><linearGradient id="l" x1="313.052" y1="58.408" x2="313.052" y2="185.009" gradientUnits="userSpaceOnUse"><stop stop-color="#0FF" stop-opacity=".69"/><stop offset="1" stop-color="#0FF" stop-opacity=".19"/></linearGradient><linearGradient id="m" x1="313.052" y1="51.232" x2="313.052" y2="177.834" gradientUnits="userSpaceOnUse"><stop stop-color="#0FF" stop-opacity=".69"/><stop offset="1" stop-color="#0FF" stop-opacity=".19"/></linearGradient><linearGradient id="n" x1="313.052" y1="44.057" x2="313.052" y2="170.658" gradientUnits="userSpaceOnUse"><stop stop-color="#0FF" stop-opacity=".69"/><stop offset="1" stop-color="#0FF" stop-opacity=".19"/></linearGradient><linearGradient id="o" x1="313.052" y1="36.881" x2="313.052" y2="163.482" gradientUnits="userSpaceOnUse"><stop stop-color="#0FF" stop-opacity=".69"/><stop offset="1" stop-color="#0FF" stop-opacity=".19"/></linearGradient><linearGradient id="p" x1="313.052" y1="29.703" x2="313.052" y2="156.304" gradientUnits="userSpaceOnUse"><stop stop-color="#0FF" stop-opacity=".69"/><stop offset="1" stop-color="#0FF" stop-opacity=".19"/></linearGradient><linearGradient id="q" x1="313.052" y1="22.527" x2="313.052" y2="149.129" gradientUnits="userSpaceOnUse"><stop stop-color="#0FF" stop-opacity=".69"/><stop offset="1" stop-color="#0FF" stop-opacity=".19"/></linearGradient><linearGradient id="r" x1="313.052" y1="15.352" x2="313.052" y2="141.953" gradientUnits="userSpaceOnUse"><stop stop-color="#0FF" stop-opacity=".69"/><stop offset="1" stop-color="#0FF" stop-opacity=".19"/></linearGradient><linearGradient id="s" x1="313.052" y1="8.176" x2="313.052" y2="134.777" gradientUnits="userSpaceOnUse"><stop stop-color="#0FF" stop-opacity=".69"/><stop offset="1" stop-color="#0FF" stop-opacity=".19"/></linearGradient><linearGradient id="t" x1="313.052" y1="1" x2="313.052" y2="127.601" gradientUnits="userSpaceOnUse"><stop stop-color="#0FF" stop-opacity=".69"/><stop offset="1" stop-color="#0FF" stop-opacity=".19"/></linearGradient></defs></svg>