<svg width="768" height="260" viewBox="0 0 768 260" fill="none" xmlns="http://www.w3.org/2000/svg"><path d="M-625 259.434c34.79-14.936 175.764-93.733 429.075-93.733 316.638 0 493.613 183.603 971.091 31.931" stroke="url(#a)"/><path d="M-625 94.733C-590.21 79.797-449.236 1-195.925 1c316.638 0 493.613 183.603 971.091 31.93" stroke="url(#b)"/><path d="M-625 254.121c34.79-14.935 175.764-93.732 429.075-93.732 316.638 0 493.613 183.602 971.091 31.931" stroke="url(#c)"/><path d="M-625 248.809c34.79-14.936 175.764-93.733 429.075-93.733 316.638 0 493.613 183.603 971.091 31.931" stroke="url(#d)"/><path d="M-625 243.494c34.79-14.935 175.764-93.732 429.075-93.732 316.638 0 493.613 183.602 971.091 31.931" stroke="url(#e)"/><path d="M-625 238.182c34.79-14.936 175.764-93.733 429.075-93.733 316.638 0 493.613 183.603 971.091 31.931" stroke="url(#f)"/><path d="M-625 232.869c34.79-14.935 175.764-93.732 429.075-93.732 316.638 0 493.613 183.602 971.091 31.931" stroke="url(#g)"/><path d="M-625 227.557c34.79-14.936 175.764-93.733 429.075-93.733 316.638 0 493.613 183.603 971.091 31.931" stroke="url(#h)"/><path d="M-625 222.244c34.79-14.935 175.764-93.732 429.075-93.732 316.638 0 493.613 183.602 971.091 31.931" stroke="url(#i)"/><path d="M-625 216.932c34.79-14.936 175.764-93.733 429.075-93.733 316.638 0 493.613 183.603 971.091 31.931" stroke="url(#j)"/><path d="M-625 211.617c34.79-14.935 175.764-93.732 429.075-93.732 316.638 0 493.613 183.602 971.091 31.931" stroke="url(#k)"/><path d="M-625 206.305c34.79-14.936 175.764-93.733 429.075-93.733 316.638 0 493.613 183.603 971.091 31.931" stroke="url(#l)"/><path d="M-625 200.992c34.79-14.935 175.764-93.732 429.075-93.732 316.638 0 493.613 183.602 971.091 31.931" stroke="url(#m)"/><path d="M-625 195.678c34.79-14.935 175.764-93.733 429.075-93.733 316.638 0 493.613 183.603 971.091 31.931" stroke="url(#n)"/><path d="M-625 190.365c34.79-14.935 175.764-93.732 429.075-93.732 316.638 0 493.613 183.602 971.091 31.931" stroke="url(#o)"/><path d="M-625 185.051c34.79-14.935 175.764-93.733 429.075-93.733 316.638 0 493.613 183.603 971.091 31.931" stroke="url(#p)"/><path d="M-625 179.74c34.79-14.935 175.764-93.732 429.075-93.732 316.638 0 493.613 183.602 971.091 31.931" stroke="url(#q)"/><path d="M-625 174.428c34.79-14.935 175.764-93.733 429.075-93.733 316.638 0 493.613 183.603 971.091 31.931" stroke="url(#r)"/><path d="M-625 169.113c34.79-14.935 175.764-93.732 429.075-93.732 316.638 0 493.613 183.603 971.091 31.931" stroke="url(#s)"/><path d="M-625 163.801c34.79-14.935 175.764-93.733 429.075-93.733 316.638 0 493.613 183.603 971.091 31.931" stroke="url(#t)"/><path d="M-625 158.487c34.79-14.936 175.764-93.733 429.075-93.733 316.638 0 493.613 183.603 971.091 31.93" stroke="url(#u)"/><path d="M-625 153.176c34.79-14.935 175.764-93.733 429.075-93.733 316.638 0 493.613 183.603 971.091 31.931" stroke="url(#v)"/><path d="M-625 147.862c34.79-14.936 175.764-93.733 429.075-93.733 316.638 0 493.613 183.603 971.091 31.93" stroke="url(#w)"/><path d="M-625 142.549c34.79-14.935 175.764-93.733 429.075-93.733 316.638 0 493.613 183.603 971.091 31.931" stroke="url(#x)"/><path d="M-625 137.235c34.79-14.936 175.764-93.733 429.075-93.733 316.638 0 493.613 183.603 971.091 31.93" stroke="url(#y)"/><path d="M-625 131.924c34.79-14.935 175.764-93.733 429.075-93.733 316.638 0 493.613 183.603 971.091 31.931" stroke="url(#z)"/><path d="M-625 126.61c34.79-14.936 175.764-93.733 429.075-93.733 316.638 0 493.613 183.603 971.091 31.93" stroke="url(#A)"/><path d="M-625 121.297c34.79-14.935 175.764-93.733 429.075-93.733 316.638 0 493.613 183.603 971.091 31.931" stroke="url(#B)"/><path d="M-625 115.985c34.79-14.936 175.764-93.733 429.075-93.733 316.638 0 493.613 183.603 971.091 31.93" stroke="url(#C)"/><path d="M-625 110.67c34.79-14.935 175.764-93.733 429.075-93.733 316.638 0 493.613 183.603 971.091 31.931" stroke="url(#D)"/><path d="M-625 105.36c34.79-14.936 175.764-93.733 429.075-93.733 316.638 0 493.613 183.603 971.091 31.93" stroke="url(#E)"/><path d="M-625 100.045C-590.21 85.11-449.236 6.312-195.925 6.312c316.638 0 493.613 183.603 971.091 31.931" stroke="url(#F)"/><defs><linearGradient id="a" x1="75.083" y1="165.701" x2="75.083" y2="259.434" gradientUnits="userSpaceOnUse"><stop stop-color="#fff"/><stop offset="1" stop-color="#CDE2FF" stop-opacity=".59"/></linearGradient><linearGradient id="b" x1="75.083" y1="1" x2="75.083" y2="94.733" gradientUnits="userSpaceOnUse"><stop stop-color="#fff"/><stop offset="1" stop-color="#CDE2FF" stop-opacity=".59"/></linearGradient><linearGradient id="c" x1="75.083" y1="160.389" x2="75.083" y2="254.121" gradientUnits="userSpaceOnUse"><stop stop-color="#fff"/><stop offset="1" stop-color="#CDE2FF" stop-opacity=".59"/></linearGradient><linearGradient id="d" x1="75.083" y1="155.076" x2="75.083" y2="248.809" gradientUnits="userSpaceOnUse"><stop stop-color="#fff"/><stop offset="1" stop-color="#CDE2FF" stop-opacity=".59"/></linearGradient><linearGradient id="e" x1="75.083" y1="149.762" x2="75.083" y2="243.494" gradientUnits="userSpaceOnUse"><stop stop-color="#fff"/><stop offset="1" stop-color="#CDE2FF" stop-opacity=".59"/></linearGradient><linearGradient id="f" x1="75.083" y1="144.449" x2="75.083" y2="238.182" gradientUnits="userSpaceOnUse"><stop stop-color="#fff"/><stop offset="1" stop-color="#CDE2FF" stop-opacity=".59"/></linearGradient><linearGradient id="g" x1="75.083" y1="139.137" x2="75.083" y2="232.869" gradientUnits="userSpaceOnUse"><stop stop-color="#fff"/><stop offset="1" stop-color="#CDE2FF" stop-opacity=".59"/></linearGradient><linearGradient id="h" x1="75.083" y1="133.824" x2="75.083" y2="227.557" gradientUnits="userSpaceOnUse"><stop stop-color="#fff"/><stop offset="1" stop-color="#CDE2FF" stop-opacity=".59"/></linearGradient><linearGradient id="i" x1="75.083" y1="128.512" x2="75.083" y2="222.244" gradientUnits="userSpaceOnUse"><stop stop-color="#fff"/><stop offset="1" stop-color="#CDE2FF" stop-opacity=".59"/></linearGradient><linearGradient id="j" x1="75.083" y1="123.199" x2="75.083" y2="216.932" gradientUnits="userSpaceOnUse"><stop stop-color="#fff"/><stop offset="1" stop-color="#CDE2FF" stop-opacity=".59"/></linearGradient><linearGradient id="k" x1="75.083" y1="117.885" x2="75.083" y2="211.617" gradientUnits="userSpaceOnUse"><stop stop-color="#fff"/><stop offset="1" stop-color="#CDE2FF" stop-opacity=".59"/></linearGradient><linearGradient id="l" x1="75.083" y1="112.572" x2="75.083" y2="206.305" gradientUnits="userSpaceOnUse"><stop stop-color="#fff"/><stop offset="1" stop-color="#CDE2FF" stop-opacity=".59"/></linearGradient><linearGradient id="m" x1="75.083" y1="107.26" x2="75.083" y2="200.992" gradientUnits="userSpaceOnUse"><stop stop-color="#fff"/><stop offset="1" stop-color="#CDE2FF" stop-opacity=".59"/></linearGradient><linearGradient id="n" x1="75.083" y1="101.945" x2="75.083" y2="195.678" gradientUnits="userSpaceOnUse"><stop stop-color="#fff"/><stop offset="1" stop-color="#CDE2FF" stop-opacity=".59"/></linearGradient><linearGradient id="o" x1="75.083" y1="96.633" x2="75.083" y2="190.365" gradientUnits="userSpaceOnUse"><stop stop-color="#fff"/><stop offset="1" stop-color="#CDE2FF" stop-opacity=".59"/></linearGradient><linearGradient id="p" x1="75.083" y1="91.318" x2="75.083" y2="185.051" gradientUnits="userSpaceOnUse"><stop stop-color="#fff"/><stop offset="1" stop-color="#CDE2FF" stop-opacity=".59"/></linearGradient><linearGradient id="q" x1="75.083" y1="86.008" x2="75.083" y2="179.74" gradientUnits="userSpaceOnUse"><stop stop-color="#fff"/><stop offset="1" stop-color="#CDE2FF" stop-opacity=".59"/></linearGradient><linearGradient id="r" x1="75.083" y1="80.695" x2="75.083" y2="174.428" gradientUnits="userSpaceOnUse"><stop stop-color="#fff"/><stop offset="1" stop-color="#CDE2FF" stop-opacity=".59"/></linearGradient><linearGradient id="s" x1="75.083" y1="75.381" x2="75.083" y2="169.113" gradientUnits="userSpaceOnUse"><stop stop-color="#fff"/><stop offset="1" stop-color="#CDE2FF" stop-opacity=".59"/></linearGradient><linearGradient id="t" x1="75.083" y1="70.068" x2="75.083" y2="163.801" gradientUnits="userSpaceOnUse"><stop stop-color="#fff"/><stop offset="1" stop-color="#CDE2FF" stop-opacity=".59"/></linearGradient><linearGradient id="u" x1="75.083" y1="64.754" x2="75.083" y2="158.487" gradientUnits="userSpaceOnUse"><stop stop-color="#fff"/><stop offset="1" stop-color="#CDE2FF" stop-opacity=".59"/></linearGradient><linearGradient id="v" x1="75.083" y1="59.443" x2="75.083" y2="153.176" gradientUnits="userSpaceOnUse"><stop stop-color="#fff"/><stop offset="1" stop-color="#CDE2FF" stop-opacity=".59"/></linearGradient><linearGradient id="w" x1="75.083" y1="54.129" x2="75.083" y2="147.862" gradientUnits="userSpaceOnUse"><stop stop-color="#fff"/><stop offset="1" stop-color="#CDE2FF" stop-opacity=".59"/></linearGradient><linearGradient id="x" x1="75.083" y1="48.816" x2="75.083" y2="142.549" gradientUnits="userSpaceOnUse"><stop stop-color="#fff"/><stop offset="1" stop-color="#CDE2FF" stop-opacity=".59"/></linearGradient><linearGradient id="y" x1="75.083" y1="43.502" x2="75.083" y2="137.235" gradientUnits="userSpaceOnUse"><stop stop-color="#fff"/><stop offset="1" stop-color="#CDE2FF" stop-opacity=".59"/></linearGradient><linearGradient id="z" x1="75.083" y1="38.191" x2="75.083" y2="131.924" gradientUnits="userSpaceOnUse"><stop stop-color="#fff"/><stop offset="1" stop-color="#CDE2FF" stop-opacity=".59"/></linearGradient><linearGradient id="A" x1="75.083" y1="32.877" x2="75.083" y2="126.61" gradientUnits="userSpaceOnUse"><stop stop-color="#fff"/><stop offset="1" stop-color="#CDE2FF" stop-opacity=".59"/></linearGradient><linearGradient id="B" x1="75.083" y1="27.564" x2="75.083" y2="121.297" gradientUnits="userSpaceOnUse"><stop stop-color="#fff"/><stop offset="1" stop-color="#CDE2FF" stop-opacity=".59"/></linearGradient><linearGradient id="C" x1="75.083" y1="22.252" x2="75.083" y2="115.985" gradientUnits="userSpaceOnUse"><stop stop-color="#fff"/><stop offset="1" stop-color="#CDE2FF" stop-opacity=".59"/></linearGradient><linearGradient id="D" x1="75.083" y1="16.938" x2="75.083" y2="110.67" gradientUnits="userSpaceOnUse"><stop stop-color="#fff"/><stop offset="1" stop-color="#CDE2FF" stop-opacity=".59"/></linearGradient><linearGradient id="E" x1="75.083" y1="11.627" x2="75.083" y2="105.36" gradientUnits="userSpaceOnUse"><stop stop-color="#fff"/><stop offset="1" stop-color="#CDE2FF" stop-opacity=".59"/></linearGradient><linearGradient id="F" x1="75.083" y1="6.313" x2="75.083" y2="100.045" gradientUnits="userSpaceOnUse"><stop stop-color="#fff"/><stop offset="1" stop-color="#CDE2FF" stop-opacity=".59"/></linearGradient></defs></svg>