<svg width="140" height="40" viewBox="0 0 140 40" fill="none" xmlns="http://www.w3.org/2000/svg"><path d="M29.681 19.795c0 8.05-6.433 14.552-14.34 14.552C7.433 34.347 1 27.845 1 19.795S7.433 5.242 15.34 5.242c7.908 0 14.341 6.503 14.341 14.553z" stroke="#FF1212" stroke-width="2" stroke-miterlimit="10"/><path d="M23.784 21.435a2.107 2.107 0 0 0 1.059-1.825 2.1 2.1 0 0 0-1.059-1.825L11.81 10.889a2.144 2.144 0 0 0-.912-.28c-.364.022-.72.116-1.047.276a2.077 2.077 0 0 0-1.21 1.829V26.51a2.061 2.061 0 0 0 1.21 1.825c.327.16.683.253 1.046.275a2.1 2.1 0 0 0 .89-.275l11.997-6.9z" fill="#FF1212"/><path d="M19.61 22.344c.02.048.035.097.045.147a.09.09 0 0 1 0 .084.251.251 0 0 1-.111.036h-.445a.59.59 0 0 1-.125 0 .103.103 0 0 1-.062-.032.152.152 0 0 1-.027-.053l-.25-.675h-1.402l-.236.658a.163.163 0 0 1-.026.062.124.124 0 0 1-.063.04.537.537 0 0 1-.115.022h-.41a.147.147 0 0 1-.102-.04.083.083 0 0 1 0-.084c.008-.05.022-.1.04-.147l1.104-3.01a.512.512 0 0 1 .04-.072.152.152 0 0 1 .076-.04.49.49 0 0 1 .138 0h.507a.496.496 0 0 1 .156 0 .17.17 0 0 1 .08.04.223.223 0 0 1 .04.08l1.148 2.984zm-1.704-2.469l-.548 1.444h1.055l-.507-1.444zm-2.54-3.367H9.824v.812h5.542v-.812z" fill="#fff"/><path d="M15.023 21.223a5.38 5.38 0 0 1-3.56-2.442 5.236 5.236 0 0 1-.713-1.838l.868-.107-.445.053.445-.053c.173.89.609 1.709 1.251 2.35a4.566 4.566 0 0 0 2.355 1.25l-.2.787z" fill="#fff"/><path d="M10.184 21.223l-.196-.786a4.496 4.496 0 0 0 2.983-2.034 4.54 4.54 0 0 0 .623-1.567l.89.107a5.195 5.195 0 0 1-.716 1.838 5.333 5.333 0 0 1-3.584 2.442zm2.833-5.528h-.837v1.181h.837v-1.18z" fill="#fff"/><path d="M55.665 16.171c0 1.98-.064 3.132-.192 3.455-.207.633-1.347 2.48-3.418 5.541-2.128 3.13-3.395 4.778-3.802 4.947a6.69 6.69 0 0 1-1.78.128 8.439 8.439 0 0 1-1.861-.128c-.392-.125-1.68-1.711-3.864-4.76-2.122-2.96-3.309-4.765-3.56-5.413-.34-.888-.508-2.255-.508-4.103 0-.577 0-1.443.044-2.593.045-1.15.04-2.011.04-2.588a.406.406 0 0 1 .269-.422.411.411 0 0 1 .176-.022c.445 0 1.158 0 2.084.062.925.062 1.611.062 2.078.062.254 0 .379.142.379.444 0 .444-.027 1.11-.085 1.99-.058.878-.084 1.54-.084 1.988a26.851 26.851 0 0 0 .213 3.553c.069.532.782 1.838 2.141 3.916 1.36 2.078 2.2 3.114 2.524 3.108.297 0 1.064-1.018 2.302-3.055 1.237-2.037 1.884-3.293 1.94-3.77a26.5 26.5 0 0 0 .17-3.618c0-.444-.045-1.16-.138-2.087-.094-.928-.138-1.621-.138-2.083a.284.284 0 0 1 .32-.32c.445 0 1.144 0 2.048-.07a24.629 24.629 0 0 1 2.025-.076c.45 0 .677 1.945.677 5.914zm9.299-11.246c0 1.73-.964 2.592-2.893 2.59-1.93-.004-2.907-.867-2.934-2.59a2.393 2.393 0 0 1 .89-1.918 3.206 3.206 0 0 1 4.065 0 2.395 2.395 0 0 1 .872 1.918zm-.147 5.728c0 1.084-.066 2.713-.2 4.884-.134 2.172-.2 3.824-.2 4.916 0 1.092.022 2.562.062 4.6a259 259 0 0 1 .062 4.582c0 .298-.124.444-.378.444h-4.118c-.293 0-.445-.288-.445-.888 0-.968.026-2.424.076-4.369.049-1.945.076-3.406.076-4.391 0-1.093-.085-2.736-.245-4.929-.16-2.193-.254-3.819-.254-4.91 0-.24.148-.36.445-.36.392.011.783.047 1.17.106a9.61 9.61 0 0 0 1.194.102 9.52 9.52 0 0 0 1.193-.102c.395-.06.793-.095 1.193-.106.246 0 .37.14.37.421zM90.067.736c0 1.812-.082 4.525-.245 8.14-.163 3.614-.245 6.32-.245 8.116 0 5.544.12 9.743.36 12.597v.27c0 .143-.177.232-.57.276-.379.027-.76.027-1.139 0l-.823-.062a9.04 9.04 0 0 0-.93.062c-.41.04-.717.062-.93.062-.215 0-.312-.488-.348-1.46-.036-.973-.09-1.475-.156-1.488-.121.074-.23.167-.32.275-1.926 2.072-4.143 3.108-6.65 3.108a8.783 8.783 0 0 1-7.007-3.245 10.985 10.985 0 0 1-2.6-7.371c0-2.99.874-5.506 2.622-7.548A8.984 8.984 0 0 1 78.24 9.27a7.276 7.276 0 0 1 4.648 1.558 60.627 60.627 0 0 1 1.78 1.576.276.276 0 0 0 .17-.293V5.328c0-.444-.023-1.164-.063-2.105a57.715 57.715 0 0 1-.067-2.127c0-.337.116-.506.339-.506.52 0 1.295-.044 2.323-.138C88.397.36 89.15.315 89.671.315c.298-.023.396.128.396.421zM84.787 19.9a6.836 6.836 0 0 0-1.562-4.44 5.147 5.147 0 0 0-4.14-2.042 5.354 5.354 0 0 0-4.282 2.02 6.805 6.805 0 0 0-1.607 4.542 6.402 6.402 0 0 0 1.67 4.4 5.34 5.34 0 0 0 4.22 1.98 5.174 5.174 0 0 0 4.18-2.002 6.85 6.85 0 0 0 1.521-4.458z" fill="#323131"/><path d="M115.117 19.941a10.964 10.964 0 0 1-2.595 7.269 8.63 8.63 0 0 1-6.882 3.285 8.551 8.551 0 0 1-4.834-1.39c-.564-.479-1.126-.95-1.687-1.411-.156.04-.258.444-.307 1.26-.049.818-.165 1.204-.347 1.204h-4.452c-.169 0-.253-.093-.253-.275 0 0 0-.111.04-.378.228-2.247.341-6.539.338-12.876 0-2.6-.113-6.41-.338-11.434-.14-3.2-.21-4.604-.21-4.214a.55.55 0 0 1 .544-.621c.507 0 1.26-.045 2.26-.085.197 0 .597-.066 1.203-.15A7.808 7.808 0 0 1 98.82 0c.227 0 .338.16.338.484 0 .48-.035 1.208-.107 2.189a32.754 32.754 0 0 0-.102 2.22c0 .733-.036 1.83-.098 3.3a85.03 85.03 0 0 0-.093 3.294c0 .533.097.8.293.8.098 0 .205-.076.316-.232a7.495 7.495 0 0 1 6.148-2.886 8.739 8.739 0 0 1 7.068 3.264 11.422 11.422 0 0 1 2.533 7.508zm-4.767-.186a6.733 6.733 0 0 0-1.585-4.44 5.189 5.189 0 0 0-4.157-2.043 5.31 5.31 0 0 0-4.225 1.998 6.651 6.651 0 0 0-1.624 4.467 6.713 6.713 0 0 0 1.624 4.507 5.348 5.348 0 0 0 4.274 1.998 5.157 5.157 0 0 0 4.157-2.047 6.822 6.822 0 0 0 1.536-4.44zm12.878 5.198c-2.154-2.735-3.358-4.468-3.61-5.2-.196-.591-.294-1.968-.294-4.129 0-.533 0-1.332.022-2.41.023-1.08 0-1.883 0-2.434 0-.306.17-.444.508-.444.445 0 1.117.027 1.994.084.877.058 1.545.085 1.994.085.227 0 .339.146.339.444 0 .39 0 .981-.063 1.776-.062.795-.062 1.376-.062 1.776a31.03 31.03 0 0 0 .169 3.832c.083.539.85 1.87 2.301 3.996 1.452 2.125 2.342 3.185 2.671 3.18.241 0 1-1.037 2.279-3.109s1.962-3.361 2.048-3.867c.144-1.272.2-2.553.169-3.832 0-.409-.04-1.008-.124-1.799-.085-.79-.13-1.39-.13-1.776 0-.386.116-.528.339-.528.445 0 1.13-.031 2.038-.093a32.655 32.655 0 0 1 2.039-.094c.454 0 .632 1.706.632 5.116 0 2.375-.071 3.805-.209 4.298-.157.583-1.89 3.314-5.199 8.192-3.303 4.884-4.616 3.503-4.941 3.108" fill="#FF1212"/><path d="M130.808 27.945h-3.031a.889.889 0 0 0-.89.888v8.965c0 .49.398.888.89.888h3.031a.89.89 0 0 0 .891-.888v-8.965a.89.89 0 0 0-.891-.888zm-8.92-12.006a3.388 3.388 0 0 0 3.392-3.384 3.388 3.388 0 0 0-3.392-3.383 3.388 3.388 0 0 0-3.392 3.383 3.388 3.388 0 0 0 3.392 3.384zm14.195 0a3.387 3.387 0 0 0 3.392-3.384 3.387 3.387 0 0 0-3.392-3.383 3.388 3.388 0 0 0-3.392 3.383 3.388 3.388 0 0 0 3.392 3.384z" fill="#FF1212"/><path d="M129.29 39.586a3.513 3.513 0 0 0 3.517-3.508 3.513 3.513 0 0 0-3.517-3.508 3.513 3.513 0 0 0-3.517 3.508 3.513 3.513 0 0 0 3.517 3.508z" fill="#FF1212"/></svg>