<svg width="103" height="40" viewBox="0 0 103 40" fill="none" xmlns="http://www.w3.org/2000/svg"><path d="M18.985 16.171c0 1.98-.064 3.132-.191 3.455-.208.633-1.348 2.48-3.419 5.541-2.128 3.129-3.395 4.778-3.802 4.946a6.689 6.689 0 0 1-1.78.13 8.445 8.445 0 0 1-1.86-.13c-.392-.124-1.68-1.71-3.864-4.76-2.122-2.96-3.31-4.764-3.562-5.412C.17 19.053 0 17.685 0 15.838c0-.577 0-1.443.045-2.593.044-1.15.04-2.011.04-2.588a.407.407 0 0 1 .445-.444c.445 0 1.157 0 2.083.062.926.062 1.611.062 2.079.062.253 0 .378.142.378.444 0 .444-.027 1.11-.084 1.99a32.47 32.47 0 0 0-.085 1.988 26.86 26.86 0 0 0 .214 3.552c.068.533.782 1.839 2.14 3.917 1.36 2.078 2.201 3.114 2.525 3.108.296 0 1.064-1.018 2.301-3.055s1.884-3.293 1.94-3.77a26.5 26.5 0 0 0 .17-3.618c0-.445-.045-1.16-.138-2.087-.094-.928-.138-1.621-.138-2.083a.283.283 0 0 1 .32-.32c.446 0 1.144 0 2.048-.07a24.629 24.629 0 0 1 2.025-.076c.45 0 .677 1.945.677 5.914zm9.3-11.242c0 1.728-.965 2.591-2.894 2.588-1.929-.003-2.907-.865-2.933-2.588a2.392 2.392 0 0 1 .89-1.918 3.206 3.206 0 0 1 4.064 0 2.393 2.393 0 0 1 .873 1.918zm-.147 5.728c0 1.083-.067 2.713-.2 4.884-.134 2.171-.201 3.823-.201 4.915s.022 2.562.062 4.6.063 3.552.063 4.582c0 .298-.125.444-.379.444h-4.117c-.294 0-.445-.288-.445-.887 0-.968.025-2.425.075-4.37.05-1.944.076-3.405.076-4.391 0-1.092-.085-2.735-.245-4.929-.16-2.193-.254-3.818-.254-4.91 0-.24.149-.36.445-.36.393.012.784.047 1.171.106a9.61 9.61 0 0 0 1.193.103c.4-.01.798-.044 1.193-.103.395-.06.794-.095 1.193-.106.246 0 .37.14.37.422zM53.385.737c0 1.812-.081 4.525-.245 8.139-.163 3.614-.245 6.32-.245 8.117 0 5.544.12 9.743.361 12.597v.27c0 .143-.178.231-.57.276-.38.027-.76.027-1.14 0l-.823-.063a9.044 9.044 0 0 0-.93.063c-.41.04-.717.062-.93.062-.214 0-.312-.489-.348-1.461-.035-.972-.089-1.474-.156-1.487-.12.073-.23.166-.32.275-1.926 2.072-4.143 3.108-6.65 3.108a8.784 8.784 0 0 1-7.007-3.246 10.985 10.985 0 0 1-2.6-7.37c0-2.99.875-5.506 2.622-7.549a8.963 8.963 0 0 1 7.154-3.197 7.276 7.276 0 0 1 4.647 1.559 60.761 60.761 0 0 1 1.78 1.576.276.276 0 0 0 .17-.293V5.328c0-.444-.023-1.163-.063-2.104a57.892 57.892 0 0 1-.066-2.127c0-.338.115-.506.338-.506.52 0 1.295-.045 2.324-.138 1.028-.093 1.78-.138 2.3-.138.3-.022.397.129.397.422zm-5.28 19.164a6.837 6.837 0 0 0-1.562-4.44 5.148 5.148 0 0 0-4.14-2.043 5.353 5.353 0 0 0-4.282 2.02 6.805 6.805 0 0 0-1.607 4.543 6.402 6.402 0 0 0 1.67 4.4 5.34 5.34 0 0 0 4.22 1.98 5.174 5.174 0 0 0 4.18-2.002 6.85 6.85 0 0 0 1.522-4.458z" fill="#323131"/><path d="M78.438 19.941a10.964 10.964 0 0 1-2.596 7.269 8.649 8.649 0 0 1-6.882 3.286 8.55 8.55 0 0 1-4.834-1.39c-.563-.48-1.126-.95-1.687-1.412-.155.04-.258.444-.307 1.26-.049.818-.164 1.204-.347 1.204h-4.451c-.17 0-.254-.093-.254-.275 0 0 0-.111.04-.378.229-2.247.341-6.539.338-12.876 0-2.6-.112-6.41-.338-11.434-.14-3.2-.21-4.604-.21-4.214a.55.55 0 0 1 .544-.621c.507 0 1.26-.045 2.261-.085.196 0 .597-.066 1.202-.15A7.808 7.808 0 0 1 62.141 0c.227 0 .339.16.339.484 0 .48-.036 1.208-.107 2.189a32.754 32.754 0 0 0-.103 2.22c0 .733-.035 1.83-.098 3.3a84.871 84.871 0 0 0-.093 3.294c0 .533.098.8.294.8.098 0 .204-.076.316-.232a7.493 7.493 0 0 1 6.147-2.886 8.743 8.743 0 0 1 7.069 3.264 11.424 11.424 0 0 1 2.533 7.508zm-4.768-.186a6.735 6.735 0 0 0-1.585-4.44 5.182 5.182 0 0 0-4.157-2.043 5.312 5.312 0 0 0-4.224 1.998 6.65 6.65 0 0 0-1.625 4.467 6.712 6.712 0 0 0 1.625 4.507 5.34 5.34 0 0 0 4.273 1.998 5.16 5.16 0 0 0 4.157-2.047 6.819 6.819 0 0 0 1.536-4.44zm12.877 5.199c-2.154-2.735-3.357-4.468-3.61-5.2-.195-.592-.293-1.968-.293-4.129 0-.533 0-1.332.022-2.411s0-1.883 0-2.433c0-.307.169-.444.507-.444.445 0 1.117.026 1.995.084.876.058 1.544.085 1.994.085.227 0 .338.146.338.444 0 .39 0 .98-.062 1.776-.063.794-.063 1.376-.063 1.776-.023 1.28.034 2.559.17 3.832.083.538.85 1.87 2.3 3.996 1.452 2.125 2.342 3.185 2.672 3.179.24 0 1-1.036 2.279-3.108s1.961-3.361 2.047-3.868c.144-1.271.2-2.552.17-3.832 0-.408-.04-1.007-.125-1.798-.085-.79-.13-1.39-.13-1.776 0-.386.117-.528.34-.528.444 0 1.13-.031 2.038-.094a32.664 32.664 0 0 1 2.039-.093c.454 0 .632 1.705.632 5.115 0 2.376-.072 3.806-.21 4.299-.157.583-1.89 3.313-5.199 8.192-3.303 4.884-4.616 3.503-4.94 3.108" fill="#FF1212"/><path d="M94.129 27.942h-3.032a.89.89 0 0 0-.89.888v8.965c0 .49.399.888.89.888h3.032a.89.89 0 0 0 .89-.888V28.83a.89.89 0 0 0-.89-.888zM85.207 15.94a3.388 3.388 0 0 0 3.392-3.383 3.388 3.388 0 0 0-3.392-3.384 3.388 3.388 0 0 0-3.392 3.384 3.388 3.388 0 0 0 3.392 3.383zm14.196 0a3.388 3.388 0 0 0 3.392-3.383 3.388 3.388 0 0 0-3.392-3.384 3.388 3.388 0 0 0-3.392 3.384 3.388 3.388 0 0 0 3.392 3.383z" fill="#FF1212"/><path d="M92.61 39.589a3.512 3.512 0 0 0 3.517-3.508 3.512 3.512 0 0 0-3.517-3.508 3.512 3.512 0 0 0-3.516 3.508 3.512 3.512 0 0 0 3.516 3.508z" fill="#FF1212"/></svg>