<svg width="768" height="265" viewBox="0 0 768 265" fill="none" xmlns="http://www.w3.org/2000/svg"><g opacity=".35"><path d="M-288 264.278c30.822-20.199 155.716-126.762 380.133-126.762 280.521 0 437.31 248.3 860.325 43.182" stroke="url(#a)"/><path d="M-288 257.094c30.822-20.198 155.716-126.762 380.133-126.762 280.521 0 437.31 248.301 860.325 43.183" stroke="url(#b)"/><path d="M-288 249.911c30.822-20.199 155.716-126.763 380.133-126.763 280.521 0 437.31 248.301 860.325 43.183" stroke="url(#c)"/><path d="M-288 242.723c30.822-20.198 155.716-126.762 380.133-126.762 280.521 0 437.31 248.301 860.325 43.183" stroke="url(#d)"/><path d="M-288 235.539c30.822-20.198 155.716-126.762 380.133-126.762 280.521 0 437.31 248.301 860.325 43.183" stroke="url(#e)"/><path d="M-288 228.352c30.822-20.198 155.716-126.762 380.133-126.762 280.521 0 437.31 248.3 860.325 43.183" stroke="url(#f)"/><path d="M-288 221.168C-257.178 200.97-132.284 94.406 92.133 94.406c280.521 0 437.31 248.301 860.325 43.183" stroke="url(#g)"/><path d="M-288 213.985c30.822-20.199 155.716-126.762 380.133-126.762 280.521 0 437.31 248.3 860.325 43.182" stroke="url(#h)"/><path d="M-288 206.797c30.822-20.198 155.716-126.762 380.133-126.762 280.521 0 437.31 248.301 860.325 43.183" stroke="url(#i)"/><path d="M-288 199.614c30.822-20.199 155.716-126.762 380.133-126.762 280.521 0 437.31 248.3 860.325 43.182" stroke="url(#j)"/><path d="M-288 192.426c30.822-20.198 155.716-126.762 380.133-126.762 280.521 0 437.31 248.301 860.325 43.183" stroke="url(#k)"/><path d="M-288 185.243c30.822-20.199 155.716-126.762 380.133-126.762 280.521 0 437.31 248.3 860.325 43.182" stroke="url(#l)"/><path d="M-288 178.059c30.822-20.198 155.716-126.762 380.133-126.762 280.521 0 437.31 248.3 860.325 43.183" stroke="url(#m)"/><path d="M-288 170.872c30.822-20.199 155.716-126.763 380.133-126.763 280.521 0 437.31 248.301 860.325 43.183" stroke="url(#n)"/><path d="M-288 163.688C-257.178 143.49-132.284 36.926 92.133 36.926c280.521 0 437.31 248.3 860.325 43.183" stroke="url(#o)"/><path d="M-288 156.504c30.822-20.198 155.716-126.762 380.133-126.762 280.521 0 437.31 248.301 860.325 43.183" stroke="url(#p)"/><path d="M-288 149.317c30.822-20.199 155.716-126.762 380.133-126.762 280.521 0 437.31 248.3 860.325 43.182" stroke="url(#q)"/><path d="M-288 142.133c30.822-20.198 155.716-126.762 380.133-126.762 280.521 0 437.31 248.301 860.325 43.183" stroke="url(#r)"/><path d="M-288 134.946C-257.178 114.747-132.284 8.184 92.133 8.184c280.521 0 437.31 248.3 860.325 43.182" stroke="url(#s)"/><path d="M-288 127.762C-257.178 107.564-132.284 1 92.133 1c280.521 0 437.31 248.301 860.325 43.183" stroke="url(#t)"/></g><defs><linearGradient id="a" x1="332.229" y1="137.516" x2="332.229" y2="264.278" gradientUnits="userSpaceOnUse"><stop offset=".01" stop-color="#EAF2FB" stop-opacity=".91"/><stop offset="1" stop-color="#085ED0" stop-opacity=".12"/></linearGradient><linearGradient id="b" x1="332.229" y1="130.332" x2="332.229" y2="257.094" gradientUnits="userSpaceOnUse"><stop offset=".01" stop-color="#EAF2FB" stop-opacity=".91"/><stop offset="1" stop-color="#085ED0" stop-opacity=".12"/></linearGradient><linearGradient id="c" x1="332.229" y1="123.148" x2="332.229" y2="249.911" gradientUnits="userSpaceOnUse"><stop offset=".01" stop-color="#EAF2FB" stop-opacity=".91"/><stop offset="1" stop-color="#085ED0" stop-opacity=".12"/></linearGradient><linearGradient id="d" x1="332.229" y1="115.961" x2="332.229" y2="242.723" gradientUnits="userSpaceOnUse"><stop offset=".01" stop-color="#EAF2FB" stop-opacity=".91"/><stop offset="1" stop-color="#085ED0" stop-opacity=".12"/></linearGradient><linearGradient id="e" x1="332.229" y1="108.777" x2="332.229" y2="235.539" gradientUnits="userSpaceOnUse"><stop offset=".01" stop-color="#EAF2FB" stop-opacity=".91"/><stop offset="1" stop-color="#085ED0" stop-opacity=".12"/></linearGradient><linearGradient id="f" x1="332.229" y1="101.59" x2="332.229" y2="228.352" gradientUnits="userSpaceOnUse"><stop offset=".01" stop-color="#EAF2FB" stop-opacity=".91"/><stop offset="1" stop-color="#085ED0" stop-opacity=".12"/></linearGradient><linearGradient id="g" x1="332.229" y1="94.406" x2="332.229" y2="221.168" gradientUnits="userSpaceOnUse"><stop offset=".01" stop-color="#EAF2FB" stop-opacity=".91"/><stop offset="1" stop-color="#085ED0" stop-opacity=".12"/></linearGradient><linearGradient id="h" x1="332.229" y1="87.223" x2="332.229" y2="213.985" gradientUnits="userSpaceOnUse"><stop offset=".01" stop-color="#EAF2FB" stop-opacity=".91"/><stop offset="1" stop-color="#085ED0" stop-opacity=".12"/></linearGradient><linearGradient id="i" x1="332.229" y1="80.035" x2="332.229" y2="206.797" gradientUnits="userSpaceOnUse"><stop offset=".01" stop-color="#EAF2FB" stop-opacity=".91"/><stop offset="1" stop-color="#085ED0" stop-opacity=".12"/></linearGradient><linearGradient id="j" x1="332.229" y1="72.852" x2="332.229" y2="199.614" gradientUnits="userSpaceOnUse"><stop offset=".01" stop-color="#EAF2FB" stop-opacity=".91"/><stop offset="1" stop-color="#085ED0" stop-opacity=".12"/></linearGradient><linearGradient id="k" x1="332.229" y1="65.664" x2="332.229" y2="192.426" gradientUnits="userSpaceOnUse"><stop offset=".01" stop-color="#EAF2FB" stop-opacity=".91"/><stop offset="1" stop-color="#085ED0" stop-opacity=".12"/></linearGradient><linearGradient id="l" x1="332.229" y1="58.48" x2="332.229" y2="185.243" gradientUnits="userSpaceOnUse"><stop offset=".01" stop-color="#EAF2FB" stop-opacity=".91"/><stop offset="1" stop-color="#085ED0" stop-opacity=".12"/></linearGradient><linearGradient id="m" x1="332.229" y1="51.297" x2="332.229" y2="178.059" gradientUnits="userSpaceOnUse"><stop offset=".01" stop-color="#EAF2FB" stop-opacity=".91"/><stop offset="1" stop-color="#085ED0" stop-opacity=".12"/></linearGradient><linearGradient id="n" x1="332.229" y1="44.109" x2="332.229" y2="170.872" gradientUnits="userSpaceOnUse"><stop offset=".01" stop-color="#EAF2FB" stop-opacity=".91"/><stop offset="1" stop-color="#085ED0" stop-opacity=".12"/></linearGradient><linearGradient id="o" x1="332.229" y1="36.926" x2="332.229" y2="163.688" gradientUnits="userSpaceOnUse"><stop offset=".01" stop-color="#EAF2FB" stop-opacity=".91"/><stop offset="1" stop-color="#085ED0" stop-opacity=".12"/></linearGradient><linearGradient id="p" x1="332.229" y1="29.742" x2="332.229" y2="156.504" gradientUnits="userSpaceOnUse"><stop offset=".01" stop-color="#EAF2FB" stop-opacity=".91"/><stop offset="1" stop-color="#085ED0" stop-opacity=".12"/></linearGradient><linearGradient id="q" x1="332.229" y1="22.555" x2="332.229" y2="149.317" gradientUnits="userSpaceOnUse"><stop offset=".01" stop-color="#EAF2FB" stop-opacity=".91"/><stop offset="1" stop-color="#085ED0" stop-opacity=".12"/></linearGradient><linearGradient id="r" x1="332.229" y1="15.371" x2="332.229" y2="142.133" gradientUnits="userSpaceOnUse"><stop offset=".01" stop-color="#EAF2FB" stop-opacity=".91"/><stop offset="1" stop-color="#085ED0" stop-opacity=".12"/></linearGradient><linearGradient id="s" x1="332.229" y1="8.184" x2="332.229" y2="134.946" gradientUnits="userSpaceOnUse"><stop offset=".01" stop-color="#EAF2FB" stop-opacity=".91"/><stop offset="1" stop-color="#085ED0" stop-opacity=".12"/></linearGradient><linearGradient id="t" x1="332.229" y1="1" x2="332.229" y2="127.762" gradientUnits="userSpaceOnUse"><stop offset=".01" stop-color="#EAF2FB" stop-opacity=".91"/><stop offset="1" stop-color="#085ED0" stop-opacity=".12"/></linearGradient></defs></svg>