<svg width="768" height="265" viewBox="0 0 768 265" fill="none" xmlns="http://www.w3.org/2000/svg"><path d="M-93 263.998c30.81-15.199 155.659-95.389 379.993-95.389 280.418 0 437.148 186.847 860.007 32.495M-93 96.389C-62.19 81.189 62.659 1 286.993 1 567.411 1 724.141 187.847 1147 33.495" stroke="#fff"/><path d="M-93 258.596c30.81-15.199 155.659-95.389 379.993-95.389 280.417 0 437.148 186.847 860.007 32.495" stroke="#fff"/><path d="M-93 253.186c30.81-15.2 155.659-95.389 379.993-95.389 280.417 0 437.148 186.847 860.007 32.495" stroke="#fff"/><path d="M-93 247.779c30.81-15.199 155.659-95.388 379.993-95.388 280.417 0 437.148 186.847 860.007 32.495" stroke="#fff"/><path d="M-93 242.373c30.81-15.199 155.659-95.389 379.993-95.389 280.417 0 437.148 186.847 860.007 32.495" stroke="#fff"/><path d="M-93 236.967c30.81-15.199 155.659-95.389 379.993-95.389 280.417 0 437.148 186.847 860.007 32.495" stroke="#fff"/><path d="M-93 231.561c30.81-15.2 155.659-95.389 379.993-95.389 280.417 0 437.148 186.847 860.007 32.495" stroke="#fff"/><path d="M-93 226.154c30.81-15.199 155.659-95.388 379.993-95.388 280.417 0 437.148 186.847 860.007 32.495" stroke="#fff"/><path d="M-93 220.748c30.81-15.199 155.659-95.389 379.993-95.389 280.417 0 437.148 186.847 860.007 32.495" stroke="#fff"/><path d="M-93 215.338c30.81-15.199 155.659-95.389 379.993-95.389 280.417 0 437.148 186.847 860.007 32.495" stroke="#fff"/><path d="M-93 209.932c30.81-15.199 155.659-95.389 379.993-95.389 280.417 0 437.148 186.847 860.007 32.495" stroke="#fff"/><path d="M-93 204.526c30.81-15.2 155.659-95.389 379.993-95.389 280.417 0 437.148 186.847 860.007 32.495" stroke="#fff"/><path d="M-93 199.119c30.81-15.199 155.659-95.389 379.993-95.389 280.417 0 437.148 186.847 860.007 32.496" stroke="#fff"/><path d="M-93 193.713c30.81-15.199 155.659-95.389 379.993-95.389 280.417 0 437.148 186.847 860.007 32.495" stroke="#fff"/><path d="M-93 188.303c30.81-15.199 155.659-95.389 379.993-95.389 280.417 0 437.148 186.847 860.007 32.495" stroke="#fff"/><path d="M-93 182.897c30.81-15.2 155.659-95.39 379.993-95.39 280.417 0 437.148 186.848 860.007 32.496" stroke="#fff"/><path d="M-93 177.49c30.81-15.199 155.659-95.388 379.993-95.388 280.417 0 437.148 186.846 860.007 32.495" stroke="#fff"/><path d="M-93 172.084c30.81-15.199 155.659-95.389 379.993-95.389 280.417 0 437.148 186.847 860.007 32.495" stroke="#fff"/><path d="M-93 166.678c30.81-15.199 155.659-95.389 379.993-95.389 280.417 0 437.148 186.847 860.007 32.495" stroke="#fff"/><path d="M-93 161.272c30.81-15.2 155.659-95.39 379.993-95.39 280.417 0 437.148 186.848 860.007 32.496" stroke="#fff"/><path d="M-93 155.865c30.81-15.199 155.659-95.388 379.993-95.388 280.417 0 437.148 186.846 860.007 32.495" stroke="#fff"/><path d="M-93 150.459C-62.19 135.26 62.659 55.07 286.993 55.07c280.417 0 437.148 186.847 860.007 32.495" stroke="#fff"/><path d="M-93 145.049C-62.19 129.85 62.659 49.66 286.993 49.66c280.417 0 437.148 186.847 860.007 32.495" stroke="#fff"/><path d="M-93 139.643c30.81-15.2 155.659-95.39 379.993-95.39 280.417 0 437.148 186.848 860.007 32.496" stroke="#fff"/><path d="M-93 134.237c30.81-15.2 155.659-95.39 379.993-95.39 280.417 0 437.148 186.848 860.007 32.496" stroke="#fff"/><path d="M-93 128.83c30.81-15.199 155.659-95.389 379.993-95.389 280.417 0 437.148 186.847 860.007 32.495" stroke="#fff"/><path d="M-93 123.424c30.81-15.199 155.659-95.389 379.993-95.389 280.417 0 437.148 186.847 860.007 32.495" stroke="#fff"/><path d="M-93 118.018c30.81-15.2 155.659-95.39 379.993-95.39 280.417 0 437.148 186.848 860.007 32.496" stroke="#fff"/><path d="M-93 112.608c30.81-15.2 155.659-95.39 379.993-95.39 280.417 0 437.148 186.848 860.007 32.496" stroke="#fff"/><path d="M-93 107.201c30.81-15.199 155.659-95.388 379.993-95.388 280.417 0 437.148 186.846 860.007 32.495" stroke="#fff"/><path d="M-93 101.795c30.81-15.2 155.659-95.389 379.993-95.389 280.417 0 437.148 186.847 860.007 32.495" stroke="#fff"/></svg>