<svg width="1920" height="460" viewBox="0 0 1920 460" fill="none" xmlns="http://www.w3.org/2000/svg"><g opacity=".7" stroke-opacity=".25"><path d="M2242.07 477c-57.67-27.509-291.36-172.643-711.28-172.643-524.9 0-818.268 338.172-1609.79 58.813" stroke="url(#a)"/><path d="M2242.07 173.643C2184.4 146.134 1950.71 1 1530.79 1 1005.89 1 712.522 339.171-79 59.812" stroke="url(#b)"/><path d="M2242.07 467.215c-57.67-27.509-291.36-172.643-711.28-172.643-524.9 0-818.268 338.172-1609.79 58.813" stroke="url(#c)"/><path d="M2242.07 457.43c-57.67-27.509-291.36-172.643-711.28-172.643-524.9 0-818.268 338.171-1609.79 58.812" stroke="url(#d)"/><path d="M2242.07 447.643C2184.4 420.134 1950.71 275 1530.79 275 1005.89 275 712.522 613.171-79 333.812" stroke="url(#e)"/><path d="M2242.07 437.858c-57.67-27.509-291.36-172.643-711.28-172.643-524.9 0-818.268 338.171-1609.79 58.812" stroke="url(#f)"/><path d="M2242.07 428.073c-57.67-27.51-291.36-172.643-711.28-172.643-524.9 0-818.268 338.171-1609.79 58.812" stroke="url(#g)"/><path d="M2242.07 418.287c-57.67-27.509-291.36-172.642-711.28-172.642-524.9 0-818.268 338.171-1609.79 58.812" stroke="url(#h)"/><path d="M2242.07 408.502c-57.67-27.509-291.36-172.643-711.28-172.643-524.9 0-818.268 338.172-1609.79 58.813" stroke="url(#i)"/><path d="M2242.07 398.717c-57.67-27.509-291.36-172.643-711.28-172.643-524.9 0-818.268 338.171-1609.79 58.813" stroke="url(#j)"/><path d="M2242.07 388.93c-57.67-27.509-291.36-172.643-711.28-172.643-524.9 0-818.268 338.171-1609.79 58.812" stroke="url(#k)"/><path d="M2242.07 379.143C2184.4 351.634 1950.71 206.5 1530.79 206.5c-524.9 0-818.268 338.171-1609.79 58.812" stroke="url(#l)"/><path d="M2242.07 369.358c-57.67-27.509-291.36-172.643-711.28-172.643-524.9 0-818.268 338.171-1609.79 58.812" stroke="url(#m)"/><path d="M2242.07 359.573c-57.67-27.51-291.36-172.643-711.28-172.643-524.9 0-818.268 338.171-1609.79 58.812" stroke="url(#n)"/><path d="M2242.07 349.785c-57.67-27.509-291.36-172.642-711.28-172.642-524.9 0-818.268 338.171-1609.79 58.812" stroke="url(#o)"/><path d="M2242.07 339.998c-57.67-27.509-291.36-172.643-711.28-172.643-524.9 0-818.268 338.172-1609.79 58.813" stroke="url(#p)"/><path d="M2242.07 330.215c-57.67-27.509-291.36-172.643-711.28-172.643-524.9 0-818.268 338.172-1609.79 58.813" stroke="url(#q)"/><path d="M2242.07 320.43c-57.67-27.509-291.36-172.643-711.28-172.643-524.9 0-818.268 338.171-1609.79 58.812" stroke="url(#r)"/><path d="M2242.07 310.643C2184.4 283.134 1950.71 138 1530.79 138 1005.89 138 712.522 476.171-79 196.812" stroke="url(#s)"/><path d="M2242.07 300.858c-57.67-27.509-291.36-172.643-711.28-172.643-524.9 0-818.268 338.171-1609.79 58.812" stroke="url(#t)"/><path d="M2242.07 291.071c-57.67-27.509-291.36-172.643-711.28-172.643-524.9 0-818.268 338.171-1609.79 58.812" stroke="url(#u)"/><path d="M2242.07 281.287c-57.67-27.509-291.36-172.642-711.28-172.642-524.9 0-818.268 338.171-1609.79 58.812" stroke="url(#v)"/><path d="M2242.07 271.502c-57.67-27.509-291.36-172.643-711.28-172.643-524.9 0-818.268 338.172-1609.79 58.813" stroke="url(#w)"/><path d="M2242.07 261.713C2184.4 234.204 1950.71 89.07 1530.79 89.07c-524.9 0-818.268 338.172-1609.79 58.813" stroke="url(#x)"/><path d="M2242.07 251.928c-57.67-27.509-291.36-172.643-711.28-172.643-524.9 0-818.268 338.171-1609.79 58.813" stroke="url(#y)"/><path d="M2242.07 242.145c-57.67-27.509-291.36-172.643-711.28-172.643-524.9 0-818.268 338.171-1609.79 58.812" stroke="url(#z)"/><path d="M2242.07 232.356c-57.67-27.509-291.36-172.643-711.28-172.643-524.9 0-818.268 338.171-1609.79 58.812" stroke="url(#A)"/><path d="M2242.07 222.573c-57.67-27.51-291.36-172.643-711.28-172.643-524.9 0-818.268 338.171-1609.79 58.812" stroke="url(#B)"/><path d="M2242.07 212.787c-57.67-27.509-291.36-172.643-711.28-172.643-524.9 0-818.268 338.172-1609.79 58.813" stroke="url(#C)"/><path d="M2242.07 202.998c-57.67-27.509-291.36-172.642-711.28-172.642-524.9 0-818.268 338.171-1609.79 58.812" stroke="url(#D)"/><path d="M2242.07 193.215c-57.67-27.509-291.36-172.643-711.28-172.643-524.9 0-818.268 338.172-1609.79 58.813" stroke="url(#E)"/><path d="M2242.07 183.428c-57.67-27.509-291.36-172.643-711.28-172.643-524.9 0-818.268 338.171-1609.79 58.813" stroke="url(#F)"/></g><defs><linearGradient id="a" x1="1081.54" y1="304.357" x2="1081.54" y2="477" gradientUnits="userSpaceOnUse"><stop stop-color="#085ED0" stop-opacity=".76"/><stop offset="1" stop-color="#085ED0" stop-opacity=".39"/></linearGradient><linearGradient id="b" x1="1081.54" y1="1" x2="1081.54" y2="173.643" gradientUnits="userSpaceOnUse"><stop stop-color="#085ED0" stop-opacity=".76"/><stop offset="1" stop-color="#085ED0" stop-opacity=".39"/></linearGradient><linearGradient id="c" x1="1081.54" y1="294.572" x2="1081.54" y2="467.215" gradientUnits="userSpaceOnUse"><stop stop-color="#085ED0" stop-opacity=".76"/><stop offset="1" stop-color="#085ED0" stop-opacity=".39"/></linearGradient><linearGradient id="d" x1="1081.54" y1="284.787" x2="1081.54" y2="457.43" gradientUnits="userSpaceOnUse"><stop stop-color="#085ED0" stop-opacity=".76"/><stop offset="1" stop-color="#085ED0" stop-opacity=".39"/></linearGradient><linearGradient id="e" x1="1081.54" y1="275" x2="1081.54" y2="447.643" gradientUnits="userSpaceOnUse"><stop stop-color="#085ED0" stop-opacity=".76"/><stop offset="1" stop-color="#085ED0" stop-opacity=".39"/></linearGradient><linearGradient id="f" x1="1081.54" y1="265.215" x2="1081.54" y2="437.858" gradientUnits="userSpaceOnUse"><stop stop-color="#085ED0" stop-opacity=".76"/><stop offset="1" stop-color="#085ED0" stop-opacity=".39"/></linearGradient><linearGradient id="g" x1="1081.54" y1="255.43" x2="1081.54" y2="428.073" gradientUnits="userSpaceOnUse"><stop stop-color="#085ED0" stop-opacity=".76"/><stop offset="1" stop-color="#085ED0" stop-opacity=".39"/></linearGradient><linearGradient id="h" x1="1081.54" y1="245.645" x2="1081.54" y2="418.287" gradientUnits="userSpaceOnUse"><stop stop-color="#085ED0" stop-opacity=".76"/><stop offset="1" stop-color="#085ED0" stop-opacity=".39"/></linearGradient><linearGradient id="i" x1="1081.54" y1="235.859" x2="1081.54" y2="408.502" gradientUnits="userSpaceOnUse"><stop stop-color="#085ED0" stop-opacity=".76"/><stop offset="1" stop-color="#085ED0" stop-opacity=".39"/></linearGradient><linearGradient id="j" x1="1081.54" y1="226.074" x2="1081.54" y2="398.717" gradientUnits="userSpaceOnUse"><stop stop-color="#085ED0" stop-opacity=".76"/><stop offset="1" stop-color="#085ED0" stop-opacity=".39"/></linearGradient><linearGradient id="k" x1="1081.54" y1="216.287" x2="1081.54" y2="388.93" gradientUnits="userSpaceOnUse"><stop stop-color="#085ED0" stop-opacity=".76"/><stop offset="1" stop-color="#085ED0" stop-opacity=".39"/></linearGradient><linearGradient id="l" x1="1081.54" y1="206.5" x2="1081.54" y2="379.143" gradientUnits="userSpaceOnUse"><stop stop-color="#085ED0" stop-opacity=".76"/><stop offset="1" stop-color="#085ED0" stop-opacity=".39"/></linearGradient><linearGradient id="m" x1="1081.54" y1="196.715" x2="1081.54" y2="369.358" gradientUnits="userSpaceOnUse"><stop stop-color="#085ED0" stop-opacity=".76"/><stop offset="1" stop-color="#085ED0" stop-opacity=".39"/></linearGradient><linearGradient id="n" x1="1081.54" y1="186.93" x2="1081.54" y2="359.573" gradientUnits="userSpaceOnUse"><stop stop-color="#085ED0" stop-opacity=".76"/><stop offset="1" stop-color="#085ED0" stop-opacity=".39"/></linearGradient><linearGradient id="o" x1="1081.54" y1="177.143" x2="1081.54" y2="349.785" gradientUnits="userSpaceOnUse"><stop stop-color="#085ED0" stop-opacity=".76"/><stop offset="1" stop-color="#085ED0" stop-opacity=".39"/></linearGradient><linearGradient id="p" x1="1081.54" y1="167.355" x2="1081.54" y2="339.998" gradientUnits="userSpaceOnUse"><stop stop-color="#085ED0" stop-opacity=".76"/><stop offset="1" stop-color="#085ED0" stop-opacity=".39"/></linearGradient><linearGradient id="q" x1="1081.54" y1="157.572" x2="1081.54" y2="330.215" gradientUnits="userSpaceOnUse"><stop stop-color="#085ED0" stop-opacity=".76"/><stop offset="1" stop-color="#085ED0" stop-opacity=".39"/></linearGradient><linearGradient id="r" x1="1081.54" y1="147.787" x2="1081.54" y2="320.43" gradientUnits="userSpaceOnUse"><stop stop-color="#085ED0" stop-opacity=".76"/><stop offset="1" stop-color="#085ED0" stop-opacity=".39"/></linearGradient><linearGradient id="s" x1="1081.54" y1="138" x2="1081.54" y2="310.643" gradientUnits="userSpaceOnUse"><stop stop-color="#085ED0" stop-opacity=".76"/><stop offset="1" stop-color="#085ED0" stop-opacity=".39"/></linearGradient><linearGradient id="t" x1="1081.54" y1="128.215" x2="1081.54" y2="300.858" gradientUnits="userSpaceOnUse"><stop stop-color="#085ED0" stop-opacity=".76"/><stop offset="1" stop-color="#085ED0" stop-opacity=".39"/></linearGradient><linearGradient id="u" x1="1081.54" y1="118.428" x2="1081.54" y2="291.071" gradientUnits="userSpaceOnUse"><stop stop-color="#085ED0" stop-opacity=".76"/><stop offset="1" stop-color="#085ED0" stop-opacity=".39"/></linearGradient><linearGradient id="v" x1="1081.54" y1="108.645" x2="1081.54" y2="281.287" gradientUnits="userSpaceOnUse"><stop stop-color="#085ED0" stop-opacity=".76"/><stop offset="1" stop-color="#085ED0" stop-opacity=".39"/></linearGradient><linearGradient id="w" x1="1081.54" y1="98.859" x2="1081.54" y2="271.502" gradientUnits="userSpaceOnUse"><stop stop-color="#085ED0" stop-opacity=".76"/><stop offset="1" stop-color="#085ED0" stop-opacity=".39"/></linearGradient><linearGradient id="x" x1="1081.54" y1="89.07" x2="1081.54" y2="261.713" gradientUnits="userSpaceOnUse"><stop stop-color="#085ED0" stop-opacity=".76"/><stop offset="1" stop-color="#085ED0" stop-opacity=".39"/></linearGradient><linearGradient id="y" x1="1081.54" y1="79.285" x2="1081.54" y2="251.928" gradientUnits="userSpaceOnUse"><stop stop-color="#085ED0" stop-opacity=".76"/><stop offset="1" stop-color="#085ED0" stop-opacity=".39"/></linearGradient><linearGradient id="z" x1="1081.54" y1="69.502" x2="1081.54" y2="242.145" gradientUnits="userSpaceOnUse"><stop stop-color="#085ED0" stop-opacity=".76"/><stop offset="1" stop-color="#085ED0" stop-opacity=".39"/></linearGradient><linearGradient id="A" x1="1081.54" y1="59.713" x2="1081.54" y2="232.356" gradientUnits="userSpaceOnUse"><stop stop-color="#085ED0" stop-opacity=".76"/><stop offset="1" stop-color="#085ED0" stop-opacity=".39"/></linearGradient><linearGradient id="B" x1="1081.54" y1="49.93" x2="1081.54" y2="222.573" gradientUnits="userSpaceOnUse"><stop stop-color="#085ED0" stop-opacity=".76"/><stop offset="1" stop-color="#085ED0" stop-opacity=".39"/></linearGradient><linearGradient id="C" x1="1081.54" y1="40.145" x2="1081.54" y2="212.787" gradientUnits="userSpaceOnUse"><stop stop-color="#085ED0" stop-opacity=".76"/><stop offset="1" stop-color="#085ED0" stop-opacity=".39"/></linearGradient><linearGradient id="D" x1="1081.54" y1="30.355" x2="1081.54" y2="202.998" gradientUnits="userSpaceOnUse"><stop stop-color="#085ED0" stop-opacity=".76"/><stop offset="1" stop-color="#085ED0" stop-opacity=".39"/></linearGradient><linearGradient id="E" x1="1081.54" y1="20.572" x2="1081.54" y2="193.215" gradientUnits="userSpaceOnUse"><stop stop-color="#085ED0" stop-opacity=".76"/><stop offset="1" stop-color="#085ED0" stop-opacity=".39"/></linearGradient><linearGradient id="F" x1="1081.54" y1="10.785" x2="1081.54" y2="183.428" gradientUnits="userSpaceOnUse"><stop stop-color="#085ED0" stop-opacity=".76"/><stop offset="1" stop-color="#085ED0" stop-opacity=".39"/></linearGradient></defs></svg>