<svg width="1920" height="440" viewBox="0 0 1920 440" fill="none" xmlns="http://www.w3.org/2000/svg"><g opacity=".35"><path d="M-109 439.001c50.529-25.313 255.279-158.86 623.185-158.86 459.883 0 716.915 311.174 1410.405 54.117" stroke="url(#a)"/><path d="M-109 159.86C-58.471 134.547 146.279 1 514.185 1 974.068 1 1231.1 312.174 1924.59 55.117" stroke="url(#b)"/><path d="M-109 429.995c50.529-25.313 255.279-158.86 623.185-158.86 459.883 0 716.915 311.174 1410.405 54.117" stroke="url(#c)"/><path d="M-109 420.991c50.529-25.313 255.279-158.86 623.185-158.86 459.883 0 716.915 311.174 1410.405 54.117" stroke="url(#d)"/><path d="M-109 411.987c50.529-25.313 255.279-158.86 623.185-158.86 459.883 0 716.915 311.174 1410.405 54.117" stroke="url(#e)"/><path d="M-109 402.981c50.529-25.313 255.279-158.86 623.185-158.86 459.883 0 716.915 311.174 1410.405 54.117" stroke="url(#f)"/><path d="M-109 393.977c50.529-25.313 255.279-158.86 623.185-158.86 459.883 0 716.915 311.174 1410.405 54.117" stroke="url(#g)"/><path d="M-109 384.973c50.529-25.312 255.279-158.86 623.185-158.86 459.883 0 716.915 311.174 1410.405 54.117" stroke="url(#h)"/><path d="M-109 375.968c50.529-25.313 255.279-158.861 623.185-158.861 459.883 0 716.915 311.174 1410.405 54.118" stroke="url(#i)"/><path d="M-109 366.964c50.529-25.313 255.279-158.86 623.185-158.86 459.883 0 716.915 311.173 1410.405 54.117" stroke="url(#j)"/><path d="M-109 357.96c50.529-25.313 255.279-158.86 623.185-158.86 459.883 0 716.915 311.174 1410.405 54.117" stroke="url(#k)"/><path d="M-109 348.954c50.529-25.313 255.279-158.86 623.185-158.86 459.883 0 716.915 311.174 1410.405 54.117" stroke="url(#l)"/><path d="M-109 339.95c50.529-25.313 255.279-158.86 623.185-158.86 459.883 0 716.915 311.174 1410.405 54.117" stroke="url(#m)"/><path d="M-109 330.946c50.529-25.313 255.279-158.86 623.185-158.86 459.883 0 716.915 311.174 1410.405 54.117" stroke="url(#n)"/><path d="M-109 321.942c50.529-25.313 255.279-158.86 623.185-158.86 459.883 0 716.915 311.174 1410.405 54.117" stroke="url(#o)"/><path d="M-109 312.936c50.529-25.313 255.279-158.86 623.185-158.86 459.883 0 716.915 311.174 1410.405 54.117" stroke="url(#p)"/><path d="M-109 303.932c50.529-25.312 255.279-158.86 623.185-158.86 459.883 0 716.915 311.174 1410.405 54.117" stroke="url(#q)"/><path d="M-109 294.929c50.529-25.313 255.279-158.861 623.185-158.861 459.883 0 716.915 311.174 1410.405 54.118" stroke="url(#r)"/><path d="M-109 285.923c50.529-25.313 255.279-158.86 623.185-158.86 459.883 0 716.915 311.173 1410.405 54.117" stroke="url(#s)"/><path d="M-109 276.919c50.529-25.313 255.279-158.86 623.185-158.86 459.883 0 716.915 311.173 1410.405 54.117" stroke="url(#t)"/><path d="M-109 267.915c50.529-25.313 255.279-158.86 623.185-158.86 459.883 0 716.915 311.174 1410.405 54.117" stroke="url(#u)"/><path d="M-109 258.909c50.529-25.313 255.279-158.86 623.185-158.86 459.883 0 716.915 311.174 1410.405 54.117" stroke="url(#v)"/><path d="M-109 249.905c50.529-25.313 255.279-158.86 623.185-158.86 459.883 0 716.915 311.174 1410.405 54.117" stroke="url(#w)"/><path d="M-109 240.901c50.529-25.313 255.279-158.86 623.185-158.86 459.883 0 716.915 311.174 1410.405 54.117" stroke="url(#x)"/><path d="M-109 231.897c50.529-25.313 255.279-158.86 623.185-158.86 459.883 0 716.915 311.174 1410.405 54.117" stroke="url(#y)"/><path d="M-109 222.891c50.529-25.312 255.279-158.86 623.185-158.86 459.883 0 716.915 311.174 1410.405 54.117" stroke="url(#z)"/><path d="M-109 213.888c50.529-25.313 255.279-158.86 623.185-158.86 459.883 0 716.915 311.173 1410.405 54.117" stroke="url(#A)"/><path d="M-109 204.884c50.529-25.313 255.279-158.86 623.185-158.86 459.883 0 716.915 311.173 1410.405 54.117" stroke="url(#B)"/><path d="M-109 195.878c50.529-25.313 255.279-158.86 623.185-158.86 459.883 0 716.915 311.173 1410.405 54.117" stroke="url(#C)"/><path d="M-109 186.874c50.529-25.313 255.279-158.86 623.185-158.86 459.883 0 716.915 311.174 1410.405 54.117" stroke="url(#D)"/><path d="M-109 177.868c50.529-25.313 255.279-158.86 623.185-158.86 459.883 0 716.915 311.174 1410.405 54.117" stroke="url(#E)"/><path d="M-109 168.864c50.529-25.313 255.279-158.86 623.185-158.86 459.883 0 716.915 311.174 1410.405 54.117" stroke="url(#F)"/></g><defs><linearGradient id="a" x1="907.795" y1="280.141" x2="907.795" y2="439.001" gradientUnits="userSpaceOnUse"><stop offset=".01" stop-color="#EAF2FB" stop-opacity=".91"/><stop offset="1" stop-color="#085ED0" stop-opacity=".12"/></linearGradient><linearGradient id="b" x1="907.795" y1="1" x2="907.795" y2="159.86" gradientUnits="userSpaceOnUse"><stop offset=".01" stop-color="#EAF2FB" stop-opacity=".91"/><stop offset="1" stop-color="#085ED0" stop-opacity=".12"/></linearGradient><linearGradient id="c" x1="907.795" y1="271.135" x2="907.795" y2="429.995" gradientUnits="userSpaceOnUse"><stop offset=".01" stop-color="#EAF2FB" stop-opacity=".91"/><stop offset="1" stop-color="#085ED0" stop-opacity=".12"/></linearGradient><linearGradient id="d" x1="907.795" y1="262.131" x2="907.795" y2="420.991" gradientUnits="userSpaceOnUse"><stop offset=".01" stop-color="#EAF2FB" stop-opacity=".91"/><stop offset="1" stop-color="#085ED0" stop-opacity=".12"/></linearGradient><linearGradient id="e" x1="907.795" y1="253.127" x2="907.795" y2="411.987" gradientUnits="userSpaceOnUse"><stop offset=".01" stop-color="#EAF2FB" stop-opacity=".91"/><stop offset="1" stop-color="#085ED0" stop-opacity=".12"/></linearGradient><linearGradient id="f" x1="907.795" y1="244.121" x2="907.795" y2="402.981" gradientUnits="userSpaceOnUse"><stop offset=".01" stop-color="#EAF2FB" stop-opacity=".91"/><stop offset="1" stop-color="#085ED0" stop-opacity=".12"/></linearGradient><linearGradient id="g" x1="907.795" y1="235.117" x2="907.795" y2="393.977" gradientUnits="userSpaceOnUse"><stop offset=".01" stop-color="#EAF2FB" stop-opacity=".91"/><stop offset="1" stop-color="#085ED0" stop-opacity=".12"/></linearGradient><linearGradient id="h" x1="907.795" y1="226.113" x2="907.795" y2="384.973" gradientUnits="userSpaceOnUse"><stop offset=".01" stop-color="#EAF2FB" stop-opacity=".91"/><stop offset="1" stop-color="#085ED0" stop-opacity=".12"/></linearGradient><linearGradient id="i" x1="907.795" y1="217.107" x2="907.795" y2="375.968" gradientUnits="userSpaceOnUse"><stop offset=".01" stop-color="#EAF2FB" stop-opacity=".91"/><stop offset="1" stop-color="#085ED0" stop-opacity=".12"/></linearGradient><linearGradient id="j" x1="907.795" y1="208.104" x2="907.795" y2="366.964" gradientUnits="userSpaceOnUse"><stop offset=".01" stop-color="#EAF2FB" stop-opacity=".91"/><stop offset="1" stop-color="#085ED0" stop-opacity=".12"/></linearGradient><linearGradient id="k" x1="907.795" y1="199.1" x2="907.795" y2="357.96" gradientUnits="userSpaceOnUse"><stop offset=".01" stop-color="#EAF2FB" stop-opacity=".91"/><stop offset="1" stop-color="#085ED0" stop-opacity=".12"/></linearGradient><linearGradient id="l" x1="907.795" y1="190.094" x2="907.795" y2="348.954" gradientUnits="userSpaceOnUse"><stop offset=".01" stop-color="#EAF2FB" stop-opacity=".91"/><stop offset="1" stop-color="#085ED0" stop-opacity=".12"/></linearGradient><linearGradient id="m" x1="907.795" y1="181.09" x2="907.795" y2="339.95" gradientUnits="userSpaceOnUse"><stop offset=".01" stop-color="#EAF2FB" stop-opacity=".91"/><stop offset="1" stop-color="#085ED0" stop-opacity=".12"/></linearGradient><linearGradient id="n" x1="907.795" y1="172.086" x2="907.795" y2="330.946" gradientUnits="userSpaceOnUse"><stop offset=".01" stop-color="#EAF2FB" stop-opacity=".91"/><stop offset="1" stop-color="#085ED0" stop-opacity=".12"/></linearGradient><linearGradient id="o" x1="907.795" y1="163.082" x2="907.795" y2="321.942" gradientUnits="userSpaceOnUse"><stop offset=".01" stop-color="#EAF2FB" stop-opacity=".91"/><stop offset="1" stop-color="#085ED0" stop-opacity=".12"/></linearGradient><linearGradient id="p" x1="907.795" y1="154.076" x2="907.795" y2="312.936" gradientUnits="userSpaceOnUse"><stop offset=".01" stop-color="#EAF2FB" stop-opacity=".91"/><stop offset="1" stop-color="#085ED0" stop-opacity=".12"/></linearGradient><linearGradient id="q" x1="907.795" y1="145.072" x2="907.795" y2="303.932" gradientUnits="userSpaceOnUse"><stop offset=".01" stop-color="#EAF2FB" stop-opacity=".91"/><stop offset="1" stop-color="#085ED0" stop-opacity=".12"/></linearGradient><linearGradient id="r" x1="907.795" y1="136.068" x2="907.795" y2="294.929" gradientUnits="userSpaceOnUse"><stop offset=".01" stop-color="#EAF2FB" stop-opacity=".91"/><stop offset="1" stop-color="#085ED0" stop-opacity=".12"/></linearGradient><linearGradient id="s" x1="907.795" y1="127.063" x2="907.795" y2="285.923" gradientUnits="userSpaceOnUse"><stop offset=".01" stop-color="#EAF2FB" stop-opacity=".91"/><stop offset="1" stop-color="#085ED0" stop-opacity=".12"/></linearGradient><linearGradient id="t" x1="907.795" y1="118.059" x2="907.795" y2="276.919" gradientUnits="userSpaceOnUse"><stop offset=".01" stop-color="#EAF2FB" stop-opacity=".91"/><stop offset="1" stop-color="#085ED0" stop-opacity=".12"/></linearGradient><linearGradient id="u" x1="907.795" y1="109.055" x2="907.795" y2="267.915" gradientUnits="userSpaceOnUse"><stop offset=".01" stop-color="#EAF2FB" stop-opacity=".91"/><stop offset="1" stop-color="#085ED0" stop-opacity=".12"/></linearGradient><linearGradient id="v" x1="907.795" y1="100.049" x2="907.795" y2="258.909" gradientUnits="userSpaceOnUse"><stop offset=".01" stop-color="#EAF2FB" stop-opacity=".91"/><stop offset="1" stop-color="#085ED0" stop-opacity=".12"/></linearGradient><linearGradient id="w" x1="907.795" y1="91.045" x2="907.795" y2="249.905" gradientUnits="userSpaceOnUse"><stop offset=".01" stop-color="#EAF2FB" stop-opacity=".91"/><stop offset="1" stop-color="#085ED0" stop-opacity=".12"/></linearGradient><linearGradient id="x" x1="907.795" y1="82.041" x2="907.795" y2="240.901" gradientUnits="userSpaceOnUse"><stop offset=".01" stop-color="#EAF2FB" stop-opacity=".91"/><stop offset="1" stop-color="#085ED0" stop-opacity=".12"/></linearGradient><linearGradient id="y" x1="907.795" y1="73.037" x2="907.795" y2="231.897" gradientUnits="userSpaceOnUse"><stop offset=".01" stop-color="#EAF2FB" stop-opacity=".91"/><stop offset="1" stop-color="#085ED0" stop-opacity=".12"/></linearGradient><linearGradient id="z" x1="907.795" y1="64.031" x2="907.795" y2="222.891" gradientUnits="userSpaceOnUse"><stop offset=".01" stop-color="#EAF2FB" stop-opacity=".91"/><stop offset="1" stop-color="#085ED0" stop-opacity=".12"/></linearGradient><linearGradient id="A" x1="907.795" y1="55.027" x2="907.795" y2="213.888" gradientUnits="userSpaceOnUse"><stop offset=".01" stop-color="#EAF2FB" stop-opacity=".91"/><stop offset="1" stop-color="#085ED0" stop-opacity=".12"/></linearGradient><linearGradient id="B" x1="907.795" y1="46.023" x2="907.795" y2="204.884" gradientUnits="userSpaceOnUse"><stop offset=".01" stop-color="#EAF2FB" stop-opacity=".91"/><stop offset="1" stop-color="#085ED0" stop-opacity=".12"/></linearGradient><linearGradient id="C" x1="907.795" y1="37.018" x2="907.795" y2="195.878" gradientUnits="userSpaceOnUse"><stop offset=".01" stop-color="#EAF2FB" stop-opacity=".91"/><stop offset="1" stop-color="#085ED0" stop-opacity=".12"/></linearGradient><linearGradient id="D" x1="907.795" y1="28.014" x2="907.795" y2="186.874" gradientUnits="userSpaceOnUse"><stop offset=".01" stop-color="#EAF2FB" stop-opacity=".91"/><stop offset="1" stop-color="#085ED0" stop-opacity=".12"/></linearGradient><linearGradient id="E" x1="907.795" y1="19.008" x2="907.795" y2="177.868" gradientUnits="userSpaceOnUse"><stop offset=".01" stop-color="#EAF2FB" stop-opacity=".91"/><stop offset="1" stop-color="#085ED0" stop-opacity=".12"/></linearGradient><linearGradient id="F" x1="907.795" y1="10.004" x2="907.795" y2="168.864" gradientUnits="userSpaceOnUse"><stop offset=".01" stop-color="#EAF2FB" stop-opacity=".91"/><stop offset="1" stop-color="#085ED0" stop-opacity=".12"/></linearGradient></defs></svg>