<svg width="37" height="20" viewBox="0 0 37 20" fill="none" xmlns="http://www.w3.org/2000/svg"><g clip-path="url(#a)"><path d="M8.24 6h-2.1a.292.292 0 0 0-.288.246l-.85 5.368a.174.174 0 0 0 .173.201h1.003a.291.291 0 0 0 .288-.245l.23-1.448a.291.291 0 0 1 .287-.246h.665c1.384 0 2.182-.667 2.39-1.99.095-.578.005-1.033-.267-1.35C9.472 6.185 8.943 6 8.24 6zm.242 1.961c-.115.751-.69.751-1.247.751h-.317L7.14 7.31a.175.175 0 0 1 .173-.148h.145c.38 0 .737 0 .922.216.11.128.144.32.102.583zm6.035-.024h-1.005a.175.175 0 0 0-.173.147l-.045.28-.07-.101c-.218-.315-.703-.42-1.188-.42-1.111 0-2.06.838-2.245 2.015-.096.587.04 1.149.374 1.54.307.36.745.51 1.267.51.896 0 1.392-.574 1.392-.574l-.045.279a.175.175 0 0 0 .173.202h.906a.292.292 0 0 0 .288-.246l.543-3.43a.174.174 0 0 0-.172-.202zm-1.401 1.95a1.12 1.12 0 0 1-1.135.958c-.292 0-.525-.094-.675-.27-.149-.176-.205-.426-.158-.705.09-.567.554-.964 1.127-.964.285 0 .518.094.67.273.154.18.214.431.17.709zm6.757-1.95h-1.01a.293.293 0 0 0-.242.127l-1.394 2.047-.59-1.967a.292.292 0 0 0-.28-.207h-.994a.175.175 0 0 0-.166.23l1.113 3.257-1.046 1.472a.174.174 0 0 0 .142.276h1.01a.292.292 0 0 0 .24-.125l3.36-4.836a.174.174 0 0 0-.143-.274" fill="#283B82"/><path d="M23.22 6h-2.1a.291.291 0 0 0-.289.246l-.85 5.368a.174.174 0 0 0 .173.201h1.078c.1 0 .186-.072.202-.172l.24-1.521a.291.291 0 0 1 .289-.246h.664c1.384 0 2.182-.667 2.39-1.99.095-.578.004-1.033-.267-1.35-.299-.35-.828-.535-1.53-.535zm.242 1.961c-.115.751-.69.751-1.248.751h-.316l.223-1.402a.174.174 0 0 1 .172-.148h.145c.38 0 .737 0 .922.216.11.128.144.32.102.583zm6.035-.024H28.49a.174.174 0 0 0-.172.147l-.045.28-.07-.101c-.218-.315-.703-.42-1.188-.42-1.111 0-2.06.838-2.245 2.015-.096.587.04 1.149.375 1.54.307.36.744.51 1.266.51.896 0 1.392-.574 1.392-.574l-.045.279a.175.175 0 0 0 .174.202h.905a.292.292 0 0 0 .288-.246l.544-3.43a.175.175 0 0 0-.174-.202zm-1.402 1.95a1.12 1.12 0 0 1-1.135.958c-.291 0-.525-.094-.675-.27-.149-.176-.205-.426-.158-.705a1.125 1.125 0 0 1 1.127-.964c.285 0 .518.094.67.273.154.18.215.431.17.709zm2.588-3.739l-.862 5.466a.174.174 0 0 0 .172.201h.867a.291.291 0 0 0 .288-.245l.85-5.368A.175.175 0 0 0 31.826 6h-.97a.175.175 0 0 0-.174.148" fill="#469BDB"/></g><rect x=".25" y=".25" width="36.5" height="19.5" rx="2.75" stroke="#959393" stroke-width=".5"/><defs><clipPath id="a"><path fill="#fff" transform="translate(5 6)" d="M0 0h27v7.172H0z"/></clipPath></defs></svg>