<svg width="37" height="20" viewBox="0 0 37 20" fill="none" xmlns="http://www.w3.org/2000/svg"><g clip-path="url(#a)" fill-rule="evenodd" clip-rule="evenodd" fill="#7A6E67"><path d="M24.817 7.891a8.893 8.893 0 0 0-.288-.889c-.052-.105-.078-.183-.13-.262a6.277 6.277 0 0 0-.602-.994c-.053-.078-.105-.156-.183-.235l-.262-.314c-.13-.157-.55-.55-.732-.706a5.012 5.012 0 0 0-.445-.34 6.453 6.453 0 0 0-2.903-1.099c-.21-.026-.393-.052-.576-.052h-.575c-.105.026-.262.026-.366.026-.55.052-1.1.21-1.596.393-.235.104-.497.209-.68.313-.052.053-.079.053-.13.079-.053.026-.08.052-.132.078-.052.026-.078.053-.13.079a8.752 8.752 0 0 0-.707.497c-.157.13-.287.261-.418.392l-.288.288c-.052.052-.052.078-.105.105-.052.078-.104.156-.183.235-.052.078-.104.13-.157.21l-.313.47-.21.392a8.32 8.32 0 0 0-.314.707c-.052.209-.13.392-.183.601-.052.21-.104.419-.13.654a3.993 3.993 0 0 0-.079.785c0 .47 0 .654.052 1.15.105.733.34 1.44.68 2.067a6.336 6.336 0 0 0 2.014 2.302c.262.183.68.445.994.575.759.34 1.675.602 2.538.602.732 0 1.098 0 1.805-.183.575-.13 1.02-.34 1.543-.602.261-.13.732-.444.941-.627.367-.314.576-.497.89-.89.13-.157.235-.287.34-.444l.235-.34c.026-.053.052-.079.079-.131.235-.393.34-.654.497-1.073.078-.183.13-.392.183-.601a6.384 6.384 0 0 0 .026-3.218zm-1.334-2.066c.104.157.21.288.288.445.104.157.183.314.261.47.026.053.026.079.052.131l.105.262c.026.052.026.104.052.13h-2.354a.931.931 0 0 1-.052-.261 3.633 3.633 0 0 1-.079-.262l-.156-.47a4.63 4.63 0 0 0-.393-.811l-.026-.053h1.988c0 .053.288.393.314.419zm-3.95-2.433c.393.053.811.183 1.177.314l.576.262c.157.078.287.157.418.235.393.236.628.419.942.733.078.052.157.104.21.157h-1.884c-.131-.236-.706-.89-.942-1.099l-.052-.052-.236-.21c-.052-.026-.078-.052-.13-.104a.46.46 0 0 1-.131-.105l-.262-.183c.105.026.21.052.314.052zm-.863-.052c.026 0 .235.13.288.183.104.052.549.419.654.497l.13.105c.079.078.157.13.236.209l.601.759H18.67V3.34zm0 2.093h2.145c0 .052.026.052.052.104l.288.523c.078.157.13.288.21.471.052.131.208.654.208.759H18.67V5.433zm-.314-2.093v1.753h-1.91c.105-.184.288-.34.42-.497l.705-.654c.183-.131.34-.288.524-.393.026-.052.209-.183.261-.209zm0 2.093v1.83h-2.903c0-.104.104-.418.13-.523.053-.183.105-.313.184-.47.104-.262.183-.419.314-.654a.657.657 0 0 0 .104-.183h2.171zm-4.107-.419l.079-.078c.628-.602 1.517-1.073 2.354-1.36.236-.079.55-.131.811-.184.105-.026.21-.026.314-.026-.105.079-.34.236-.497.366-.026.027-.052.027-.079.053-.13.104-.549.497-.627.601l-.157.183c-.079.079-.366.445-.419.576h-1.857a.28.28 0 0 1 .079-.13zM12.968 6.74c.026-.026.026-.052.052-.104a.785.785 0 0 1 .105-.21l.235-.392c.053-.026.393-.523.471-.601.026-.027.052-.027.13-.027h1.858a.198.198 0 0 1-.052.105 6.77 6.77 0 0 0-.367.759c-.052.157-.13.314-.157.47-.026.105-.13.419-.13.524h-2.38a7.84 7.84 0 0 1 .235-.524zm.863 6.827c0-.026-.288-.366-.314-.418l-.55-.916c-.078-.157-.156-.392-.235-.523h2.38c0 .131.08.393.131.523.184.602.576 1.334.576 1.334H13.83zm3.374 1.988a6.339 6.339 0 0 1-1.91-.758 5.098 5.098 0 0 1-.392-.262c-.052-.052-.13-.104-.183-.157a.36.36 0 0 0-.104-.078c-.027-.026-.027-.026-.053-.026l-.052-.053-.078-.078-.079-.079c-.052-.052-.13-.104-.157-.157h1.884c.104.184.313.419.47.602.027.052.079.079.105.105.157.209.68.654.915.837l.262.183c-.21 0-.497-.053-.628-.079zm1.151.079c-.13-.026-.654-.471-.81-.576l-.131-.104c-.131-.131-.34-.288-.471-.445l-.419-.497c-.026-.052-.052-.078-.104-.13h1.909l.026 1.752zm0-2.067h-2.17c0-.026-.027-.052-.053-.104a.198.198 0 0 1-.052-.105l-.236-.418a5.248 5.248 0 0 1-.418-1.23h2.903l.026 1.857zm2.223.34c-.13.21-.444.55-.627.733a.445.445 0 0 0-.105.13l-.366.315c-.13.104-.706.549-.811.575v-1.753h1.91zm-1.909-.34v-1.83h2.903c0 .13-.157.601-.209.758-.026.078-.052.157-.104.235a7.05 7.05 0 0 1-.393.759c-.026.026-.052.052-.052.105H18.67v-.027zm3.819.654l-.183.157c-.053.053-.131.105-.183.157-.785.55-1.648.942-2.59 1.099-.104.026-.21.026-.314.026l.628-.47c.13-.105.602-.576.759-.786l.287-.366.053-.052c.026-.026.026-.026.052-.079h1.883c-.078.053-.287.236-.392.314zm1.726-2.354l-.104.262a6.197 6.197 0 0 1-.628 1.046l-.314.419h-1.988c.314-.576.392-.68.575-1.334l.131-.524h2.354c.027.027 0 .079-.026.131zm.288-.89c-.026.08-.026.158-.052.236a.807.807 0 0 0-.053.21h-11.77l-.131-.445c-.026-.157-.079-.314-.105-.471a2.891 2.891 0 0 1-.052-.497c0-.078-.026-.183-.026-.262v-.261c0-.55.078-1.177.235-1.7a.807.807 0 0 0 .053-.21h11.77a.5.5 0 0 1 .052.21c.105.34.184.81.21 1.177v.523c.052.497 0 1.02-.131 1.49z"/><path d="M15.478 10.847c.314 0 .236.052.367-.183l.235-.445c.026-.052.026-.078.052-.104.157-.262.34-.68.497-.942l.026-.026c0 .078.027.183.027.235 0 .105 0 .157.026.235l.104 1.1c0 .13-.052.104.314.104.026-.053.445-.916.523-1.02.027-.053.053-.105.079-.184l.445-.863.078-.157c.052-.078.183-.34.235-.392.053-.052.053 0 .053-.078h-.523c0 .183.104.078-.131.601a.782.782 0 0 1-.105.21l-.418.81c-.026.053-.079.183-.105.183 0-.209-.105-1.046-.105-1.307 0-.157-.026-.288-.026-.445h-.235l-.785 1.438c-.026.053-.157.314-.183.314 0-.34-.13-1.072-.13-1.464 0-.053 0-.131.025-.184.027-.078.079-.078.079-.156h-.785c0 .104.053.052.105.287l.078.68c.027.288.183 1.622.183 1.753zM13.7 8.728c0 .523 1.02.576 1.02 1.282a.8.8 0 0 1-.079.392.94.94 0 0 1-.183.262.625.625 0 0 1-.287.157c-.288.104-.654.078-.968 0a.485.485 0 0 0-.183-.053c-.236-.104-.131-.104-.053-.523.026-.052 0-.078.053-.104a.6.6 0 0 0 .157.392c.13.157.314.157.523.157a.487.487 0 0 0 .47-.34c.079-.392-.261-.55-.47-.733-.236-.183-.497-.366-.497-.732 0-.183.078-.392.183-.47.105-.105.235-.21.392-.262.131-.053.262-.053.419-.079.13 0 .523.053.654.131 0 .078-.105.419-.105.47h-.052c0-.104-.079-.235-.157-.313-.053-.026-.079-.052-.157-.079-.314-.078-.68.053-.68.445zm6.774-.445c0 .157-.287 1.125-.34 1.308-.078.288-.183.68-.287.968-.027.105-.079.21-.184.236v.052h.811c0-.157-.13-.026.105-.732l.157-.55h.445c.13.026.235.052.261.183.079 0 .052-.052.105-.235.026-.079.052-.183.078-.262-.078 0-.052.053-.157.079-.104.026-.549.026-.68.026l.236-.837c.052-.236.104-.183.523-.183a.4.4 0 0 1 .261.104c.157.157.079.184.183.184 0-.053.053-.184.079-.262.026-.052.026-.079.052-.13.026-.053.053-.105 0-.105H20.5c-.078.078-.026.104-.026.156zm1.622.34c.105 0 .052-.104.288-.235.157-.078.288-.052.497-.052l-.55 1.91c-.052.156-.13.522-.261.548v.053h.785c0-.157-.105 0 .026-.471.026-.105.052-.183.078-.288l.157-.575c.105-.34.21-.733.314-1.099.026-.078 0-.052.262-.052.183 0 .34.13.392.288.079 0 .052-.079.105-.21a.999.999 0 0 0 .078-.261h-1.962c-.052 0-.078.13-.104.235-.053.026-.105.131-.105.21zm-3.113-.366c0 .157 0 .105-.026.262l-.13.47c-.053.21-.445 1.622-.55 1.727-.052.079-.078.052-.104.105h.81c0-.157-.104-.027.027-.497l.078-.314c.052-.21.13-.419.183-.628.079-.288.183-.68.288-.968.026-.104.078-.209.183-.235v-.052c-1.072 0-.759-.027-.759.13z"/></g><rect x=".25" y=".25" width="36.5" height="19.5" rx="2.75" stroke="#959393" stroke-width=".5"/><defs><clipPath id="a"><path fill="#fff" transform="translate(12 3)" d="M0 0h13v13H0z"/></clipPath></defs></svg>