<svg width="37" height="20" viewBox="0 0 37 20" fill="none" xmlns="http://www.w3.org/2000/svg"><g clip-path="url(#a)"><path d="M17.802 10.212v3.129h-.994V5.617h2.638a2.402 2.402 0 0 1 1.711.671c.464.413.723 1.01.71 1.626a2.152 2.152 0 0 1-.71 1.639c-.463.437-1.032.659-1.705.659h-1.65zm0-3.647v2.698h1.669c.37.012.729-.135.982-.4a1.311 1.311 0 0 0 .025-1.86l-.025-.025a1.286 1.286 0 0 0-.982-.407l-1.669-.006zm6.358 1.318c.735 0 1.316.197 1.742.586.427.394.637.93.637 1.613v3.252h-.952v-.732h-.043c-.414.603-.958.905-1.643.905-.581 0-1.075-.172-1.465-.517a1.63 1.63 0 0 1-.587-1.294c0-.548.21-.98.624-1.306.414-.326.97-.486 1.662-.486.593 0 1.075.11 1.458.32v-.228c0-.339-.148-.659-.407-.875a1.448 1.448 0 0 0-.958-.363c-.556 0-.995.234-1.322.702l-.878-.548c.476-.684 1.187-1.029 2.132-1.029zm-1.285 3.838c0 .258.123.499.327.646.223.173.495.265.773.26.42 0 .821-.167 1.118-.463.327-.308.494-.671.494-1.09-.309-.246-.741-.37-1.297-.37-.402 0-.742.099-1.014.29-.265.197-.401.437-.401.727zM32 8.056l-3.324 7.613H27.65l1.236-2.66-2.188-4.947h1.082l1.575 3.794h.025l1.538-3.794L32 8.056z" fill="#5F6368"/><path d="M13.78 9.534a5.52 5.52 0 0 0-.074-.9H9.51v1.707h2.403a2.054 2.054 0 0 1-.89 1.349v1.109h1.434c.84-.77 1.322-1.91 1.322-3.265z" fill="#4285F4"/><path d="M9.51 13.87c1.2 0 2.213-.394 2.948-1.072l-1.433-1.108c-.402.27-.915.425-1.514.425-1.162 0-2.144-.783-2.496-1.83H5.538v1.146a4.456 4.456 0 0 0 3.973 2.439z" fill="#34A853"/><path d="M7.014 10.285a2.668 2.668 0 0 1 0-1.7v-1.14H5.538a4.386 4.386 0 0 0 0 3.98l1.476-1.14z" fill="#FBBC04"/><path d="M9.51 6.756a2.398 2.398 0 0 1 1.706.665l1.267-1.263A4.254 4.254 0 0 0 9.51 5a4.45 4.45 0 0 0-3.973 2.446L7.015 8.59c.352-1.053 1.334-1.835 2.496-1.835z" fill="#EA4335"/></g><rect x=".25" y=".25" width="36.5" height="19.5" rx="2.75" stroke="#959393" stroke-width=".5"/><defs><clipPath id="a"><path fill="#fff" transform="translate(5 5)" d="M0 0h27v10.718H0z"/></clipPath></defs></svg>