<svg width="37" height="20" viewBox="0 0 37 20" fill="none" xmlns="http://www.w3.org/2000/svg"><path d="M9.933 6.294c-.316.339-.822.606-1.329.568-.063-.459.185-.946.475-1.246.316-.349.87-.597 1.319-.616.052.477-.153.945-.465 1.294zm.46.658c-.734-.038-1.361.377-1.71.377-.353 0-.886-.358-1.466-.348a2.207 2.207 0 0 0-1.84 1.012c-.791 1.232-.206 3.055.559 4.057.374.497.822 1.041 1.413 1.022.56-.02.78-.33 1.456-.33.68 0 .875.33 1.466.32.612-.01.997-.496 1.371-.992.427-.564.601-1.113.612-1.141-.01-.01-1.181-.416-1.192-1.638-.01-1.021.923-1.508.965-1.537-.527-.706-1.35-.783-1.635-.802zm4.234-1.384v7.442h1.277v-2.544h1.766c1.614 0 2.748-1.003 2.748-2.454 0-1.451-1.113-2.444-2.705-2.444h-3.086zm1.277.974h1.471c1.108 0 1.74.534 1.74 1.475 0 .94-.632 1.48-1.745 1.48h-1.466V6.542zm6.845 6.525c.802 0 1.546-.367 1.883-.95h.026v.893h1.182V9.306c0-1.074-.95-1.767-2.41-1.767-1.356 0-2.358.702-2.395 1.666h1.15c.095-.458.564-.759 1.208-.759.78 0 1.218.33 1.218.936v.41l-1.593.086c-1.482.082-2.283.63-2.283 1.585 0 .965.828 1.604 2.014 1.604zm.343-.883c-.68 0-1.113-.296-1.113-.75 0-.467.417-.74 1.213-.782l1.42-.081v.42c0 .697-.655 1.193-1.52 1.193zm4.325 2.85c1.244 0 1.83-.43 2.341-1.733L32 7.611h-1.297L29.2 12.007h-.027L27.67 7.611h-1.334l2.162 5.418-.116.33c-.195.558-.512.773-1.076.773-.1 0-.295-.01-.374-.02v.893c.074.02.39.029.485.029z" fill="#000"/><rect x=".25" y=".25" width="36.5" height="19.5" rx="2.75" stroke="#959393" stroke-width=".5"/></svg>