<svg width="37" height="20" viewBox="0 0 37 20" fill="none" xmlns="http://www.w3.org/2000/svg"><g clip-path="url(#a)"><path d="M20.48 10.5a6.042 6.042 0 0 1-3.72 5.576 6.019 6.019 0 0 1-6.568-1.309 6.039 6.039 0 0 1 4.262-10.303c1.598 0 3.131.636 4.261 1.768a6.04 6.04 0 0 1 1.766 4.268z" fill="#E40520"/><path d="M22.546 4.464a6.011 6.011 0 0 0-4.654 2.2h1.215c.167.204.321.418.46.641h-2.139c-.128.206-.244.42-.347.64h2.832c.097.207.182.42.255.638H16.83c-.07.21-.13.423-.177.639h3.692a6.034 6.034 0 0 1-.17 3.196H16.83c.072.217.157.43.254.639h2.832a5.88 5.88 0 0 1-.349.638h-2.139c.14.223.294.436.46.64h1.22a6.248 6.248 0 0 1-.61.64 6.024 6.024 0 0 0 9.672-2.301 6.044 6.044 0 0 0-2.817-7.513 6.02 6.02 0 0 0-2.808-.694l.001-.003zm5.224 9.402a.195.195 0 1 1 .39 0 .195.195 0 0 1-.39 0zm.194.148a.149.149 0 1 0 0-.297.149.149 0 0 0 0 .297zm-.027-.063h-.04v-.17h.073a.082.082 0 0 1 .044.008.053.053 0 0 1 .021.042.048.048 0 0 1-.029.044l.03.076h-.043l-.026-.067h-.03v.067zm0-.097h.023a.044.044 0 0 0 .024 0 .02.02 0 0 0 .007-.008.02.02 0 0 0 .002-.011.02.02 0 0 0-.01-.017.051.051 0 0 0-.025 0h-.02v.036z" fill="#FAB31E"/><path d="M13.046 11.162a1.008 1.008 0 0 0-.14-.01c-.372 0-.56.127-.56.378a.229.229 0 0 0 .236.254c.262 0 .453-.254.464-.622zm.476 1.11h-.541l.01-.258a.822.822 0 0 1-.685.3c-.354 0-.597-.28-.597-.68 0-.607.42-.96 1.149-.96.089.001.178.008.267.02a.644.644 0 0 0 .025-.163c0-.164-.113-.225-.42-.225a2.133 2.133 0 0 0-.692.112l.09-.56c.254-.084.518-.129.784-.132.56 0 .86.252.86.73-.007.165-.024.33-.054.493-.057.364-.18 1.135-.196 1.322zm-2.087-.002h-.654l.375-2.353-.838 2.354h-.445L9.817 9.93l-.393 2.34h-.612l.512-3.062h.94l.057 1.713.574-1.713h1.046l-.506 3.063zm11.92-1.108a1.008 1.008 0 0 0-.14-.01c-.372 0-.56.127-.56.378a.229.229 0 0 0 .235.254c.26 0 .454-.254.465-.622zm.475 1.11h-.541l.015-.258a.822.822 0 0 1-.685.3c-.354 0-.598-.28-.598-.68 0-.607.42-.96 1.15-.96.088.001.178.008.266.02a.644.644 0 0 0 .025-.163c0-.164-.113-.225-.42-.225a2.133 2.133 0 0 0-.699.112l.091-.56a2.62 2.62 0 0 1 .782-.132c.56 0 .86.252.86.73a3.43 3.43 0 0 1-.053.493c-.054.364-.176 1.135-.193 1.322zm-7.399-.039c-.151.052-.31.08-.47.081-.334 0-.518-.193-.518-.547a6.13 6.13 0 0 1 .09-.665l.28-1.698h.65l-.075.377h.391l-.088.598h-.394c-.076.474-.184 1.064-.185 1.142 0 .128.069.184.225.184a.55.55 0 0 0 .177-.023l-.083.551zm1.994-.021a2.235 2.235 0 0 1-.668.103c-.727 0-1.108-.383-1.108-1.111 0-.852.483-1.478 1.14-1.478.535 0 .878.35.878.9a2.7 2.7 0 0 1-.08.613H17.29c-.044.361.187.511.56.511.233 0 .465-.053.675-.155l-.1.617zm-.365-1.475c0-.052.068-.444-.304-.444-.207 0-.355.158-.42.444h.724zm-4.144-.168c0 .314.152.53.498.7.264.125.306.162.306.28 0 .156-.118.226-.376.226-.2 0-.398-.034-.586-.1l-.09.576c.223.051.451.076.68.075.691 0 1.01-.264 1.01-.832 0-.344-.14-.544-.462-.7-.28-.127-.306-.155-.306-.271 0-.117.11-.204.32-.204.158.003.315.015.47.038l.09-.585a4.25 4.25 0 0 0-.577-.05c-.727.003-.98.386-.977.847zm7.691-.778c.206.006.407.063.585.165l.106-.664c-.095-.037-.433-.259-.719-.259a1.298 1.298 0 0 0-1.067.576c-.38-.126-.538.129-.728.383l-.17.039a1.24 1.24 0 0 0 .02-.25h-.601c-.081.77-.227 1.551-.341 2.322l-.03.168h.655c.109-.712.17-1.166.206-1.474l.246-.14c.036-.14.152-.184.383-.178a2.743 2.743 0 0 0-.046.51c0 .816.44 1.323 1.143 1.323a2.05 2.05 0 0 0 .58-.09l.114-.7a1.28 1.28 0 0 1-.56.156c-.38 0-.61-.28-.61-.746.003-.669.346-1.14.834-1.14zm5.539-.581l-.14.885c-.179-.235-.37-.406-.625-.406-.33 0-.631.25-.827.619a5.306 5.306 0 0 1-.56-.153 3.44 3.44 0 0 0 .03-.374h-.6c-.082.77-.227 1.551-.34 2.322l-.031.168h.65a65.47 65.47 0 0 0 .206-1.43c.224-.204.336-.38.56-.368a2.15 2.15 0 0 0-.159.807c0 .622.315 1.034.79 1.034a.77.77 0 0 0 .604-.28l-.03.233h.619l.5-3.056h-.647zm-.817 2.486c-.224 0-.336-.165-.336-.49 0-.489.21-.84.508-.84.224 0 .346.17.346.487 0 .496-.215.842-.518.842v.001z" fill="#06326E"/><path d="M11.624 12.089h-.655l.375-2.354-.836 2.354h-.447l-.054-2.34-.395 2.34h-.611l.51-3.062h.942l.027 1.895.633-1.895h1.018l-.507 3.062zm1.607-1.109a1.039 1.039 0 0 0-.14-.01c-.37 0-.56.127-.56.38a.23.23 0 0 0 .236.253c.264 0 .464-.255.464-.622zm.476 1.11h-.543l.013-.259a.819.819 0 0 1-.686.302c-.355 0-.597-.28-.597-.68 0-.607.42-.96 1.148-.96.09 0 .179.007.267.018a.632.632 0 0 0 .026-.16c0-.166-.115-.228-.42-.228-.235 0-.47.039-.693.113l.091-.56c.252-.085.516-.13.782-.134.56 0 .86.254.86.73a3.086 3.086 0 0 1-.054.495c-.052.361-.173 1.134-.19 1.322h-.004zm8.78-2.98l-.107.664a1.248 1.248 0 0 0-.585-.165c-.489 0-.831.473-.831 1.147 0 .465.23.746.611.746.196-.008.388-.062.56-.157l-.115.7a2.033 2.033 0 0 1-.578.09c-.7 0-1.144-.507-1.144-1.321 0-1.096.607-1.86 1.474-1.86.246.012.487.065.715.156zm1.055 1.87a1.023 1.023 0 0 0-.14-.01c-.37 0-.56.127-.56.38a.229.229 0 0 0 .236.253c.261 0 .454-.255.464-.622zm.477 1.11h-.543l.013-.259a.819.819 0 0 1-.686.302c-.355 0-.597-.28-.597-.68 0-.607.42-.96 1.149-.96.089 0 .177.007.265.018a.587.587 0 0 0 .027-.16c0-.166-.115-.228-.42-.228a2.2 2.2 0 0 0-.692.113c0-.041.09-.56.09-.56a2.59 2.59 0 0 1 .783-.134c.56 0 .86.254.859.73a3.086 3.086 0 0 1-.053.495c-.056.361-.178 1.134-.195 1.322zm-7.401-.039c-.151.052-.31.08-.47.082-.334 0-.516-.192-.516-.547.016-.223.046-.445.09-.664.037-.232.28-1.7.28-1.7h.65l-.077.378h.334l-.09.598h-.334c-.075.473-.183 1.063-.184 1.142 0 .129.068.185.223.185a.54.54 0 0 0 .177-.024l-.083.55zm1.995-.02a2.234 2.234 0 0 1-.667.101c-.729 0-1.108-.381-1.108-1.11 0-.851.483-1.479 1.137-1.479.537 0 .88.352.88.902-.003.207-.03.412-.08.612H17.48c-.045.36.186.512.56.512.234 0 .465-.054.675-.157l-.102.62zm-.365-1.476c0-.052.069-.445-.303-.445-.207 0-.356.159-.42.445h.723zm-4.145-.169c0 .315.153.533.498.7.266.125.306.163.306.28 0 .156-.116.226-.374.226-.2 0-.399-.034-.588-.098 0 0-.085.55-.09.575.224.051.453.076.682.074.69 0 1.008-.263 1.008-.832 0-.342-.14-.542-.46-.7-.28-.127-.306-.155-.306-.271 0-.116.109-.205.32-.205.158.003.315.015.47.038l.094-.577a4.508 4.508 0 0 0-.576-.05c-.736-.003-.985.38-.984.84zm13.379 1.703h-.618l.03-.231a.775.775 0 0 1-.604.28c-.474 0-.789-.41-.789-1.033 0-.828.487-1.527 1.065-1.527a.735.735 0 0 1 .624.34l.14-.885h.645l-.493 3.056zm-.965-.575c.305 0 .519-.346.519-.84 0-.317-.122-.49-.347-.49-.297 0-.508.348-.508.841 0 .324.113.49.341.49h-.005zM24.608 9.6c-.082.77-.227 1.55-.341 2.322l-.03.167h.655c.234-1.523.29-1.822.658-1.782a2.4 2.4 0 0 1 .247-.723c-.28-.056-.427.098-.627.393.024-.124.037-.251.04-.378h-.602zm-5.386 0c-.082.77-.228 1.55-.341 2.322l-.03.167h.655c.234-1.523.29-1.822.656-1.782.045-.253.13-.497.25-.723-.28-.056-.427.098-.627.393a2.32 2.32 0 0 0 .039-.378h-.602zm8.548 2.294a.194.194 0 1 1 .388 0 .194.194 0 0 1-.389 0zm.194.149a.148.148 0 0 0 .145-.178.149.149 0 0 0-.116-.117.148.148 0 0 0-.177.146.149.149 0 0 0 .148.149zm-.027-.064h-.04v-.17h.073a.075.075 0 0 1 .043.008.051.051 0 0 1 .014.07.048.048 0 0 1-.021.017l.03.075h-.044l-.025-.067h-.03v.067zm0-.096h.023a.048.048 0 0 0 .024 0 .023.023 0 0 0 .006-.029.022.022 0 0 0-.006-.008.054.054 0 0 0-.026 0h-.02v.037z" fill="#fff"/></g><rect x=".25" y=".25" width="36.5" height="19.5" rx="2.75" stroke="#959393" stroke-width=".5"/><defs><clipPath id="a"><path fill="#fff" transform="translate(8 4)" d="M0 0h21v13H0z"/></clipPath></defs></svg>