<svg width="37" height="20" viewBox="0 0 37 20" fill="none" xmlns="http://www.w3.org/2000/svg"><g clip-path="url(#a)"><path d="M22.582 6.014c-1.915 0-3.627.995-3.627 2.834 0 2.11 3.036 2.255 3.036 3.315 0 .446-.51.845-1.38.845-1.237 0-2.16-.558-2.16-.558l-.396 1.856s1.064.471 2.477.471c2.094 0 3.742-1.044 3.742-2.915 0-2.228-3.048-2.37-3.048-3.353 0-.35.418-.732 1.287-.732.98 0 1.779.405 1.779.405l.386-1.792s-.87-.376-2.096-.376zM5.06 6.149l-.046.27s.805.148 1.531.443c.934.339 1.001.535 1.158 1.147l1.715 6.629h2.299l3.541-8.489h-2.293l-2.276 5.772-.928-4.893c-.085-.56-.517-.879-1.045-.879H5.06zm11.12 0l-1.799 8.489h2.187l1.793-8.49h-2.18v.001zm12.198 0c-.527 0-.807.283-1.012.778l-3.204 7.71h2.294l.443-1.284h2.794l.27 1.285h2.024L30.22 6.149h-1.843zm.298 2.293l.68 3.186h-1.821l1.141-3.186z" fill="#1434CB"/></g><rect x=".25" y=".25" width="36.5" height="19.5" rx="2.75" stroke="#959393" stroke-width=".5"/><defs><clipPath id="a"><path fill="#fff" transform="translate(5 6)" d="M0 0h27v8.791H0z"/></clipPath></defs></svg>