<svg width="1920" height="440" viewBox="0 0 1920 440" fill="none" xmlns="http://www.w3.org/2000/svg"><path d="M-47 439c50.529-25.313 255.279-158.86 623.185-158.86 459.885 0 716.915 311.174 1410.405 54.117" stroke="url(#a)" stroke-opacity=".55"/><path d="M-47 159.86C3.529 134.547 208.279 1 576.185 1 1036.07 1 1293.1 312.174 1986.59 55.117" stroke="url(#b)" stroke-opacity=".55"/><path d="M-47 429.996c50.529-25.313 255.279-158.86 623.185-158.86 459.885 0 716.915 311.174 1410.405 54.117" stroke="url(#c)" stroke-opacity=".55"/><path d="M-47 420.991c50.529-25.313 255.279-158.86 623.185-158.86 459.885 0 716.915 311.174 1410.405 54.117" stroke="url(#d)" stroke-opacity=".55"/><path d="M-47 411.986c50.529-25.313 255.279-158.86 623.185-158.86 459.885 0 716.915 311.174 1410.405 54.117" stroke="url(#e)" stroke-opacity=".55"/><path d="M-47 402.982c50.529-25.313 255.279-158.86 623.185-158.86 459.885 0 716.915 311.174 1410.405 54.117" stroke="url(#f)" stroke-opacity=".55"/><path d="M-47 393.977c50.529-25.313 255.279-158.86 623.185-158.86 459.885 0 716.915 311.174 1410.405 54.117" stroke="url(#g)" stroke-opacity=".55"/><path d="M-47 384.972c50.529-25.312 255.279-158.86 623.185-158.86 459.885 0 716.915 311.174 1410.405 54.118" stroke="url(#h)" stroke-opacity=".55"/><path d="M-47 375.969c50.529-25.313 255.279-158.861 623.185-158.861 459.885 0 716.915 311.174 1410.405 54.118" stroke="url(#i)" stroke-opacity=".55"/><path d="M-47 366.965c50.529-25.313 255.279-158.861 623.185-158.861 459.885 0 716.915 311.174 1410.405 54.118" stroke="url(#j)" stroke-opacity=".55"/><path d="M-47 357.959c50.529-25.313 255.279-158.86 623.185-158.86 459.885 0 716.915 311.174 1410.405 54.117" stroke="url(#k)" stroke-opacity=".55"/><path d="M-47 348.955c50.529-25.313 255.279-158.86 623.185-158.86 459.885 0 716.915 311.174 1410.405 54.117" stroke="url(#l)" stroke-opacity=".55"/><path d="M-47 339.951c50.529-25.313 255.279-158.86 623.185-158.86 459.885 0 716.915 311.174 1410.405 54.117" stroke="url(#m)" stroke-opacity=".55"/><path d="M-47 330.946c50.529-25.313 255.279-158.86 623.185-158.86 459.885 0 716.915 311.174 1410.405 54.117" stroke="url(#n)" stroke-opacity=".55"/><path d="M-47 321.941c50.529-25.313 255.279-158.86 623.185-158.86 459.885 0 716.915 311.174 1410.405 54.117" stroke="url(#o)" stroke-opacity=".55"/><path d="M-47 312.937c50.529-25.313 255.279-158.86 623.185-158.86 459.885 0 716.915 311.174 1410.405 54.117" stroke="url(#p)" stroke-opacity=".55"/><path d="M-47 303.932c50.529-25.312 255.279-158.86 623.185-158.86 459.885 0 716.915 311.174 1410.405 54.117" stroke="url(#q)" stroke-opacity=".55"/><path d="M-47 294.928c50.529-25.313 255.279-158.861 623.185-158.861 459.885 0 716.915 311.174 1410.405 54.118" stroke="url(#r)" stroke-opacity=".55"/><path d="M-47 285.924c50.529-25.313 255.279-158.861 623.185-158.861 459.885 0 716.915 311.174 1410.405 54.118" stroke="url(#s)" stroke-opacity=".55"/><path d="M-47 276.919c50.529-25.313 255.279-158.86 623.185-158.86 459.885 0 716.915 311.173 1410.405 54.117" stroke="url(#t)" stroke-opacity=".55"/><path d="M-47 267.914c50.529-25.313 255.279-158.86 623.185-158.86 459.885 0 716.915 311.174 1410.405 54.117" stroke="url(#u)" stroke-opacity=".55"/><path d="M-47 258.91c50.529-25.313 255.279-158.86 623.185-158.86 459.885 0 716.915 311.174 1410.405 54.117" stroke="url(#v)" stroke-opacity=".55"/><path d="M-47 249.905c50.529-25.313 255.279-158.86 623.185-158.86 459.885 0 716.915 311.174 1410.405 54.117" stroke="url(#w)" stroke-opacity=".55"/><path d="M-47 240.901c50.529-25.313 255.279-158.86 623.185-158.86 459.885 0 716.915 311.174 1410.405 54.117" stroke="url(#x)" stroke-opacity=".55"/><path d="M-47 231.896c50.529-25.313 255.279-158.86 623.185-158.86 459.885 0 716.915 311.174 1410.405 54.117" stroke="url(#y)" stroke-opacity=".55"/><path d="M-47 222.891c50.529-25.312 255.279-158.86 623.185-158.86 459.885 0 716.915 311.174 1410.405 54.117" stroke="url(#z)" stroke-opacity=".55"/><path d="M-47 213.888c50.529-25.313 255.279-158.86 623.185-158.86 459.885 0 716.915 311.173 1410.405 54.117" stroke="url(#A)" stroke-opacity=".55"/><path d="M-47 204.883C3.529 179.57 208.279 46.023 576.185 46.023c459.885 0 716.915 311.173 1410.405 54.117" stroke="url(#B)" stroke-opacity=".55"/><path d="M-47 195.878c50.529-25.313 255.279-158.86 623.185-158.86 459.885 0 716.915 311.173 1410.405 54.117" stroke="url(#C)" stroke-opacity=".55"/><path d="M-47 186.874c50.529-25.313 255.279-158.86 623.185-158.86 459.885 0 716.915 311.174 1410.405 54.117" stroke="url(#D)" stroke-opacity=".55"/><path d="M-47 177.869c50.529-25.313 255.279-158.86 623.185-158.86 459.885 0 716.915 311.174 1410.405 54.117" stroke="url(#E)" stroke-opacity=".55"/><path d="M-47 168.864c50.529-25.313 255.279-158.86 623.185-158.86 459.885 0 716.915 311.174 1410.405 54.117" stroke="url(#F)" stroke-opacity=".55"/><defs><linearGradient id="a" x1="969.795" y1="280.14" x2="969.795" y2="439" gradientUnits="userSpaceOnUse"><stop stop-color="#fff"/><stop offset="1" stop-color="#0FF" stop-opacity=".4"/></linearGradient><linearGradient id="b" x1="969.795" y1="1" x2="969.795" y2="159.86" gradientUnits="userSpaceOnUse"><stop stop-color="#fff"/><stop offset="1" stop-color="#0FF" stop-opacity=".4"/></linearGradient><linearGradient id="c" x1="969.795" y1="271.136" x2="969.795" y2="429.996" gradientUnits="userSpaceOnUse"><stop stop-color="#fff"/><stop offset="1" stop-color="#0FF" stop-opacity=".4"/></linearGradient><linearGradient id="d" x1="969.795" y1="262.131" x2="969.795" y2="420.991" gradientUnits="userSpaceOnUse"><stop stop-color="#fff"/><stop offset="1" stop-color="#0FF" stop-opacity=".4"/></linearGradient><linearGradient id="e" x1="969.795" y1="253.126" x2="969.795" y2="411.986" gradientUnits="userSpaceOnUse"><stop stop-color="#fff"/><stop offset="1" stop-color="#0FF" stop-opacity=".4"/></linearGradient><linearGradient id="f" x1="969.795" y1="244.122" x2="969.795" y2="402.982" gradientUnits="userSpaceOnUse"><stop stop-color="#fff"/><stop offset="1" stop-color="#0FF" stop-opacity=".4"/></linearGradient><linearGradient id="g" x1="969.795" y1="235.117" x2="969.795" y2="393.977" gradientUnits="userSpaceOnUse"><stop stop-color="#fff"/><stop offset="1" stop-color="#0FF" stop-opacity=".4"/></linearGradient><linearGradient id="h" x1="969.795" y1="226.112" x2="969.795" y2="384.972" gradientUnits="userSpaceOnUse"><stop stop-color="#fff"/><stop offset="1" stop-color="#0FF" stop-opacity=".4"/></linearGradient><linearGradient id="i" x1="969.795" y1="217.108" x2="969.795" y2="375.969" gradientUnits="userSpaceOnUse"><stop stop-color="#fff"/><stop offset="1" stop-color="#0FF" stop-opacity=".4"/></linearGradient><linearGradient id="j" x1="969.795" y1="208.104" x2="969.795" y2="366.965" gradientUnits="userSpaceOnUse"><stop stop-color="#fff"/><stop offset="1" stop-color="#0FF" stop-opacity=".4"/></linearGradient><linearGradient id="k" x1="969.795" y1="199.099" x2="969.795" y2="357.959" gradientUnits="userSpaceOnUse"><stop stop-color="#fff"/><stop offset="1" stop-color="#0FF" stop-opacity=".4"/></linearGradient><linearGradient id="l" x1="969.795" y1="190.095" x2="969.795" y2="348.955" gradientUnits="userSpaceOnUse"><stop stop-color="#fff"/><stop offset="1" stop-color="#0FF" stop-opacity=".4"/></linearGradient><linearGradient id="m" x1="969.795" y1="181.091" x2="969.795" y2="339.951" gradientUnits="userSpaceOnUse"><stop stop-color="#fff"/><stop offset="1" stop-color="#0FF" stop-opacity=".4"/></linearGradient><linearGradient id="n" x1="969.795" y1="172.086" x2="969.795" y2="330.946" gradientUnits="userSpaceOnUse"><stop stop-color="#fff"/><stop offset="1" stop-color="#0FF" stop-opacity=".4"/></linearGradient><linearGradient id="o" x1="969.795" y1="163.081" x2="969.795" y2="321.941" gradientUnits="userSpaceOnUse"><stop stop-color="#fff"/><stop offset="1" stop-color="#0FF" stop-opacity=".4"/></linearGradient><linearGradient id="p" x1="969.795" y1="154.077" x2="969.795" y2="312.937" gradientUnits="userSpaceOnUse"><stop stop-color="#fff"/><stop offset="1" stop-color="#0FF" stop-opacity=".4"/></linearGradient><linearGradient id="q" x1="969.795" y1="145.072" x2="969.795" y2="303.932" gradientUnits="userSpaceOnUse"><stop stop-color="#fff"/><stop offset="1" stop-color="#0FF" stop-opacity=".4"/></linearGradient><linearGradient id="r" x1="969.795" y1="136.067" x2="969.795" y2="294.928" gradientUnits="userSpaceOnUse"><stop stop-color="#fff"/><stop offset="1" stop-color="#0FF" stop-opacity=".4"/></linearGradient><linearGradient id="s" x1="969.795" y1="127.063" x2="969.795" y2="285.924" gradientUnits="userSpaceOnUse"><stop stop-color="#fff"/><stop offset="1" stop-color="#0FF" stop-opacity=".4"/></linearGradient><linearGradient id="t" x1="969.795" y1="118.059" x2="969.795" y2="276.919" gradientUnits="userSpaceOnUse"><stop stop-color="#fff"/><stop offset="1" stop-color="#0FF" stop-opacity=".4"/></linearGradient><linearGradient id="u" x1="969.795" y1="109.054" x2="969.795" y2="267.914" gradientUnits="userSpaceOnUse"><stop stop-color="#fff"/><stop offset="1" stop-color="#0FF" stop-opacity=".4"/></linearGradient><linearGradient id="v" x1="969.795" y1="100.05" x2="969.795" y2="258.91" gradientUnits="userSpaceOnUse"><stop stop-color="#fff"/><stop offset="1" stop-color="#0FF" stop-opacity=".4"/></linearGradient><linearGradient id="w" x1="969.795" y1="91.045" x2="969.795" y2="249.905" gradientUnits="userSpaceOnUse"><stop stop-color="#fff"/><stop offset="1" stop-color="#0FF" stop-opacity=".4"/></linearGradient><linearGradient id="x" x1="969.795" y1="82.041" x2="969.795" y2="240.901" gradientUnits="userSpaceOnUse"><stop stop-color="#fff"/><stop offset="1" stop-color="#0FF" stop-opacity=".4"/></linearGradient><linearGradient id="y" x1="969.795" y1="73.036" x2="969.795" y2="231.896" gradientUnits="userSpaceOnUse"><stop stop-color="#fff"/><stop offset="1" stop-color="#0FF" stop-opacity=".4"/></linearGradient><linearGradient id="z" x1="969.795" y1="64.031" x2="969.795" y2="222.891" gradientUnits="userSpaceOnUse"><stop stop-color="#fff"/><stop offset="1" stop-color="#0FF" stop-opacity=".4"/></linearGradient><linearGradient id="A" x1="969.795" y1="55.027" x2="969.795" y2="213.888" gradientUnits="userSpaceOnUse"><stop stop-color="#fff"/><stop offset="1" stop-color="#0FF" stop-opacity=".4"/></linearGradient><linearGradient id="B" x1="969.795" y1="46.023" x2="969.795" y2="204.883" gradientUnits="userSpaceOnUse"><stop stop-color="#fff"/><stop offset="1" stop-color="#0FF" stop-opacity=".4"/></linearGradient><linearGradient id="C" x1="969.795" y1="37.018" x2="969.795" y2="195.878" gradientUnits="userSpaceOnUse"><stop stop-color="#fff"/><stop offset="1" stop-color="#0FF" stop-opacity=".4"/></linearGradient><linearGradient id="D" x1="969.795" y1="28.014" x2="969.795" y2="186.874" gradientUnits="userSpaceOnUse"><stop stop-color="#fff"/><stop offset="1" stop-color="#0FF" stop-opacity=".4"/></linearGradient><linearGradient id="E" x1="969.795" y1="19.009" x2="969.795" y2="177.869" gradientUnits="userSpaceOnUse"><stop stop-color="#fff"/><stop offset="1" stop-color="#0FF" stop-opacity=".4"/></linearGradient><linearGradient id="F" x1="969.795" y1="10.004" x2="969.795" y2="168.864" gradientUnits="userSpaceOnUse"><stop stop-color="#fff"/><stop offset="1" stop-color="#0FF" stop-opacity=".4"/></linearGradient></defs></svg>