<svg width="540" height="97" viewBox="0 0 540 97" fill="none" xmlns="http://www.w3.org/2000/svg"><path d="M-280.076 109.983C-252.991 92.618-143.238 1 53.973 1c246.513 0 384.293 213.475 756.025 37.126" stroke="#CDE2FF"/><path d="M-280.076 202.644c27.085-17.365 136.838-108.983 334.049-108.983 246.513 0 384.293 213.476 756.025 37.126" stroke="#CDE2FF"/><path d="M-280.076 196.467c27.085-17.366 136.838-108.984 334.049-108.984 246.513 0 384.293 213.476 756.025 37.127" stroke="#CDE2FF"/><path d="M-280.076 190.29c27.085-17.366 136.838-108.983 334.049-108.983 246.513 0 384.293 213.475 756.025 37.126" stroke="#CDE2FF"/><path d="M-280.076 184.112c27.085-17.365 136.838-108.983 334.049-108.983 246.513 0 384.293 213.475 756.025 37.126" stroke="#CDE2FF"/><path d="M-280.076 177.934c27.085-17.365 136.838-108.983 334.049-108.983 246.513 0 384.293 213.476 756.025 37.126" stroke="#CDE2FF"/><path d="M-280.076 171.758c27.085-17.366 136.838-108.984 334.049-108.984 246.513 0 384.293 213.476 756.025 37.127" stroke="#CDE2FF"/><path d="M-280.076 165.58c27.085-17.366 136.838-108.983 334.049-108.983 246.513 0 384.293 213.475 756.025 37.126" stroke="#CDE2FF"/><path d="M-280.076 159.402c27.085-17.365 136.838-108.983 334.049-108.983 246.513 0 384.293 213.475 756.025 37.126" stroke="#CDE2FF"/><path d="M-280.076 153.225C-252.991 135.86-143.238 44.242 53.973 44.242c246.513 0 384.293 213.476 756.025 37.126" stroke="#CDE2FF"/><path d="M-280.076 147.048c27.085-17.366 136.838-108.983 334.049-108.983 246.513 0 384.293 213.475 756.025 37.126" stroke="#CDE2FF"/><path d="M-280.076 140.87c27.085-17.366 136.838-108.983 334.049-108.983 246.513 0 384.293 213.475 756.025 37.126" stroke="#CDE2FF"/><path d="M-280.076 134.693C-252.991 117.328-143.238 25.71 53.973 25.71c246.513 0 384.293 213.475 756.025 37.126" stroke="#CDE2FF"/><path d="M-280.076 128.515C-252.991 111.15-143.238 19.532 53.973 19.532c246.513 0 384.293 213.476 756.025 37.126" stroke="#CDE2FF"/><path d="M-280.076 122.338c27.085-17.366 136.838-108.983 334.049-108.983 246.513 0 384.293 213.475 756.025 37.126" stroke="#CDE2FF"/><path d="M-280.076 116.161C-252.991 98.796-143.238 7.178 53.973 7.178c246.513 0 384.293 213.475 756.025 37.126" stroke="#CDE2FF"/></svg>