<svg width="1110" height="148" viewBox="0 0 1110 148" fill="none" xmlns="http://www.w3.org/2000/svg"><path d="M-182 105.201C-149.848 88.597-19.563 1 214.541 1 507.17 1 670.726 205.107 1112 36.497M-182 246.953c32.152-16.604 162.437-104.201 396.541-104.201 292.629 0 456.185 204.107 897.459 35.497" stroke="#CDE2FF"/><path d="M-182 241.046c32.152-16.603 162.437-104.2 396.541-104.2 292.629 0 456.185 204.107 897.459 35.497" stroke="#CDE2FF"/><path d="M-182 235.139c32.152-16.603 162.437-104.201 396.541-104.201 292.629 0 456.185 204.108 897.459 35.497" stroke="#CDE2FF"/><path d="M-182 229.234c32.152-16.603 162.437-104.201 396.541-104.201 292.629 0 456.185 204.108 897.459 35.497" stroke="#CDE2FF"/><path d="M-182 223.328c32.152-16.604 162.437-104.201 396.541-104.201 292.629 0 456.185 204.107 897.459 35.497" stroke="#CDE2FF"/><path d="M-182 217.42c32.152-16.603 162.437-104.2 396.541-104.2 292.629 0 456.185 204.107 897.459 35.497" stroke="#CDE2FF"/><path d="M-182 211.514c32.152-16.603 162.437-104.201 396.541-104.201 292.629 0 456.185 204.108 897.459 35.497" stroke="#CDE2FF"/><path d="M-182 205.608c32.152-16.603 162.437-104.201 396.541-104.201 292.629 0 456.185 204.108 897.459 35.497" stroke="#CDE2FF"/><path d="M-182 199.702c32.152-16.604 162.437-104.201 396.541-104.201 292.629 0 456.185 204.107 897.459 35.497" stroke="#CDE2FF"/><path d="M-182 193.795c32.152-16.603 162.437-104.2 396.541-104.2 292.629 0 456.185 204.107 897.459 35.497" stroke="#CDE2FF"/><path d="M-182 187.889c32.152-16.603 162.437-104.2 396.541-104.2 292.629 0 456.185 204.107 897.459 35.496" stroke="#CDE2FF"/><path d="M-182 181.983c32.152-16.603 162.437-104.2 396.541-104.2 292.629 0 456.185 204.107 897.459 35.496" stroke="#CDE2FF"/><path d="M-182 176.077c32.152-16.604 162.437-104.201 396.541-104.201 292.629 0 456.185 204.107 897.459 35.497" stroke="#CDE2FF"/><path d="M-182 170.17c32.152-16.603 162.437-104.2 396.541-104.2 292.629 0 456.185 204.107 897.459 35.497" stroke="#CDE2FF"/><path d="M-182 164.264c32.152-16.603 162.437-104.2 396.541-104.2C507.17 60.064 670.726 264.17 1112 95.56" stroke="#CDE2FF"/><path d="M-182 158.358c32.152-16.603 162.437-104.2 396.541-104.2 292.629 0 456.185 204.107 897.459 35.496" stroke="#CDE2FF"/><path d="M-182 152.452c32.152-16.604 162.437-104.201 396.541-104.201 292.629 0 456.185 204.107 897.459 35.497" stroke="#CDE2FF"/><path d="M-182 146.545c32.152-16.603 162.437-104.2 396.541-104.2 292.629 0 456.185 204.107 897.459 35.497" stroke="#CDE2FF"/><path d="M-182 140.638c32.152-16.603 162.437-104.2 396.541-104.2 292.629 0 456.185 204.107 897.459 35.496" stroke="#CDE2FF"/><path d="M-182 134.732c32.152-16.603 162.437-104.2 396.541-104.2 292.629 0 456.185 204.107 897.459 35.496" stroke="#CDE2FF"/><path d="M-182 128.826c32.152-16.604 162.437-104.201 396.541-104.201 292.629 0 456.185 204.107 897.459 35.497" stroke="#CDE2FF"/><path d="M-182 122.919c32.152-16.603 162.437-104.2 396.541-104.2 292.629 0 456.185 204.107 897.459 35.497" stroke="#CDE2FF"/><path d="M-182 117.013c32.152-16.603 162.437-104.2 396.541-104.2 292.629 0 456.185 204.107 897.459 35.496" stroke="#CDE2FF"/><path d="M-182 111.107c32.152-16.603 162.437-104.2 396.541-104.2 292.629 0 456.185 204.107 897.459 35.496" stroke="#CDE2FF"/></svg>