<svg width="350" height="97" viewBox="0 0 350 97" fill="none" xmlns="http://www.w3.org/2000/svg"><path d="M-182 109.983C-164.274 92.618-92.447 1 36.617 1c161.329 0 251.499 213.475 494.777 37.126" stroke="#0FF" stroke-opacity=".4"/><path d="M-182 202.644c17.726-17.365 89.553-108.983 218.617-108.983 161.329 0 251.499 213.476 494.777 37.126" stroke="#0FF" stroke-opacity=".4"/><path d="M-182 196.467c17.726-17.366 89.553-108.984 218.617-108.984 161.329 0 251.499 213.476 494.777 37.127" stroke="#0FF" stroke-opacity=".4"/><path d="M-182 190.29c17.726-17.366 89.553-108.983 218.617-108.983 161.329 0 251.499 213.475 494.777 37.126" stroke="#0FF" stroke-opacity=".4"/><path d="M-182 184.112c17.726-17.365 89.553-108.983 218.617-108.983 161.329 0 251.499 213.475 494.777 37.126" stroke="#0FF" stroke-opacity=".4"/><path d="M-182 177.934c17.726-17.365 89.553-108.983 218.617-108.983 161.329 0 251.499 213.476 494.777 37.126" stroke="#0FF" stroke-opacity=".4"/><path d="M-182 171.758c17.726-17.366 89.553-108.984 218.617-108.984 161.329 0 251.499 213.476 494.777 37.127" stroke="#0FF" stroke-opacity=".4"/><path d="M-182 165.58c17.726-17.366 89.553-108.983 218.617-108.983 161.329 0 251.499 213.475 494.777 37.126" stroke="#0FF" stroke-opacity=".4"/><path d="M-182 159.402c17.726-17.365 89.553-108.983 218.617-108.983 161.329 0 251.499 213.475 494.777 37.126" stroke="#0FF" stroke-opacity=".4"/><path d="M-182 153.225C-164.274 135.86-92.447 44.242 36.617 44.242c161.329 0 251.499 213.476 494.777 37.126" stroke="#0FF" stroke-opacity=".4"/><path d="M-182 147.048c17.726-17.366 89.553-108.983 218.617-108.983 161.329 0 251.499 213.475 494.777 37.126" stroke="#0FF" stroke-opacity=".4"/><path d="M-182 140.87c17.726-17.366 89.553-108.983 218.617-108.983 161.329 0 251.499 213.475 494.777 37.126" stroke="#0FF" stroke-opacity=".4"/><path d="M-182 134.693C-164.274 117.328-92.447 25.71 36.617 25.71c161.329 0 251.499 213.475 494.777 37.126" stroke="#0FF" stroke-opacity=".4"/><path d="M-182 128.515C-164.274 111.15-92.447 19.532 36.617 19.532c161.329 0 251.499 213.476 494.777 37.126" stroke="#0FF" stroke-opacity=".4"/><path d="M-182 122.338c17.726-17.366 89.553-108.983 218.617-108.983 161.329 0 251.499 213.475 494.777 37.126" stroke="#0FF" stroke-opacity=".4"/><path d="M-182 116.161C-164.274 98.796-92.447 7.178 36.617 7.178c161.329 0 251.499 213.475 494.777 37.126" stroke="#0FF" stroke-opacity=".4"/></svg>