<svg width="1920" height="482" viewBox="0 0 1920 482" fill="none" xmlns="http://www.w3.org/2000/svg"><path d="M-295 481.487c56.25-36.862 284.183-231.342 693.745-231.342 511.953 0 798.095 453.15 1570.095 78.809" stroke="#085ED0" stroke-opacity=".1"/><path d="M-295 468.374c56.25-36.862 284.183-231.342 693.745-231.342 511.953 0 798.095 453.15 1570.095 78.809" stroke="#085ED0" stroke-opacity=".1"/><path d="M-295 455.261c56.25-36.862 284.183-231.342 693.745-231.342 511.953 0 798.095 453.15 1570.095 78.809" stroke="#085ED0" stroke-opacity=".1"/><path d="M-295 442.148c56.25-36.862 284.183-231.342 693.745-231.342 511.953 0 798.095 453.15 1570.095 78.809" stroke="#085ED0" stroke-opacity=".1"/><path d="M-295 429.035c56.25-36.862 284.183-231.341 693.745-231.341 511.953 0 798.095 453.149 1570.095 78.808" stroke="#085ED0" stroke-opacity=".1"/><path d="M-295 415.922c56.25-36.862 284.183-231.341 693.745-231.341 511.953 0 798.095 453.149 1570.095 78.808" stroke="#085ED0" stroke-opacity=".1"/><path d="M-295 402.809c56.25-36.862 284.183-231.341 693.745-231.341 511.953 0 798.095 453.149 1570.095 78.808" stroke="#085ED0" stroke-opacity=".1"/><path d="M-295 389.696c56.25-36.862 284.183-231.341 693.745-231.341 511.953 0 798.095 453.15 1570.095 78.808" stroke="#085ED0" stroke-opacity=".1"/><path d="M-295 376.584c56.25-36.863 284.183-231.342 693.745-231.342 511.953 0 798.095 453.15 1570.095 78.809" stroke="#085ED0" stroke-opacity=".1"/><path d="M-295 363.47c56.25-36.862 284.183-231.341 693.745-231.341 511.953 0 798.095 453.15 1570.095 78.809" stroke="#085ED0" stroke-opacity=".1"/><path d="M-295 350.357c56.25-36.862 284.183-231.341 693.745-231.341 511.953 0 798.095 453.15 1570.095 78.808" stroke="#085ED0" stroke-opacity=".1"/><path d="M-295 337.245c56.25-36.862 284.183-231.342 693.745-231.342 511.953 0 798.095 453.15 1570.095 78.809" stroke="#085ED0" stroke-opacity=".1"/><path d="M-295 324.132C-238.75 287.27-10.817 92.79 398.745 92.79c511.953 0 798.095 453.15 1570.095 78.809" stroke="#085ED0" stroke-opacity=".1"/><path d="M-295 311.019c56.25-36.862 284.183-231.342 693.745-231.342 511.953 0 798.095 453.15 1570.095 78.809" stroke="#085ED0" stroke-opacity=".1"/><path d="M-295 297.906c56.25-36.862 284.183-231.341 693.745-231.341 511.953 0 798.095 453.149 1570.095 78.808" stroke="#085ED0" stroke-opacity=".1"/><path d="M-295 284.793c56.25-36.862 284.183-231.341 693.745-231.341 511.953 0 798.095 453.149 1570.095 78.808" stroke="#085ED0" stroke-opacity=".1"/><path d="M-295 271.68c56.25-36.862 284.183-231.341 693.745-231.341 511.953 0 798.095 453.149 1570.095 78.808" stroke="#085ED0" stroke-opacity=".1"/><path d="M-295 258.567c56.25-36.862 284.183-231.341 693.745-231.341 511.953 0 798.095 453.149 1570.095 78.808" stroke="#085ED0" stroke-opacity=".1"/><path d="M-295 245.454c56.25-36.862 284.183-231.342 693.745-231.342 511.953 0 798.095 453.15 1570.095 78.809" stroke="#085ED0" stroke-opacity=".1"/><path d="M-295 232.342C-238.75 195.479-10.817 1 398.745 1 910.698 1 1196.84 454.15 1968.84 79.809" stroke="#085ED0" stroke-opacity=".1"/></svg>