<svg width="72" height="72" viewBox="0 0 72 72" fill="none" xmlns="http://www.w3.org/2000/svg"><g filter="url(#a)"><circle cx="36" cy="36" r="34.5" fill="url(#b)" stroke="#EFF6FF" stroke-width="3"/><path d="M50.777 30.652L43.689 19.31c-.26-.415-.943-.415-1.202 0l-7.088 11.34A.709.709 0 0 0 36 31.737h3.544v5.67c0 4.69-3.816 8.506-8.506 8.506s-8.505-3.815-8.505-8.505c0-4.69 3.815-8.506 8.505-8.506a.71.71 0 0 0 0-1.418c-5.471 0-9.923 4.452-9.923 9.924 0 5.471 4.452 9.923 9.923 9.923 5.472 0 9.924-4.452 9.924-9.923v-6.38a.71.71 0 0 0-.71-.709H37.28l5.809-9.294 5.81 9.294h-2.975a.71.71 0 0 0-.709.71v19.137c0 .782-.636 1.417-1.417 1.417H42.38c-.237 0-1.417-.068-1.417-1.417v-4.962a.709.709 0 1 0-1.418 0v4.962c0 2.08 1.695 2.835 2.835 2.835h1.418a2.838 2.838 0 0 0 2.835-2.835v-18.43h3.544a.709.709 0 0 0 .6-1.084z" fill="#085ED0"/><path d="M33.873 35.989a.71.71 0 0 0 .71-.709v-.709a2.129 2.129 0 0 0-2.127-2.126h-.71v-.709a.71.71 0 0 0-1.417 0v.709h-.709a2.129 2.129 0 0 0-2.126 2.126v1.418c0 1.172.954 2.126 2.127 2.126h2.835a.71.71 0 0 1 .708.71v1.417a.71.71 0 0 1-.708.709H29.62a.71.71 0 0 1-.708-.71v-.708a.709.709 0 1 0-1.418 0v.709c0 1.172.954 2.126 2.127 2.126h.708v.709a.709.709 0 1 0 1.418 0v-.709h.709a2.129 2.129 0 0 0 2.126-2.126v-1.418a2.129 2.129 0 0 0-2.126-2.126H29.62a.71.71 0 0 1-.708-.709v-1.418a.71.71 0 0 1 .709-.708h2.835a.71.71 0 0 1 .708.708v.71a.71.71 0 0 0 .71.708z" fill="#085ED0"/></g><defs><filter id="a" x="-19" y="-19" width="110" height="110" filterUnits="userSpaceOnUse" color-interpolation-filters="sRGB"><feFlood flood-opacity="0" result="BackgroundImageFix"/><feGaussianBlur in="BackgroundImageFix" stdDeviation="9.5"/><feComposite in2="SourceAlpha" operator="in" result="effect1_backgroundBlur_1742_9882"/><feBlend in="SourceGraphic" in2="effect1_backgroundBlur_1742_9882" result="shape"/></filter><linearGradient id="b" x1="36" x2="36" y2="72" gradientUnits="userSpaceOnUse"><stop stop-color="#EFF6FF" stop-opacity=".5"/><stop offset=".516" stop-color="#EEF3FF" stop-opacity=".46"/><stop offset="1" stop-color="#EFF6FF" stop-opacity=".4"/></linearGradient></defs></svg>