<svg width="286" height="74" viewBox="0 0 286 74" fill="none" xmlns="http://www.w3.org/2000/svg"><g opacity=".45" stroke="#CDE2FF"><path d="M-45.365 83.292C-29.775 70.17 33.4.937 146.916.937c141.895 0 221.202 161.316 435.174 28.055"/><path d="M-45.365 153.312c15.59-13.123 78.765-82.355 192.281-82.355 141.895 0 221.202 161.316 435.174 28.055"/><path d="M-45.365 148.644c15.59-13.123 78.765-82.355 192.281-82.355 141.895 0 221.202 161.316 435.174 28.055"/><path d="M-45.365 143.976c15.59-13.123 78.765-82.355 192.281-82.355 141.895 0 221.202 161.316 435.174 28.055"/><path d="M-45.365 139.308c15.59-13.122 78.765-82.355 192.281-82.355 141.895 0 221.202 161.316 435.174 28.055"/><path d="M-45.365 134.64c15.59-13.122 78.765-82.355 192.281-82.355 141.895 0 221.202 161.316 435.174 28.055"/><path d="M-45.365 129.972c15.59-13.122 78.765-82.355 192.281-82.355 141.895 0 221.202 161.316 435.174 28.055"/><path d="M-45.365 125.304c15.59-13.122 78.765-82.355 192.281-82.355 141.895 0 221.202 161.316 435.174 28.055"/><path d="M-45.365 120.636c15.59-13.122 78.765-82.355 192.281-82.355 141.895 0 221.202 161.316 435.174 28.055"/><path d="M-45.365 115.968c15.59-13.122 78.765-82.355 192.281-82.355 141.895 0 221.202 161.316 435.174 28.055"/><path d="M-45.365 111.3c15.59-13.122 78.765-82.355 192.281-82.355 141.895 0 221.202 161.316 435.174 28.055"/><path d="M-45.365 106.632C-29.775 93.51 33.4 24.277 146.916 24.277c141.895 0 221.202 161.316 435.174 28.055"/><path d="M-45.365 101.964c15.59-13.122 78.765-82.355 192.281-82.355 141.895 0 221.202 161.316 435.174 28.055"/><path d="M-45.365 97.296c15.59-13.122 78.765-82.355 192.281-82.355 141.895 0 221.202 161.316 435.174 28.055"/><path d="M-45.365 92.628c15.59-13.122 78.765-82.355 192.281-82.355 141.895 0 221.202 161.316 435.174 28.055"/><path d="M-45.365 87.96C-29.775 74.838 33.4 5.605 146.916 5.605c141.895 0 221.202 161.316 435.174 28.055"/></g></svg>