<svg width="286" height="74" viewBox="0 0 286 74" fill="none" xmlns="http://www.w3.org/2000/svg"><g opacity=".45" stroke="#CDE2FF"><path d="M-45.365 83.29C-29.775 70.168 33.4.936 146.916.936c141.895 0 221.202 161.316 435.174 28.055"/><path d="M-45.365 153.31c15.59-13.123 78.765-82.355 192.281-82.355 141.895 0 221.202 161.316 435.174 28.055"/><path d="M-45.365 148.642c15.59-13.123 78.765-82.355 192.281-82.355 141.895 0 221.202 161.316 435.174 28.055"/><path d="M-45.365 143.974c15.59-13.122 78.765-82.355 192.281-82.355 141.895 0 221.202 161.316 435.174 28.055"/><path d="M-45.365 139.308c15.59-13.122 78.765-82.355 192.281-82.355 141.895 0 221.202 161.316 435.174 28.055"/><path d="M-45.365 134.638c15.59-13.122 78.765-82.355 192.281-82.355 141.895 0 221.202 161.316 435.174 28.055"/><path d="M-45.365 129.97c15.59-13.122 78.765-82.355 192.281-82.355 141.895 0 221.202 161.316 435.174 28.055"/><path d="M-45.365 125.302c15.59-13.122 78.765-82.355 192.281-82.355 141.895 0 221.202 161.316 435.174 28.055"/><path d="M-45.365 120.634c15.59-13.122 78.765-82.355 192.281-82.355 141.895 0 221.202 161.316 435.174 28.055"/><path d="M-45.365 115.966c15.59-13.122 78.765-82.355 192.281-82.355 141.895 0 221.202 161.316 435.174 28.055"/><path d="M-45.365 111.298c15.59-13.122 78.765-82.355 192.281-82.355 141.895 0 221.202 161.316 435.174 28.055"/><path d="M-45.365 106.63c15.59-13.122 78.765-82.355 192.281-82.355 141.895 0 221.202 161.316 435.174 28.055"/><path d="M-45.365 101.962C-29.775 88.84 33.4 19.607 146.916 19.607c141.895 0 221.202 161.316 435.174 28.055"/><path d="M-45.365 97.294C-29.775 84.172 33.4 14.94 146.916 14.94c141.895 0 221.202 161.316 435.174 28.055"/><path d="M-45.365 92.626c15.59-13.122 78.765-82.355 192.281-82.355 141.895 0 221.202 161.316 435.174 28.055"/><path d="M-45.365 87.958C-29.775 74.836 33.4 5.604 146.916 5.604c141.895 0 221.202 161.315 435.174 28.054"/></g></svg>