<svg width="72" height="72" viewBox="0 0 72 72" fill="none" xmlns="http://www.w3.org/2000/svg"><g filter="url(#a)"><circle cx="36" cy="36" r="34.5" fill="url(#b)" stroke="#EFF6FF" stroke-width="3"/><path d="M45.707 22.95a1.994 1.994 0 0 0-1.819-.247l-8.68 3.114a.664.664 0 1 0 .449 1.25l8.68-3.114a.657.657 0 0 1 .606.082c.18.127.282.325.282.544V43.73c0 .22-.103.417-.282.544a.656.656 0 0 1-.606.082l-.479-.172v-6.82a.664.664 0 0 0-1.328 0v6.344l-14.237-5.107v-8.894l2.876-1.031a.664.664 0 1 0-.448-1.25l-3.208 1.15H22.32c-1.83 0-3.32 1.49-3.32 3.32v4.516c0 1.83 1.49 3.32 3.32 3.32h.066l3.246 8.766c.202.547.73.914 1.314.914h3.327a1.402 1.402 0 0 0 1.314-1.887l-2.704-7.301 15.005 5.382a1.989 1.989 0 0 0 1.82-.246c.529-.373.845-.982.845-1.63V24.58c0-.648-.316-1.257-.846-1.63zM22.32 38.404a1.994 1.994 0 0 1-1.992-1.992v-4.516c0-1.098.894-1.992 1.992-1.992h4.645v8.5H22.32zm8.022 9.582c.003.009.013.036-.009.067-.022.031-.05.031-.06.031h-3.327a.073.073 0 0 1-.069-.047l-3.075-8.305h3.483l3.057 8.254z" fill="#085ED0"/><path d="M33.59 26.802a.666.666 0 0 0-.94 0 .668.668 0 0 0-.194.47.67.67 0 0 0 .195.469.67.67 0 0 0 .47.195.669.669 0 0 0 .469-.195.67.67 0 0 0 .194-.47.668.668 0 0 0-.194-.469zm15.555 4.457a.664.664 0 1 0-.939.939 2.75 2.75 0 0 1 .811 1.957 2.75 2.75 0 0 1-.81 1.957.664.664 0 0 0 .938.94 4.07 4.07 0 0 0 1.2-2.897 4.068 4.068 0 0 0-1.2-2.896z" fill="#085ED0"/><path d="M51.022 29.38a.664.664 0 0 0-.939.94 5.388 5.388 0 0 1 1.589 3.835c0 1.449-.564 2.81-1.589 3.835a.664.664 0 1 0 .94.94A6.708 6.708 0 0 0 53 34.154a6.707 6.707 0 0 0-1.978-4.774zm-7.786-1.33h-1.488a.664.664 0 0 0-.107 1.318l-4.719 4.72-2.28-2.28a.664.664 0 0 0-.938 0l-3.866 3.866a.664.664 0 0 0 .94.939l3.395-3.396 2.28 2.279c.259.26.679.26.938 0l5.19-5.19a.664.664 0 0 0 1.319-.105v-1.488a.664.664 0 0 0-.664-.664zm.427 6.095a.668.668 0 0 0-.94 0 .668.668 0 0 0 .47 1.134.669.669 0 0 0 .47-.195.67.67 0 0 0 .194-.47.669.669 0 0 0-.194-.47z" fill="#085ED0"/></g><defs><filter id="a" x="-19" y="-19" width="110" height="110" filterUnits="userSpaceOnUse" color-interpolation-filters="sRGB"><feFlood flood-opacity="0" result="BackgroundImageFix"/><feGaussianBlur in="BackgroundImageFix" stdDeviation="9.5"/><feComposite in2="SourceAlpha" operator="in" result="effect1_backgroundBlur_1742_21085"/><feBlend in="SourceGraphic" in2="effect1_backgroundBlur_1742_21085" result="shape"/></filter><linearGradient id="b" x1="36" x2="36" y2="72" gradientUnits="userSpaceOnUse"><stop stop-color="#EFF6FF" stop-opacity=".5"/><stop offset=".516" stop-color="#EEF3FF" stop-opacity=".46"/><stop offset="1" stop-color="#EFF6FF" stop-opacity=".4"/></linearGradient></defs></svg>