<svg width="53" height="30" viewBox="0 0 53 30" fill="none" xmlns="http://www.w3.org/2000/svg"><path d="M17.591 19.42h-2.244v9.076h2.245V19.42zm18.104 2.602a3.864 3.864 0 0 0-1.887-.488c-1.455 0-2.461 1.036-2.461 2.422 0 1.348.965 2.422 2.461 2.422a3.92 3.92 0 0 0 1.887-.48v2.436a7 7 0 0 1-2.046.324c-2.528 0-4.742-1.776-4.742-4.702 0-2.71 2.006-4.695 4.742-4.695a6.755 6.755 0 0 1 2.046.323v2.438zm-23.435 0a3.861 3.861 0 0 0-1.885-.488c-1.455 0-2.463 1.036-2.463 2.422 0 1.348.965 2.422 2.463 2.422a3.925 3.925 0 0 0 1.885-.48v2.436a6.99 6.99 0 0 1-2.05.324c-2.521 0-4.735-1.776-4.735-4.702 0-2.71 2.004-4.695 4.734-4.695.696.002 1.387.11 2.05.323v2.438zm35.199 1.934c0 2.597-1.964 4.702-4.7 4.702s-4.699-2.105-4.699-4.702 1.963-4.695 4.7-4.695c2.736 0 4.699 2.102 4.699 4.695zm-4.7-2.386c-1.333 0-2.323 1.07-2.323 2.386s.99 2.39 2.323 2.39c1.334 0 2.324-1.067 2.324-2.39 0-1.322-.996-2.386-2.324-2.386zm-16.652-.086c-.032-.01-.981-.279-1.755-.279-.902 0-1.389.313-1.389.747 0 .547.661.743 1.029.86l.62.201c1.454.47 2.12 1.49 2.12 2.595 0 2.282-1.967 3.047-3.685 3.047a13.372 13.372 0 0 1-2.423-.247V26.32c.198.051 1.14.338 2.12.338 1.119 0 1.632-.332 1.632-.85 0-.458-.445-.722-.996-.9-.137-.047-.342-.113-.482-.16-1.25-.401-2.296-1.154-2.296-2.654 0-1.696 1.247-2.838 3.32-2.838a9.35 9.35 0 0 1 2.187.29l-.002 1.938zM3.09 9.666a1.148 1.148 0 0 0-.336-.785 1.104 1.104 0 0 0-.778-.323c-.29 0-.57.116-.778.323a1.148 1.148 0 0 0-.337.785v2.382c.008.296.129.578.337.785a1.104 1.104 0 0 0 1.556 0c.208-.207.33-.489.337-.785V9.666zm6.126-3.129a1.148 1.148 0 0 0-.337-.784 1.104 1.104 0 0 0-.778-.323c-.29 0-.57.116-.778.323a1.148 1.148 0 0 0-.337.784v5.51c.008.297.129.579.337.786a1.104 1.104 0 0 0 1.556 0c.208-.207.33-.489.337-.785v-5.51zm6.121-4.277c0-.302-.117-.591-.326-.804a1.104 1.104 0 0 0-.788-.333c-.296 0-.58.12-.788.333a1.148 1.148 0 0 0-.327.803v12.053c0 .302.118.591.327.804.209.213.492.333.788.333.295 0 .579-.12.788-.333.209-.213.326-.502.326-.803V2.258zm6.125 4.278c0-.302-.118-.59-.327-.804a1.103 1.103 0 0 0-.787-.332c-.295 0-.579.12-.787.332a1.148 1.148 0 0 0-.327.804v5.51c0 .301.118.59.326.803a1.102 1.102 0 0 0 1.575 0c.21-.213.327-.502.327-.803v-5.51zm6.115 3.128a1.153 1.153 0 0 0-.31-.829 1.111 1.111 0 0 0-.8-.347 1.093 1.093 0 0 0-.8.347 1.136 1.136 0 0 0-.31.829v2.382a1.155 1.155 0 0 0 .31.828 1.11 1.11 0 0 0 .8.347 1.093 1.093 0 0 0 .8-.347 1.14 1.14 0 0 0 .31-.828V9.666zm6.129-3.128a1.156 1.156 0 0 0-.304-.84 1.112 1.112 0 0 0-.806-.354 1.093 1.093 0 0 0-.807.353 1.138 1.138 0 0 0-.304.84v5.51a1.156 1.156 0 0 0 .304.841 1.112 1.112 0 0 0 .806.354 1.093 1.093 0 0 0 .807-.354 1.14 1.14 0 0 0 .304-.84v-5.51zM39.83 2.26a1.155 1.155 0 0 0-.31-.83 1.111 1.111 0 0 0-.8-.346 1.093 1.093 0 0 0-.8.347 1.14 1.14 0 0 0-.31.828v12.054a1.154 1.154 0 0 0 .31.828 1.111 1.111 0 0 0 .8.347 1.091 1.091 0 0 0 .8-.347 1.136 1.136 0 0 0 .31-.829V2.26zm6.124 4.277c0-.302-.118-.592-.327-.806a1.107 1.107 0 0 0-.791-.334c-.297 0-.581.12-.79.334-.21.214-.328.504-.328.806v5.51c0 .303.118.593.327.807a1.103 1.103 0 0 0 1.581 0c.21-.214.328-.504.328-.806v-5.51zm6.116 3.129a1.155 1.155 0 0 0-.31-.829 1.111 1.111 0 0 0-.8-.347 1.092 1.092 0 0 0-.8.347 1.136 1.136 0 0 0-.31.829v2.382a1.155 1.155 0 0 0 .31.828 1.108 1.108 0 0 0 .8.347 1.093 1.093 0 0 0 .8-.347 1.136 1.136 0 0 0 .31-.828V9.666zM50.784 27.3v.141h-.394v1.055h-.166v-1.055h-.399v-.14h.96zm.084 0h.255l.35.978h.008l.34-.977h.249v1.195h-.168v-.979h-.005l-.357.98h-.156l-.347-.98h-.004v.98h-.165V27.3z" fill="#00A0DF"/></svg>