<svg width="540" height="87" viewBox="0 0 540 87" fill="none" xmlns="http://www.w3.org/2000/svg"><g opacity=".45" stroke="#CDE2FF"><path d="M-19 139.905C3.737 117.811 95.872 1.242 261.424 1.242c206.94 0 322.603 271.612 634.661 47.237"/><path d="M-19 218.503C3.737 196.408 95.872 79.84 261.424 79.84c206.94 0 322.603 271.612 634.661 47.237"/><path d="M-19 210.643C3.737 188.549 95.872 71.981 261.424 71.981c206.94 0 322.603 271.611 634.661 47.236"/><path d="M-19 202.784C3.737 180.689 95.872 64.121 261.424 64.121c206.94 0 322.603 271.612 634.661 47.237"/><path d="M-19 194.925C3.737 172.83 95.872 56.262 261.424 56.262c206.94 0 322.603 271.612 634.661 47.237"/><path d="M-19 187.061C3.737 164.967 95.872 48.398 261.424 48.398c206.94 0 322.603 271.612 634.661 47.237"/><path d="M-19 179.202C3.737 157.107 95.872 40.539 261.424 40.539c206.94 0 322.603 271.612 634.661 47.237"/><path d="M-19 171.343C3.737 149.248 95.872 32.68 261.424 32.68c206.94 0 322.603 271.612 634.661 47.236"/><path d="M-19 163.483C3.737 141.389 95.872 24.82 261.424 24.82c206.94 0 322.603 271.612 634.661 47.237"/><path d="M-19 155.624C3.737 133.529 95.872 16.961 261.424 16.961c206.94 0 322.603 271.612 634.661 47.237"/><path d="M-19 147.765C3.737 125.67 95.872 9.102 261.424 9.102c206.94 0 322.603 271.611 634.661 47.236"/></g></svg>