<svg width="768" height="265" viewBox="0 0 768 265" fill="none" xmlns="http://www.w3.org/2000/svg"><path d="M-76 264.28c30.822-20.199 155.716-126.762 380.133-126.762 280.521 0 437.31 248.3 860.327 43.182" stroke="#085ED0" stroke-opacity=".1"/><path d="M-76 257.094c30.822-20.198 155.716-126.762 380.133-126.762 280.521 0 437.31 248.301 860.327 43.183" stroke="#085ED0" stroke-opacity=".1"/><path d="M-76 249.909c30.822-20.199 155.716-126.763 380.133-126.763 280.521 0 437.31 248.301 860.327 43.183" stroke="#085ED0" stroke-opacity=".1"/><path d="M-76 242.725c30.822-20.198 155.716-126.762 380.133-126.762 280.521 0 437.31 248.3 860.327 43.183" stroke="#085ED0" stroke-opacity=".1"/><path d="M-76 235.539c30.822-20.198 155.716-126.762 380.133-126.762 280.521 0 437.31 248.301 860.327 43.183" stroke="#085ED0" stroke-opacity=".1"/><path d="M-76 228.354c30.822-20.198 155.716-126.762 380.133-126.762 280.521 0 437.31 248.3 860.327 43.183" stroke="#085ED0" stroke-opacity=".1"/><path d="M-76 221.168C-45.178 200.97 79.716 94.406 304.133 94.406c280.521 0 437.31 248.301 860.327 43.183" stroke="#085ED0" stroke-opacity=".1"/><path d="M-76 213.983C-45.178 193.784 79.716 87.221 304.133 87.221c280.521 0 437.31 248.3 860.327 43.182" stroke="#085ED0" stroke-opacity=".1"/><path d="M-76 206.799C-45.178 186.601 79.716 80.037 304.133 80.037c280.521 0 437.31 248.301 860.327 43.183" stroke="#085ED0" stroke-opacity=".1"/><path d="M-76 199.614C-45.178 179.415 79.716 72.852 304.133 72.852c280.521 0 437.31 248.3 860.327 43.182" stroke="#085ED0" stroke-opacity=".1"/><path d="M-76 192.428C-45.178 172.23 79.716 65.666 304.133 65.666c280.521 0 437.31 248.301 860.327 43.183" stroke="#085ED0" stroke-opacity=".1"/><path d="M-76 185.243C-45.178 165.044 79.716 58.481 304.133 58.481c280.521 0 437.31 248.3 860.327 43.182" stroke="#085ED0" stroke-opacity=".1"/><path d="M-76 178.057C-45.178 157.859 79.716 51.295 304.133 51.295c280.521 0 437.31 248.301 860.327 43.183" stroke="#085ED0" stroke-opacity=".1"/><path d="M-76 170.873C-45.178 150.675 79.716 44.111 304.133 44.111c280.521 0 437.31 248.301 860.327 43.183" stroke="#085ED0" stroke-opacity=".1"/><path d="M-76 163.688C-45.178 143.49 79.716 36.926 304.133 36.926c280.521 0 437.31 248.3 860.327 43.183" stroke="#085ED0" stroke-opacity=".1"/><path d="M-76 156.502C-45.178 136.304 79.716 29.74 304.133 29.74c280.521 0 437.31 248.301 860.327 43.183" stroke="#085ED0" stroke-opacity=".1"/><path d="M-76 149.317C-45.178 129.118 79.716 22.555 304.133 22.555c280.521 0 437.31 248.3 860.327 43.182" stroke="#085ED0" stroke-opacity=".1"/><path d="M-76 142.131C-45.178 121.933 79.716 15.369 304.133 15.369c280.521 0 437.31 248.301 860.327 43.183" stroke="#085ED0" stroke-opacity=".1"/><path d="M-76 134.948C-45.178 114.749 79.716 8.186 304.133 8.186c280.521 0 437.31 248.3 860.327 43.182" stroke="#085ED0" stroke-opacity=".1"/><path d="M-76 127.762C-45.178 107.564 79.716 1 304.133 1c280.521 0 437.31 248.301 860.327 43.183" stroke="#085ED0" stroke-opacity=".1"/></svg>