<svg width="72" height="72" viewBox="0 0 72 72" fill="none" xmlns="http://www.w3.org/2000/svg"><g filter="url(#a)"><circle cx="36" cy="36" r="34.5" fill="url(#b)" stroke="#EFF6FF" stroke-width="3"/><path fill-rule="evenodd" clip-rule="evenodd" d="M40.511 31.49a3.375 3.375 0 1 0 4.773-4.774 3.375 3.375 0 0 0-4.773 4.773zm1.193-1.194a1.688 1.688 0 1 0 2.387-2.387 1.688 1.688 0 0 0-2.387 2.387z" fill="#085ED0"/><path d="M37.03 40.511c.177.431.652.672 1.094.525a.807.807 0 0 0 .51-1.06c-1.254-3.14-3.47-5.355-6.61-6.61a.807.807 0 0 0-1.06.51c-.147.442.094.917.525 1.093 2.63 1.076 4.466 2.912 5.542 5.542z" fill="#085ED0"/><path fill-rule="evenodd" clip-rule="evenodd" d="M43 21.523c2.287-.51 4.442-.553 5.768-.51a2.277 2.277 0 0 1 2.219 2.218c.043 1.327 0 3.481-.51 5.769-.51 2.282-1.5 4.762-3.403 6.666l-.038.038c-1.539 1.538-2.747 2.747-3.746 3.612l.4 3.61a1.687 1.687 0 0 1-.483 1.38l-3.582 3.582a1.688 1.688 0 0 1-2.76-.567l-1.66-4.148-5.324.888a1.688 1.688 0 0 1-1.942-1.943l.887-5.324-4.148-1.66a1.688 1.688 0 0 1-.566-2.76l3.582-3.581c.362-.363.87-.54 1.38-.484l3.61.4c.865-.998 2.073-2.207 3.612-3.745l.038-.038c1.903-1.904 4.384-2.894 6.666-3.403zm.368 1.647c-2.106.47-4.246 1.354-5.841 2.95-1.77 1.769-3.02 3.02-3.838 4.014l-.29.353-4.512-.5-3.582 3.58 4.148 1.66a1.688 1.688 0 0 1 1.038 1.844l-.887 5.325 5.324-.888a1.69 1.69 0 0 1 1.845 1.038l1.659 4.148 3.581-3.581-.5-4.512.352-.29c.994-.819 2.246-2.07 4.015-3.838 1.595-1.595 2.48-3.735 2.95-5.841.469-2.1.51-4.102.47-5.346a.59.59 0 0 0-.586-.587c-1.244-.04-3.246.002-5.346.47z" fill="#085ED0"/><path fill-rule="evenodd" clip-rule="evenodd" d="M29.6 50.682a.844.844 0 0 1 0-1.194l3.58-3.58a.844.844 0 0 1 1.194 1.194l-3.58 3.58a.844.844 0 0 1-1.193 0zm-8.353-8.354a.844.844 0 0 1 0-1.193l3.58-3.58a.844.844 0 0 1 1.193 1.194l-3.58 3.58a.844.844 0 0 1-1.193 0zm1.787 6.561a.844.844 0 0 1 0-1.194l3.58-3.58a.844.844 0 0 1 1.194 1.194l-3.58 3.58a.844.844 0 0 1-1.194 0z" fill="#085ED0"/></g><defs><filter id="a" x="-19" y="-19" width="110" height="110" filterUnits="userSpaceOnUse" color-interpolation-filters="sRGB"><feFlood flood-opacity="0" result="BackgroundImageFix"/><feGaussianBlur in="BackgroundImageFix" stdDeviation="9.5"/><feComposite in2="SourceAlpha" operator="in" result="effect1_backgroundBlur_1742_13638"/><feBlend in="SourceGraphic" in2="effect1_backgroundBlur_1742_13638" result="shape"/></filter><linearGradient id="b" x1="36" x2="36" y2="72" gradientUnits="userSpaceOnUse"><stop stop-color="#EFF6FF" stop-opacity=".5"/><stop offset=".516" stop-color="#EEF3FF" stop-opacity=".46"/><stop offset="1" stop-color="#EFF6FF" stop-opacity=".4"/></linearGradient></defs></svg>