<svg width="540" height="87" viewBox="0 0 540 87" fill="none" xmlns="http://www.w3.org/2000/svg"><g opacity=".45" stroke="#0FF" stroke-opacity=".4"><path d="M-19 139.905C3.737 117.811 95.872 1.242 261.424 1.242c206.94 0 322.603 271.612 634.661 47.237"/><path d="M-19 218.502C3.737 196.407 95.872 79.839 261.424 79.839c206.94 0 322.603 271.612 634.661 47.237"/><path d="M-19 210.643C3.737 188.548 95.872 71.98 261.424 71.98c206.94 0 322.603 271.612 634.661 47.237"/><path d="M-19 202.783C3.737 180.688 95.872 64.12 261.424 64.12c206.94 0 322.603 271.612 634.661 47.237"/><path d="M-19 194.923C3.737 172.829 95.872 56.26 261.424 56.26c206.94 0 322.603 271.612 634.661 47.237"/><path d="M-19 187.064C3.737 164.969 95.872 48.401 261.424 48.401c206.94 0 322.603 271.612 634.661 47.236"/><path d="M-19 179.204C3.737 157.11 95.872 40.541 261.424 40.541c206.94 0 322.603 271.612 634.661 47.237"/><path d="M-19 171.344C3.737 149.25 95.872 32.681 261.424 32.681c206.94 0 322.603 271.612 634.661 47.237"/><path d="M-19 163.485C3.737 141.39 95.872 24.822 261.424 24.822c206.94 0 322.603 271.611 634.661 47.236"/><path d="M-19 155.625C3.737 133.53 95.872 16.962 261.424 16.962c206.94 0 322.603 271.612 634.661 47.236"/><path d="M-19 147.765C3.737 125.671 95.872 9.102 261.424 9.102c206.94 0 322.603 271.612 634.661 47.237"/></g></svg>