<svg width="72" height="72" viewBox="0 0 72 72" fill="none" xmlns="http://www.w3.org/2000/svg"><g filter="url(#a)"><circle cx="36" cy="36" r="34.5" fill="url(#b)" stroke="#EFF6FF" stroke-width="3"/><path d="M45.334 37.674v-3.348l-2.163-.412a7.407 7.407 0 0 0-.624-1.505l1.237-1.823-2.37-2.37-1.824 1.236a7.546 7.546 0 0 0-1.509-.628l-.412-2.159h-3.348l-.413 2.164c-.525.155-1.03.36-1.504.623l-1.824-1.236-2.37 2.37 1.237 1.824a7.407 7.407 0 0 0-.623 1.504l-2.164.412v3.348l2.159.412c.149.52.36 1.026.628 1.51l-1.236 1.824 2.37 2.37 1.823-1.237c.48.263.979.474 1.504.623l.413 2.164h3.348l.412-2.159c.52-.15 1.025-.36 1.51-.628l1.823 1.236 2.37-2.37-1.237-1.823a7.57 7.57 0 0 0 .629-1.51l2.158-.412zm-2.88 3.622l-1.163 1.164-1.66-1.128-.283.175a6.28 6.28 0 0 1-1.828.757l-.325.078-.376 1.968h-1.643l-.376-1.968-.32-.078a6.384 6.384 0 0 1-1.823-.757l-.284-.175-1.659 1.128-1.164-1.164 1.128-1.659-.175-.283a6.28 6.28 0 0 1-.757-1.83l-.077-.324-1.968-.376v-1.648l1.968-.376.077-.32c.16-.649.412-1.262.757-1.823l.175-.284-1.128-1.658 1.164-1.165 1.66 1.129.282-.176a6.445 6.445 0 0 1 1.824-.757l.32-.077.376-1.968h1.643l.376 1.968.325.077a6.28 6.28 0 0 1 1.828.757l.284.176 1.659-1.129 1.164 1.165-1.128 1.658.175.284c.345.561.597 1.18.757 1.823l.077.32 1.968.376v1.643l-1.968.376-.077.325a6.28 6.28 0 0 1-.757 1.829l-.175.283 1.128 1.664z" fill="#085ED0"/><path d="M36 32.42a3.588 3.588 0 0 0-3.585 3.585 3.588 3.588 0 0 0 3.586 3.586 3.588 3.588 0 0 0 3.585-3.586A3.588 3.588 0 0 0 36 32.42zm0 6.135a2.555 2.555 0 1 1 0-5.111 2.555 2.555 0 0 1 0 5.111zM20.53 36.14c0 8.535 6.94 15.474 15.47 15.474.773 0 1.54-.056 2.288-.17l.108.593c.036.19.165.345.345.412l.304.098 4.404-3.313a.544.544 0 0 0 .217-.53l-.077-.34-5.327-1.546a.558.558 0 0 0-.526.119l-.226.226.2 1.113c-.566.077-1.138.119-1.71.119-6.753 0-12.25-5.497-12.25-12.256 0-.33.015-.664.041-.989l-1.03-.082c-.026.35-.041.71-.041 1.071 0 7.326 5.96 13.286 13.28 13.286.799 0 1.608-.072 2.4-.216l.51-.093-.2-1.097 3.349.968-2.787 2.097-.15-.84-.51.093c-.845.16-1.72.237-2.607.237-7.964 0-14.44-6.48-14.44-14.445 0-.33.011-.665.037-.994l-1.03-.072c-.031.36-.042.72-.042 1.076zm1.411-6.471l.938.433c.288-.629.628-1.247 1.01-1.83l-.866-.566a16.174 16.174 0 0 0-1.082 1.963zm-1.168 3.735l1.014.18c.124-.685.294-1.365.515-2.025l-.978-.324a14.845 14.845 0 0 0-.552 2.169zM24.816 27c.206-.252.428-.505.654-.747l-.752-.705c-.242.257-.479.53-.7.798l.798.654zm1.603 1.5c.206-.258.422-.51.649-.748l-.752-.705c-.242.257-.48.53-.7.808l.803.644zm-1.562 2.534c.237-.515.51-1.02.82-1.5l-.866-.555a13.3 13.3 0 0 0-.886 1.622l.932.433zm-1.916 2.653l1.015.19a12.1 12.1 0 0 1 .428-1.648l-.979-.33c-.19.582-.35 1.185-.464 1.788zM51.47 36.14c0-8.532-6.939-15.476-15.47-15.476-.52 0-1.04.026-1.55.077l-.098-.747a.553.553 0 0 0-.325-.432l-.299-.114-4.554 3.086a.54.54 0 0 0-.236.53l.067.346 5.223 1.803a.55.55 0 0 0 .53-.093l.238-.216-.13-.98c.377-.035.753-.05 1.13-.05 6.753 0 12.25 5.496 12.25 12.25 0 .247-.006.494-.021.741l1.03.062c.015-.267.02-.535.02-.803.006-7.31-5.95-13.27-13.275-13.27-.592 0-1.19.04-1.777.118l-.505.067.124.953-3.297-1.139 2.89-1.957.129.989.515-.067a14.884 14.884 0 0 1 1.926-.129c7.965 0 14.44 6.48 14.44 14.44 0 .335-.01.67-.03.994l1.03.067c.015-.34.025-.695.025-1.05zm-1.087 5.722l-.959-.38c-.221.55-.479 1.096-.762 1.617l.902.5c.309-.562.587-1.15.819-1.737zm.892-3.23l-1.015-.164a14.493 14.493 0 0 1-.392 1.746l.99.288c.174-.613.314-1.241.417-1.87zm-2.462 6.188l-.856-.578c-.185.274-.38.547-.587.804l.809.634a14.8 14.8 0 0 0 .633-.86zm-3.163-1.129l.808.634c.165-.211.325-.428.48-.644l-.846-.587c-.144.206-.288.402-.443.597zm2.662-2.54l-.953-.386a10.63 10.63 0 0 1-.572 1.2l.907.495c.226-.428.438-.87.618-1.309zm.788-2.776l-1.014-.17c-.072.438-.17.876-.294 1.298l.99.278c.128-.458.236-.927.319-1.406z" fill="#085ED0"/></g><defs><filter id="a" x="-19" y="-19" width="110" height="110" filterUnits="userSpaceOnUse" color-interpolation-filters="sRGB"><feFlood flood-opacity="0" result="BackgroundImageFix"/><feGaussianBlur in="BackgroundImageFix" stdDeviation="9.5"/><feComposite in2="SourceAlpha" operator="in" result="effect1_backgroundBlur_1742_15648"/><feBlend in="SourceGraphic" in2="effect1_backgroundBlur_1742_15648" result="shape"/></filter><linearGradient id="b" x1="36" x2="36" y2="72" gradientUnits="userSpaceOnUse"><stop stop-color="#EFF6FF" stop-opacity=".5"/><stop offset=".516" stop-color="#EEF3FF" stop-opacity=".46"/><stop offset="1" stop-color="#EFF6FF" stop-opacity=".4"/></linearGradient></defs></svg>