<svg width="128" height="24" viewBox="0 0 128 24" fill="none" xmlns="http://www.w3.org/2000/svg"><path d="M17.909 22.875a1.72 1.72 0 0 1-1.013-.335L12 18.983 7.104 22.54a1.724 1.724 0 0 1-2.651-1.927l1.873-5.766-4.543-3.588A1.723 1.723 0 0 1 2.85 8.184h5.64l1.87-5.867a1.723 1.723 0 0 1 3.278-.001v.002l1.871 5.866h5.64a1.723 1.723 0 0 1 1.067 3.075l-4.543 3.588 1.874 5.766a1.697 1.697 0 0 1-.626 1.927 1.72 1.72 0 0 1-1.013.335zm26 0a1.72 1.72 0 0 1-1.013-.335L38 18.983l-4.896 3.557a1.724 1.724 0 0 1-2.651-1.927l1.873-5.766-4.543-3.588a1.723 1.723 0 0 1 1.068-3.075h5.64l1.87-5.867a1.723 1.723 0 0 1 3.278-.001v.002l1.871 5.866h5.64a1.723 1.723 0 0 1 1.067 3.075l-4.543 3.588 1.874 5.766a1.697 1.697 0 0 1-.626 1.927 1.72 1.72 0 0 1-1.013.335zm26 0a1.72 1.72 0 0 1-1.013-.335L64 18.983l-4.896 3.557a1.724 1.724 0 0 1-2.651-1.927l1.873-5.766-4.543-3.588a1.723 1.723 0 0 1 1.068-3.075h5.64l1.87-5.867a1.723 1.723 0 0 1 3.278-.001v.002l1.871 5.866h5.64a1.723 1.723 0 0 1 1.067 3.075l-4.543 3.588 1.874 5.766a1.697 1.697 0 0 1-.626 1.927 1.72 1.72 0 0 1-1.013.335zm26 0a1.72 1.72 0 0 1-1.013-.335L90 18.983l-4.896 3.557a1.724 1.724 0 0 1-2.651-1.927l1.873-5.766-4.543-3.588a1.723 1.723 0 0 1 1.068-3.075h5.64l1.87-5.867a1.723 1.723 0 0 1 3.278-.001v.002l1.871 5.866h5.64a1.723 1.723 0 0 1 1.067 3.075l-4.543 3.588 1.874 5.766a1.697 1.697 0 0 1-.626 1.927 1.72 1.72 0 0 1-1.013.335zm26 0a1.72 1.72 0 0 1-1.013-.335L116 18.983l-4.896 3.557a1.723 1.723 0 0 1-2.651-1.927l1.873-5.766-4.543-3.588a1.72 1.72 0 0 1 .069-2.756c.292-.208.641-.32.999-.32h5.639l1.871-5.866a1.724 1.724 0 0 1 3.278-.001l.001.002 1.87 5.866h5.639a1.725 1.725 0 0 1 1.654 2.206 1.72 1.72 0 0 1-.586.869l-4.543 3.588 1.874 5.766a1.702 1.702 0 0 1-.626 1.926 1.72 1.72 0 0 1-1.013.336z" fill="#FFE145"/></svg>