<svg width="35" height="34" viewBox="0 0 35 34" fill="none" xmlns="http://www.w3.org/2000/svg"><path d="M34.5 17c0-9.39-7.61-17-17-17S.5 7.61.5 17c0 8.487 6.216 15.52 14.344 16.794v-11.88h-4.317V17h4.317v-3.745c0-4.26 2.537-6.614 6.421-6.614 1.86 0 3.805.332 3.805.332v4.183h-2.145c-2.111 0-2.769 1.312-2.769 2.656V17h4.715l-.754 4.914h-3.96v11.88C28.283 32.52 34.5 25.487 34.5 17z" fill="#1877F2"/><path d="M24.117 21.914L24.871 17h-4.715v-3.188c0-1.344.658-2.656 2.77-2.656h2.144V6.973s-1.945-.332-3.805-.332c-3.884 0-6.421 2.354-6.421 6.614V17h-4.317v4.914h4.317v11.88A17.11 17.11 0 0 0 17.5 34c.903 0 1.79-.07 2.656-.206v-11.88h3.961z" fill="#fff"/></svg>