<svg width="35" height="34" viewBox="0 0 35 34" fill="none" xmlns="http://www.w3.org/2000/svg"><circle cx="17.5" cy="17" r="17" fill="url(#a)"/><path d="M24.08 9H11.92c-1.374 0-2.42 1.046-2.42 2.42v12.16c0 1.374 1.046 2.42 2.42 2.42h12.16c1.374 0 2.42-1.046 2.42-2.42V11.42c0-1.374-1.046-2.42-2.42-2.42zM18 22.6c2.811 0 5.1-2.223 5.1-4.904 0-.458-.065-.98-.196-1.373h1.438v6.93a.655.655 0 0 1-.653.655H12.312a.655.655 0 0 1-.654-.654v-6.996h1.504a4.98 4.98 0 0 0-.197 1.373C12.9 20.377 15.188 22.6 18 22.6zm0-1.962c-1.83 0-3.27-1.438-3.27-3.203 0-1.766 1.44-3.204 3.27-3.204s3.27 1.438 3.27 3.204c0 1.83-1.44 3.204-3.27 3.204zm6.277-6.996c0 .393-.327.72-.72.72h-1.83a.726.726 0 0 1-.72-.72v-1.765c0-.392.328-.72.72-.72h1.83c.393 0 .72.328.72.72v1.765z" fill="#fff"/><defs><linearGradient id="a" x1="7.725" y1="30.175" x2="30.25" y2="6.8" gradientUnits="userSpaceOnUse"><stop stop-color="#EEA054"/><stop offset=".503" stop-color="#D64763"/><stop offset="1" stop-color="#B62A99"/></linearGradient></defs></svg>