<svg width="35" height="34" viewBox="0 0 35 34" fill="none" xmlns="http://www.w3.org/2000/svg"><circle cx="17.5" cy="17" r="17" fill="#2878B7"/><path d="M24.3 17.636v4.688h-2.744v-4.402c0-1.087-.4-1.83-1.372-1.83-.743 0-1.2.515-1.372.972a2.14 2.14 0 0 0-.114.686v4.574h-2.745s.057-7.433 0-8.176h2.745v1.144c.343-.572 1.029-1.373 2.458-1.373 1.773 0 3.145 1.201 3.145 3.717zm-11.206-7.433c-.914 0-1.543.629-1.543 1.43 0 .8.572 1.429 1.486 1.429.972 0 1.544-.63 1.544-1.43.057-.857-.514-1.429-1.486-1.429zm-1.372 12.121h2.745v-8.176h-2.745v8.176z" fill="#fff"/></svg>