<svg width="35" height="34" viewBox="0 0 35 34" fill="none" xmlns="http://www.w3.org/2000/svg"><circle cx="17.5" cy="17" r="17" fill="#F59124"/><path d="M23.093 12.037c-1.334-1.223-2.946-1.834-4.947-1.834-2.056 0-3.834.667-5.28 2.056-1.444 1.39-2.167 3.113-2.167 5.17 0 2 .667 3.667 2.057 5.112 1.389 1.445 3.223 2.112 5.613 2.112 1.39 0 2.779-.278 4.168-.89.445-.166.667-.722.5-1.166-.166-.445-.722-.667-1.167-.5-1.167.5-2.334.778-3.446.778-1.778 0-3.167-.556-4.168-1.668-1-1.111-1.5-2.39-1.5-3.835 0-1.611.555-2.945 1.556-4.001 1.056-1.056 2.334-1.612 3.89-1.612 1.39 0 2.612.445 3.613 1.334 1 .89 1.445 2 1.445 3.335 0 .889-.223 1.667-.667 2.278-.445.612-.89.89-1.39.89-.278 0-.389-.111-.389-.445 0-.222 0-.5.056-.778l.556-4.502h-1.89l-.111.445c-.5-.39-1-.612-1.556-.612-.89 0-1.668.39-2.335 1.112-.667.723-.944 1.667-.944 2.779 0 1.111.277 2 .889 2.723.556.667 1.278 1 2.056 1 .723 0 1.334-.277 1.834-.889.39.556.945.89 1.723.89 1.112 0 2.056-.5 2.89-1.445.834-.945 1.223-2.112 1.223-3.502-.167-1.667-.834-3.168-2.112-4.335zm-4.39 6.78c-.334.445-.723.668-1.223.668-.334 0-.556-.167-.779-.5-.222-.334-.277-.723-.277-1.223 0-.612.11-1.112.389-1.445.278-.39.611-.556 1-.556.334 0 .667.111.945.444.278.278.389.667.389 1.112.056.556-.111 1.056-.445 1.5z" fill="#fff"/></svg>