<svg width="35" height="34" viewBox="0 0 35 34" fill="none" xmlns="http://www.w3.org/2000/svg"><circle cx="17.5" cy="17" r="17" fill="#00A9E7"/><path d="M27.818 18.068c.068-.545.136-1.023.136-1.568 0-5.454-4.431-9.955-9.954-9.955-.546 0-1.023.069-1.568.137A5.84 5.84 0 0 0 13.636 6 6.11 6.11 0 0 0 7.5 12.136c0 .955.205 1.91.682 2.796-.068.545-.137 1.022-.137 1.568 0 5.454 4.432 9.954 9.955 9.954.546 0 1.023-.068 1.568-.136.886.41 1.841.682 2.796.682a6.11 6.11 0 0 0 6.136-6.136c0-.955-.273-1.91-.682-2.796zm-5.659 2.046a2.55 2.55 0 0 1-.886 1.022c-.41.273-.819.478-1.364.614a7.603 7.603 0 0 1-1.84.204c-1.433 0-2.592-.34-3.41-.954-.477-.41-.886-.886-1.09-1.5-.274-.546.204-1.227.885-1.227h.205c.41 0 .818.273.955.613.136.341.34.614.613.819.41.34 1.023.477 1.773.477.682 0 1.227-.136 1.636-.341.41-.205.614-.614.614-1.023 0-.204-.068-.34-.136-.477-.069-.137-.273-.273-.41-.341-.204-.136-.409-.204-.75-.273-.272-.068-.613-.204-1.022-.273l-.41-.136c-.476-.136-1.022-.273-1.431-.409a5.115 5.115 0 0 1-1.227-.545 2.071 2.071 0 0 1-.819-.887c-.204-.34-.272-.818-.272-1.363 0-.546.136-1.023.34-1.432.205-.41.546-.75.887-.955.41-.273.818-.477 1.364-.545A5.97 5.97 0 0 1 18 10.977c.682 0 1.227.069 1.773.205.545.136.954.34 1.363.682.41.272.682.613.887 1.09.34.614-.137 1.432-.887 1.432h-.204c-.41 0-.75-.204-.955-.545a3.715 3.715 0 0 0-.477-.614c-.34-.273-.886-.409-1.5-.409s-1.09.136-1.432.341c-.34.205-.477.545-.477.886 0 .205.068.341.136.478a.698.698 0 0 0 .41.34c.204.069.409.205.681.273.273.069.614.137 1.023.273.409.068.75.205 1.159.273.34.068.682.204 1.023.272.34.137.613.273.886.41.273.136.477.34.682.545.204.205.34.477.409.75.136.273.136.682.136 1.091-.136.477-.272.954-.477 1.364z" fill="#fff"/></svg>