<svg width="35" height="34" viewBox="0 0 35 34" fill="none" xmlns="http://www.w3.org/2000/svg"><circle cx="17.5" cy="17" r="17" fill="#2F89CE"/><path d="M8.447 17.321l3.908 1.457 1.524 4.902c.066.332.463.398.728.2l2.186-1.79c.199-.198.53-.198.795 0l3.909 2.85c.265.198.662.065.728-.266l2.915-13.911c.066-.331-.265-.662-.596-.53L8.447 16.46c-.398.132-.398.729 0 .861zm5.233.729l7.684-4.704c.133-.066.265.133.133.2l-6.294 5.895c-.198.199-.397.464-.397.795l-.199 1.59c0 .198-.331.265-.397 0l-.795-2.915c-.199-.331-.066-.729.265-.861z" fill="#fff"/></svg>