<svg width="35" height="34" viewBox="0 0 35 34" fill="none" xmlns="http://www.w3.org/2000/svg"><circle cx="17.5" cy="17" r="17" fill="#55ACE3"/><path d="M26.512 12.662a7.35 7.35 0 0 1-1.955.51c.68-.425 1.275-1.105 1.53-1.87-.68.425-1.36.68-2.21.85a3.344 3.344 0 0 0-2.465-1.105 3.41 3.41 0 0 0-3.4 3.4c0 .255 0 .51.085.765a10.02 10.02 0 0 1-7.055-3.57c-.255.51-.425 1.105-.425 1.7 0 1.19.595 2.21 1.53 2.805-.595 0-1.105-.17-1.53-.425 0 1.615 1.19 3.06 2.72 3.315-.255.085-.595.085-.935.085-.255 0-.425 0-.68-.085a3.393 3.393 0 0 0 3.23 2.38c-1.19.935-2.635 1.445-4.25 1.445-.255 0-.51 0-.85-.085 1.53.935 3.315 1.53 5.27 1.53 6.29 0 9.69-5.185 9.69-9.69v-.425c.68-.255 1.275-.85 1.7-1.53z" fill="#fff"/></svg>