<svg width="35" height="34" viewBox="0 0 35 34" fill="none" xmlns="http://www.w3.org/2000/svg"><circle cx="17.5" cy="17" r="17" fill="#7C509A"/><path d="M22.816 8.964a26.335 26.335 0 0 0-9.844 0c-1.433.31-3.24 2.042-3.551 3.403a19.429 19.429 0 0 0 0 8.043c.373 1.361 2.18 3.093 3.55 3.403.063 0 .126.062.126.124v3.897c0 .186.249.31.373.124l1.87-1.918s1.495-1.546 1.744-1.794c0 0 .062-.062.125-.062 1.869.062 3.8-.124 5.67-.433 1.432-.31 3.239-2.042 3.55-3.403.561-2.66.561-5.383 0-8.043-.373-1.3-2.18-3.032-3.613-3.341zm.062 11.632c-.311.618-.685 1.113-1.308 1.423l-.561.185a7.882 7.882 0 0 1-.623-.185c-1.994-.805-3.863-1.918-5.358-3.527a14.874 14.874 0 0 1-2.056-3.094c-.25-.556-.499-1.051-.685-1.608-.187-.495.124-.99.436-1.361.311-.372.685-.619 1.121-.805.312-.185.623-.061.872.186.499.619.997 1.237 1.371 1.918.25.433.187.928-.25 1.237-.124.062-.186.124-.31.248-.063.062-.188.124-.25.247a.598.598 0 0 0-.062.557c.498 1.423 1.433 2.537 2.866 3.156.249.123.436.185.747.185.437-.062.623-.557.935-.804.311-.248.685-.248 1.06-.062.31.186.622.433.996.68.312.248.623.434.934.681.187.124.25.433.125.743zm-2.617-4.64c-.124 0-.062 0 0 0-.249 0-.311-.124-.373-.31 0-.124 0-.31-.063-.433a1.175 1.175 0 0 0-.436-.68c-.124-.063-.25-.124-.374-.186-.187-.062-.311-.062-.498-.062-.187-.062-.25-.186-.25-.371 0-.124.188-.248.312-.248.997.062 1.745.619 1.87 1.794v.248c0 .124-.063.247-.188.247zm-.623-2.723c-.311-.124-.623-.247-.997-.31-.124 0-.311-.061-.436-.061-.186 0-.311-.124-.249-.31 0-.185.125-.309.312-.247.623.062 1.183.186 1.744.433 1.122.557 1.745 1.485 1.932 2.722v.805c-.063.247-.499.31-.561 0 0-.062-.063-.186-.063-.248a3.59 3.59 0 0 0-.373-1.608c-.374-.557-.81-.928-1.309-1.176zm3.365 3.712c-.187 0-.312-.185-.312-.37 0-.372-.062-.743-.124-1.115-.25-1.98-1.87-3.588-3.8-3.897-.312-.062-.624-.062-.873-.124-.187 0-.436 0-.499-.248-.062-.185.125-.37.312-.37h.124c2.555.061.125 0 0 0 2.617.061 4.798 1.793 5.234 4.392.062.433.125.866.125 1.361.124.186 0 .371-.187.371z" fill="#fff"/></svg>