<svg width="35" height="34" viewBox="0 0 35 34" fill="none" xmlns="http://www.w3.org/2000/svg"><path d="M17.5 34c9.389 0 17-7.611 17-17s-7.611-17-17-17S.5 7.611.5 17s7.611 17 17 17z" fill="#25D366"/><path fill-rule="evenodd" clip-rule="evenodd" d="M18.06 26.46h-.003a10.1 10.1 0 0 1-4.831-1.231l-5.359 1.405 1.434-5.238a10.09 10.09 0 0 1-1.35-5.053c.003-5.574 4.538-10.109 10.11-10.109A10.043 10.043 0 0 1 25.21 9.2a10.047 10.047 0 0 1 2.959 7.151c-.003 5.573-4.536 10.107-10.11 10.11zm-4.584-3.062l.306.182a8.39 8.39 0 0 0 4.277 1.172h.003c4.631 0 8.4-3.77 8.402-8.402a8.351 8.351 0 0 0-2.458-5.945 8.345 8.345 0 0 0-5.94-2.464c-4.635 0-8.404 3.77-8.406 8.402a8.39 8.39 0 0 0 1.285 4.471l.2.318-.85 3.1 3.18-.834zm9.333-4.872c.176.086.295.143.346.228.063.105.063.61-.147 1.201-.21.59-1.22 1.129-1.705 1.201-.435.065-.986.092-1.591-.1a14.504 14.504 0 0 1-1.44-.532c-2.368-1.023-3.968-3.318-4.27-3.751a3.1 3.1 0 0 0-.045-.063l-.002-.003c-.134-.178-1.03-1.373-1.03-2.61 0-1.163.572-1.773.835-2.054l.05-.053a.928.928 0 0 1 .673-.316c.169 0 .337.001.484.009h.057c.147 0 .33-.002.512.433l.279.678c.217.529.457 1.113.5 1.198.063.126.105.274.02.442l-.035.072c-.063.13-.11.224-.217.35l-.13.155a4.182 4.182 0 0 1-.249.287c-.126.126-.258.263-.11.516.147.253.654 1.08 1.405 1.75a6.522 6.522 0 0 0 1.864 1.178c.07.03.125.054.167.075.252.127.4.105.547-.063.147-.169.631-.738.8-.99.168-.253.337-.211.568-.127.232.084 1.473.695 1.726.822l.138.067z" fill="#FDFDFD"/></svg>